<svg width="34" height="34" viewBox="0 0 34 34" fill="none" xmlns="http://www.w3.org/2000/svg">
<path d="M30.8358 13.1036H28.072C27.8056 12.371 27.5225 11.655 27.1396 10.989L29.1875 8.94106C30.1865 7.94205 30.1865 6.34365 29.1875 5.34464L28.022 4.17915C27.023 3.18015 25.4246 3.18015 24.4256 4.17915L22.3776 6.22709C21.7116 5.84414 20.9957 5.5611 20.2631 5.2947V2.53079C20.2631 1.13218 19.1142 0 17.7323 0H15.7509C14.3024 0 13.1035 1.18215 13.1035 2.64735V5.2947C12.3709 5.5611 11.6551 5.84414 10.9891 6.22709L8.94104 4.17915C7.94204 3.18015 6.34369 3.18015 5.34469 4.17915L4.17917 5.34464C3.18017 6.34365 3.18017 7.94205 4.17917 8.94106L6.22708 10.989C5.96068 11.6717 5.67764 12.3876 5.29469 13.1036H2.53083C1.13223 13.1036 0 14.2524 0 15.6344V17.699C0 19.0976 1.14888 20.2298 2.53083 20.2298H5.29469C5.56109 20.9624 5.84413 21.6783 6.22708 22.3443L4.17917 24.3923C3.18017 25.3913 3.18017 26.9897 4.17917 27.9887L5.34469 29.1542C6.34369 30.1532 7.94204 30.1532 8.94104 29.1542L10.9891 27.1062C11.6551 27.4892 12.3709 27.7722 13.1035 28.0386V30.8025C13.1035 32.2011 14.2524 33.3333 15.6344 33.3333H17.699C19.0976 33.3333 20.2298 32.1845 20.2298 30.8025V28.0386C20.9624 27.7722 21.6784 27.4892 22.3444 27.1062L24.3923 29.1542C25.3913 30.1532 26.9896 30.1532 27.9886 29.1542L29.1542 27.9887C30.1532 26.9897 30.1532 25.3913 29.1542 24.3923L27.1062 22.3443C27.4892 21.6783 27.7722 20.9624 28.0386 20.2298H30.8025C32.2011 20.2298 33.3333 19.0809 33.3333 17.699V15.6344C33.3333 14.2358 32.1844 13.1036 30.8025 13.1036H30.8192H30.8358ZM16.7 20.8458C14.3856 20.8458 12.5375 18.981 12.5375 16.6833C12.5375 14.3856 14.4023 12.5208 16.7 12.5208C18.9977 12.5208 20.8625 14.3856 20.8625 16.6833C20.8625 18.981 18.9977 20.8458 16.7 20.8458Z" fill="#435F17"/>
</svg>
