<svg width="510" height="61" viewBox="0 0 510 61" fill="none" xmlns="http://www.w3.org/2000/svg">
<path d="M78.8939 57.4559C76.9139 57.4559 75.3119 56.7899 74.0879 55.4579C75.3119 55.4579 76.2479 55.1339 76.8959 54.4859C77.5439 53.8739 77.8679 53.0459 77.8679 52.0019C77.8679 50.5259 77.3819 49.2659 76.4099 48.2219C75.4379 47.1779 73.9619 46.6559 71.9819 46.6559C70.8659 46.6559 69.3179 46.9079 67.3379 47.4119C65.3939 47.9519 62.6939 48.7439 59.2379 49.7879C53.1539 51.6239 47.9159 53.0459 43.5239 54.0539C39.1679 55.0979 35.0999 55.6199 31.3199 55.6199C25.0919 55.6199 19.6199 54.6479 14.9039 52.7039C10.2239 50.7959 6.56994 47.8619 3.94194 43.9019C1.31394 39.9419 -5.85616e-05 35.0099 -5.85616e-05 29.1059C-5.85616e-05 24.3899 1.29594 20.1959 3.88794 16.5239C6.51594 12.8159 10.0259 9.9359 14.4179 7.8839C18.8459 5.7959 23.6519 4.7519 28.8359 4.7519C30.9239 4.7519 33.1199 4.9499 35.4239 5.34591L39.1499 6.04791C42.8579 6.7679 45.8459 7.3079 48.1139 7.6679C50.4179 7.9919 52.5599 8.1539 54.5399 8.1539C56.1959 8.1539 57.5279 8.0099 58.5359 7.7219C59.7599 7.43391 60.6419 6.91191 61.1819 6.1559C61.7579 5.3639 62.0459 4.4819 62.0459 3.5099C62.0459 2.9339 61.9379 2.3759 61.7219 1.83591C61.5059 1.2599 61.2179 0.827904 60.8579 0.539906C61.7939 0.179904 62.7119 -9.69172e-05 63.6119 -9.69172e-05C64.7999 -9.69172e-05 65.8439 0.305903 66.7439 0.917904C67.6799 1.5299 68.3819 2.2859 68.8499 3.1859C69.3539 4.08591 69.6059 4.94991 69.6059 5.77791C69.6059 7.6859 68.9039 9.1259 67.4999 10.0979C66.1319 11.0699 64.2959 11.5559 61.9919 11.5559C60.7319 11.5559 59.4539 11.4299 58.1579 11.1779C56.8979 10.8899 55.1519 10.4579 52.9199 9.8819C50.0399 9.1259 47.5559 8.5499 45.4679 8.1539C43.4159 7.75791 41.1839 7.55991 38.7719 7.55991C36.1079 7.55991 33.1019 8.2799 29.7539 9.7199C26.4419 11.1239 23.5259 13.5539 21.0059 17.0099C18.4859 20.4299 17.2259 24.9659 17.2259 30.6179C17.2259 38.0699 18.9359 43.6499 22.3559 47.3579C25.7759 51.1019 30.7619 52.9739 37.3139 52.9739C40.5539 52.9739 43.7219 52.5959 46.8179 51.8399C49.9499 51.1199 53.8379 50.0219 58.4819 48.5459C62.6219 47.2139 66.0599 46.2059 68.7959 45.5219C71.5679 44.8739 74.2499 44.5499 76.8419 44.5499C79.4339 44.5499 81.6839 45.0359 83.5919 46.0079C85.4999 47.0159 86.4539 48.8339 86.4539 51.4619C86.4539 52.5419 86.0759 53.5319 85.3199 54.4319C84.5999 55.3679 83.6459 56.1059 82.4579 56.6459C81.3059 57.1859 80.1179 57.4559 78.8939 57.4559ZM37.0258 42.4979C38.2498 41.8139 39.0598 40.9499 39.4558 39.9059C39.8878 38.8619 40.1038 37.7099 40.1038 36.4499V23.4359C40.1038 20.9159 40.0318 19.0979 39.8878 17.9819C39.7438 16.8659 39.4558 16.0739 39.0238 15.6059C38.6278 15.1379 37.9618 14.8319 37.0258 14.6879V13.9319H53.0638V20.6819C54.1438 18.7739 55.5658 17.0999 57.3298 15.6599C59.0938 14.1839 60.8578 13.4459 62.6218 13.4459C64.2778 13.4459 65.5378 13.9499 66.4018 14.9579C67.2658 15.9299 67.6978 17.1179 67.6978 18.5219C67.6978 19.9619 67.2118 21.0959 66.2398 21.9239C65.2678 22.7519 64.1158 23.1659 62.7838 23.1659C61.4158 23.1659 60.2278 22.7339 59.2198 21.8699C58.2118 21.0059 57.7078 19.7999 57.7078 18.2519C57.7078 17.9279 57.7798 17.5319 57.9238 17.0639C57.2398 17.5679 56.4298 18.3959 55.4938 19.5479C54.5938 20.6639 53.7838 21.8519 53.0638 23.1119V36.4499C53.0638 37.7459 53.2618 38.9159 53.6578 39.9599C54.0898 40.9679 54.9178 41.8139 56.1418 42.4979V43.2539H37.0258V42.4979ZM79.3293 10.9619C77.8893 10.9619 76.6473 10.4579 75.6033 9.4499C74.5953 8.4059 74.0913 7.1639 74.0913 5.7239C74.0913 4.3199 74.5953 3.1139 75.6033 2.1059C76.6473 1.06191 77.8893 0.539906 79.3293 0.539906C80.7693 0.539906 81.9933 1.06191 83.0013 2.1059C84.0093 3.1139 84.5133 4.3199 84.5133 5.7239C84.5133 7.1639 84.0093 8.4059 83.0013 9.4499C81.9933 10.4579 80.7693 10.9619 79.3293 10.9619ZM69.8793 42.4979C71.1033 41.8139 71.9133 40.9499 72.3093 39.9059C72.7413 38.8619 72.9573 37.7099 72.9573 36.4499V20.7359C72.9573 18.7199 72.7593 17.2619 72.3633 16.3619C71.9673 15.4619 71.1393 14.9039 69.8793 14.6879V13.9319H85.9173V36.4499C85.9173 37.7459 86.1153 38.9159 86.5113 39.9599C86.9433 40.9679 87.7713 41.8139 88.9953 42.4979V43.2539H69.8793V42.4979ZM101.175 44.1179C99.4833 44.1179 97.8633 43.7759 96.3153 43.0919C94.7673 42.3719 93.5073 41.3459 92.5353 40.0139C91.5993 38.6819 91.1313 37.1519 91.1313 35.4239C91.1313 33.7319 91.7253 32.1839 92.9133 30.7799C94.1373 29.3399 95.9553 28.1879 98.3673 27.3239C100.815 26.4239 103.803 25.9739 107.331 25.9739C108.303 25.9739 109.041 25.9919 109.545 26.0279V19.2779C109.545 17.8019 109.239 16.6679 108.627 15.8759C108.051 15.0479 107.349 14.6339 106.521 14.6339C105.693 14.6339 104.973 15.0479 104.361 15.8759C103.749 16.6679 103.443 17.7839 103.443 19.2239C103.443 21.0959 104.127 22.6439 105.495 23.8679C103.371 24.6599 101.535 25.0559 99.9873 25.0559C98.2233 25.0559 96.8553 24.6419 95.8833 23.8139C94.9113 22.9859 94.4253 21.9599 94.4253 20.7359C94.4253 18.4679 95.5413 16.7039 97.7733 15.4439C100.005 14.1479 102.723 13.4999 105.927 13.4999C108.663 13.4999 111.291 14.0039 113.811 15.0119C116.367 15.9839 118.455 17.4599 120.075 19.4399C121.695 21.4199 122.505 23.8499 122.505 26.7299V36.4499C122.505 38.2139 122.721 39.6359 123.153 40.7159C123.621 41.7959 124.431 42.3899 125.583 42.4979V43.2539H115.269C113.721 43.2539 112.461 42.8759 111.489 42.1199C110.553 41.3279 109.959 40.2659 109.707 38.9339C108.915 40.6619 107.745 41.9579 106.197 42.8219C104.685 43.6859 103.011 44.1179 101.175 44.1179ZM109.545 27.4319C107.385 27.6119 105.675 28.4759 104.415 30.0239C103.155 31.5359 102.525 33.2819 102.525 35.2619C102.525 36.5939 102.849 37.6379 103.497 38.3939C104.181 39.1499 104.973 39.5279 105.873 39.5279C106.593 39.5279 107.277 39.2939 107.925 38.8259C108.573 38.3579 109.113 37.6919 109.545 36.8279V27.4319ZM127.729 42.4979C128.953 41.8139 129.763 40.9499 130.159 39.9059C130.591 38.8619 130.807 37.7099 130.807 36.4499V23.4359C130.807 20.9159 130.735 19.0979 130.591 17.9819C130.447 16.8659 130.159 16.0739 129.727 15.6059C129.331 15.1379 128.665 14.8319 127.729 14.6879V13.9319H143.767V20.6819C144.847 18.7739 146.269 17.0999 148.033 15.6599C149.797 14.1839 151.561 13.4459 153.325 13.4459C154.981 13.4459 156.241 13.9499 157.105 14.9579C157.969 15.9299 158.401 17.1179 158.401 18.5219C158.401 19.9619 157.915 21.0959 156.943 21.9239C155.971 22.7519 154.819 23.1659 153.487 23.1659C152.119 23.1659 150.931 22.7339 149.923 21.8699C148.915 21.0059 148.411 19.7999 148.411 18.2519C148.411 17.9279 148.483 17.5319 148.627 17.0639C147.943 17.5679 147.133 18.3959 146.197 19.5479C145.297 20.6639 144.487 21.8519 143.767 23.1119V36.4499C143.767 37.7459 143.965 38.9159 144.361 39.9599C144.793 40.9679 145.621 41.8139 146.845 42.4979V43.2539H127.729V42.4979ZM212.422 42.4979C213.646 41.8139 214.456 40.9499 214.852 39.9059C215.284 38.8619 215.5 37.7099 215.5 36.4499V12.1499C215.5 10.6739 215.284 9.3059 214.852 8.04591C214.42 6.74991 213.61 6.1019 212.422 6.1019C209.254 6.1019 206.608 6.8759 204.484 8.4239C202.36 9.9719 200.794 11.9339 199.786 14.3099C198.778 16.6499 198.274 19.0619 198.274 21.5459C198.274 24.2099 198.814 26.4779 199.894 28.3499C201.01 30.1859 202.486 31.1039 204.322 31.1039C205.33 31.1039 206.122 30.8519 206.698 30.3479C207.274 29.8439 207.562 29.2139 207.562 28.4579C207.562 27.8099 207.364 27.1979 206.968 26.6219C206.608 26.0099 205.996 25.6499 205.132 25.5419C205.132 24.8579 205.51 24.1919 206.266 23.5439C207.022 22.8599 207.886 22.5179 208.858 22.5179C210.19 22.5179 211.234 22.8779 211.99 23.5979C212.746 24.2819 213.124 25.1459 213.124 26.1899C213.124 27.0539 212.836 27.8999 212.26 28.7279C211.72 29.5559 210.892 30.2399 209.776 30.7799C208.66 31.2839 207.31 31.5359 205.726 31.5359C201.802 31.5359 198.472 30.9599 195.736 29.8079C193.036 28.6199 191.002 27.0719 189.634 25.1639C188.266 23.2199 187.582 21.1499 187.582 18.9539C187.582 16.6499 188.32 14.4539 189.796 12.3659C191.272 10.2779 193.414 8.5859 196.222 7.28991C199.066 5.99391 202.432 5.34591 206.32 5.34591H234.292C237.388 5.34591 240.016 5.99391 242.176 7.28991C244.336 8.5859 245.956 10.2779 247.036 12.3659C248.116 14.4539 248.656 16.7039 248.656 19.1159C248.656 21.5279 248.116 23.7959 247.036 25.9199C245.992 28.0439 244.426 29.7719 242.338 31.1039C240.286 32.4359 237.82 33.1019 234.94 33.1019C232.996 33.1019 230.836 32.7419 228.46 32.0219V36.4499C228.46 37.7459 228.658 38.9159 229.054 39.9599C229.486 40.9679 230.314 41.8139 231.538 42.4979V43.2539H212.422V42.4979ZM228.46 30.9419C228.892 31.0139 229.216 31.0499 229.432 31.0499C231.556 31.0499 233.194 29.8979 234.346 27.5939C235.534 25.2899 236.128 22.5179 236.128 19.2779C236.128 17.0819 235.84 14.9939 235.264 13.0139C234.688 11.0339 233.806 9.43191 232.618 8.2079C231.466 6.9479 230.08 6.31791 228.46 6.31791V30.9419ZM269.117 44.1179C266.417 44.1179 263.663 43.5959 260.855 42.5519C258.047 41.5079 255.671 39.8519 253.727 37.5839C251.783 35.2799 250.811 32.3639 250.811 28.8359C250.811 25.0559 251.765 22.0319 253.673 19.7639C255.617 17.4599 257.975 15.8399 260.747 14.9039C263.519 13.9679 266.309 13.4999 269.117 13.4999C271.781 13.4999 274.499 13.9679 277.271 14.9039C280.079 15.8399 282.473 17.4599 284.453 19.7639C286.469 22.0319 287.477 25.0559 287.477 28.8359C287.477 32.3279 286.469 35.2259 284.453 37.5299C282.473 39.8339 280.061 41.5079 277.217 42.5519C274.373 43.5959 271.673 44.1179 269.117 44.1179ZM269.171 43.0379C270.503 43.0379 271.547 41.6159 272.303 38.7719C273.059 35.8919 273.437 32.5079 273.437 28.6199C273.437 24.8039 273.059 21.5099 272.303 18.7379C271.583 15.9659 270.539 14.5799 269.171 14.5799C267.551 14.5799 266.273 15.9839 265.337 18.7919C264.437 21.5999 263.987 24.9299 263.987 28.7819C263.987 32.6339 264.437 35.9819 265.337 38.8259C266.273 41.6339 267.551 43.0379 269.171 43.0379ZM291.758 32.7239H292.514C292.766 34.3439 293.558 35.8919 294.89 37.3679C296.258 38.8439 297.806 40.0319 299.534 40.9319C301.298 41.7959 302.828 42.2279 304.124 42.2279C305.744 42.2279 306.554 41.5439 306.554 40.1759C306.554 39.4559 306.32 38.6819 305.852 37.8539C305.384 36.9899 304.628 36.1799 303.584 35.4239L302.666 34.7759C300.218 32.9399 298.202 31.3919 296.618 30.1319C295.07 28.8359 293.684 27.4319 292.46 25.9199C291.272 24.4079 290.678 22.9859 290.678 21.6539C290.678 19.9619 291.218 18.5039 292.298 17.2799C293.414 16.0199 294.89 15.0659 296.726 14.4179C298.598 13.7699 300.686 13.4459 302.99 13.4459C304.034 13.4459 305.06 13.5719 306.068 13.8239C307.112 14.0399 308.246 14.3459 309.47 14.7419C311.018 15.2099 312.044 15.4439 312.548 15.4439C313.016 15.4439 313.358 15.3359 313.574 15.1199C313.79 14.8679 313.898 14.4719 313.898 13.9319H314.654V23.0579H313.898C313.898 21.5459 313.394 20.1599 312.386 18.8999C311.414 17.6039 310.208 16.5959 308.768 15.8759C307.364 15.1199 306.05 14.7419 304.826 14.7419C303.962 14.7419 303.26 14.9579 302.72 15.3899C302.216 15.7859 301.964 16.3979 301.964 17.2259C301.964 18.3779 302.288 19.4399 302.936 20.4119C303.62 21.3839 304.43 22.2299 305.366 22.9499C306.338 23.6699 307.67 24.5879 309.362 25.7039C311.162 26.8559 312.584 27.8459 313.628 28.6739C314.672 29.4659 315.554 30.4199 316.274 31.5359C317.03 32.6519 317.408 33.8939 317.408 35.2619C317.408 36.7019 316.958 38.0339 316.058 39.2579C315.194 40.4459 313.862 41.4179 312.062 42.1739C310.298 42.8939 308.102 43.2539 305.474 43.2539C304.754 43.2539 304.214 43.2359 303.854 43.1999C303.278 43.1639 302.54 43.0919 301.64 42.9839C300.776 42.8759 300.128 42.8039 299.696 42.7679C297.572 42.4439 295.934 42.2819 294.782 42.2819C293.774 42.2819 293.126 42.6059 292.838 43.2539H291.758V32.7239ZM338.759 43.2539C333.431 43.2539 329.291 42.4979 326.339 40.9859C323.423 39.4739 321.965 36.6659 321.965 32.5619V15.7139H319.049V13.9319C320.993 13.6799 322.991 13.0319 325.043 11.9879C327.131 10.9079 328.967 9.50391 330.551 7.77591C332.171 6.0479 333.269 4.1579 333.845 2.1059H334.925V13.9319H338.705V15.7139H334.925V34.9919C334.925 36.3599 334.979 37.4759 335.087 38.3399C335.195 39.1679 335.519 39.9419 336.059 40.6619C336.635 41.3819 337.535 41.8859 338.759 42.1739V43.2539ZM350.978 44.1179C349.286 44.1179 347.666 43.7759 346.118 43.0919C344.57 42.3719 343.31 41.3459 342.338 40.0139C341.402 38.6819 340.934 37.1519 340.934 35.4239C340.934 33.7319 341.528 32.1839 342.716 30.7799C343.94 29.3399 345.758 28.1879 348.17 27.3239C350.618 26.4239 353.606 25.9739 357.134 25.9739C358.106 25.9739 358.844 25.9919 359.348 26.0279V19.2779C359.348 17.8019 359.042 16.6679 358.43 15.8759C357.854 15.0479 357.152 14.6339 356.324 14.6339C355.496 14.6339 354.776 15.0479 354.164 15.8759C353.552 16.6679 353.246 17.7839 353.246 19.2239C353.246 21.0959 353.93 22.6439 355.298 23.8679C353.174 24.6599 351.338 25.0559 349.79 25.0559C348.026 25.0559 346.658 24.6419 345.686 23.8139C344.714 22.9859 344.228 21.9599 344.228 20.7359C344.228 18.4679 345.344 16.7039 347.576 15.4439C349.808 14.1479 352.526 13.4999 355.73 13.4999C358.466 13.4999 361.094 14.0039 363.614 15.0119C366.17 15.9839 368.258 17.4599 369.878 19.4399C371.498 21.4199 372.308 23.8499 372.308 26.7299V36.4499C372.308 38.2139 372.524 39.6359 372.956 40.7159C373.424 41.7959 374.234 42.3899 375.386 42.4979V43.2539H365.072C363.524 43.2539 362.264 42.8759 361.292 42.1199C360.356 41.3279 359.762 40.2659 359.51 38.9339C358.718 40.6619 357.548 41.9579 356 42.8219C354.488 43.6859 352.814 44.1179 350.978 44.1179ZM359.348 27.4319C357.188 27.6119 355.478 28.4759 354.218 30.0239C352.958 31.5359 352.328 33.2819 352.328 35.2619C352.328 36.5939 352.652 37.6379 353.3 38.3939C353.984 39.1499 354.776 39.5279 355.676 39.5279C356.396 39.5279 357.08 39.2939 357.728 38.8259C358.376 38.3579 358.916 37.6919 359.348 36.8279V27.4319ZM409.122 13.3379C407.502 12.6179 406.224 12.2579 405.288 12.2579C404.82 12.2579 404.424 12.3299 404.1 12.4739L402.966 12.2039C403.11 11.7359 403.506 11.0699 404.154 10.2059C404.838 9.3419 405.684 8.5859 406.692 7.9379C407.7 7.2539 408.798 6.9119 409.986 6.9119C410.238 6.9119 410.58 6.9479 411.012 7.01991C412.164 7.23591 413.028 7.66791 413.604 8.31591C414.18 8.96391 414.468 9.70191 414.468 10.5299C414.468 11.4299 414.162 12.2039 413.55 12.8519C412.938 13.4999 412.146 13.8239 411.174 13.8239C410.562 13.8239 409.878 13.6619 409.122 13.3379ZM394.812 60.5339C392.58 60.5339 390.276 60.2819 387.9 59.7779C385.56 59.2739 383.58 58.4999 381.96 57.4559C380.376 56.4119 379.584 55.1519 379.584 53.6759C379.584 52.4879 380.214 51.5339 381.474 50.8139C382.77 50.0939 384.228 49.7339 385.848 49.7339C386.82 49.7339 387.702 49.8779 388.494 50.1659C389.322 50.4899 389.952 50.9579 390.384 51.5699C389.556 52.0739 389.142 52.8659 389.142 53.9459C389.142 54.8099 389.43 55.6739 390.006 56.5379C390.618 57.4019 391.482 58.1219 392.598 58.6979C393.75 59.2739 395.1 59.5619 396.648 59.5619C399.312 59.5619 401.634 59.1119 403.614 58.2119C405.63 57.3119 406.638 56.0879 406.638 54.5399C406.638 53.2799 405.63 52.2899 403.614 51.5699C401.634 50.8859 398.61 50.1659 394.542 49.4099C391.266 48.7619 388.656 48.1859 386.712 47.6819C384.768 47.1779 383.094 46.4759 381.69 45.5759C380.322 44.7119 379.638 43.6319 379.638 42.3359C379.638 40.9319 380.052 39.6179 380.88 38.3939C381.744 37.1699 382.968 35.8919 384.552 34.5599C382.392 33.5519 380.682 32.2739 379.422 30.7259C378.162 29.1779 377.532 27.3419 377.532 25.2179C377.532 22.3379 378.486 20.0339 380.394 18.3059C382.338 16.5419 384.696 15.2999 387.468 14.5799C390.24 13.8599 393.03 13.4999 395.838 13.4999C398.502 13.4999 401.22 13.8599 403.992 14.5799C406.8 15.2999 409.194 16.5419 411.174 18.3059C413.19 20.0339 414.198 22.3379 414.198 25.2179C414.198 27.8819 413.19 30.0959 411.174 31.8599C409.194 33.5879 406.782 34.8659 403.938 35.6939C401.094 36.4859 398.394 36.8819 395.838 36.8819C394.182 36.8819 392.418 36.7199 390.546 36.3959C388.71 36.0719 387 35.5859 385.416 34.9379L385.146 35.3159C384.894 35.7119 384.768 36.0899 384.768 36.4499C384.768 37.3859 385.614 38.0879 387.306 38.5559C388.998 38.9879 391.68 39.4199 395.352 39.8519C399.24 40.3199 402.462 40.8239 405.018 41.3639C407.574 41.9039 409.77 42.7679 411.606 43.9559C413.442 45.1799 414.36 46.8359 414.36 48.9239C414.36 50.9759 413.55 52.8839 411.93 54.6479C410.346 56.4119 408.06 57.8339 405.072 58.9139C402.12 59.9939 398.7 60.5339 394.812 60.5339ZM395.892 35.9639C397.224 35.9639 398.268 34.8839 399.024 32.7239C399.78 30.5639 400.158 28.0079 400.158 25.0559C400.158 22.1759 399.78 19.6919 399.024 17.6039C398.304 15.5159 397.26 14.4719 395.892 14.4719C394.272 14.4719 392.994 15.5339 392.058 17.6579C391.158 19.7819 390.708 22.3019 390.708 25.2179C390.708 28.1339 391.158 30.6539 392.058 32.7779C392.994 34.9019 394.272 35.9639 395.892 35.9639ZM434.305 44.0099C431.425 44.0099 428.689 43.4879 426.097 42.4439C423.505 41.3999 421.381 39.7619 419.725 37.5299C418.069 35.2619 417.241 32.4179 417.241 28.9979C417.241 26.3699 417.853 23.8679 419.077 21.4919C420.301 19.1159 422.173 17.1899 424.693 15.7139C427.249 14.2019 430.381 13.4459 434.089 13.4459C437.689 13.4459 440.803 14.1119 443.431 15.4439C446.059 16.7759 447.373 18.8999 447.373 21.8159C447.373 24.5879 446.257 26.7659 444.025 28.3499C441.793 29.8979 439.021 30.6719 435.709 30.6719C434.125 30.6719 432.361 30.4379 430.417 29.9699C430.885 31.9859 431.659 33.7319 432.739 35.2079C433.819 36.6479 435.043 37.7459 436.411 38.5019C437.779 39.2219 439.147 39.5819 440.515 39.5819C442.099 39.5819 443.431 39.0599 444.511 38.0159C445.591 36.9719 446.275 35.4419 446.563 33.4259H447.643C447.499 35.5859 446.815 37.4759 445.591 39.0959C444.367 40.6799 442.765 41.9039 440.785 42.7679C438.805 43.5959 436.645 44.0099 434.305 44.0099ZM430.201 28.9439C430.705 29.0159 431.083 29.0519 431.335 29.0519C433.351 29.0519 434.971 28.0799 436.195 26.1359C437.455 24.1919 438.085 21.7259 438.085 18.7379C438.085 17.4419 437.887 16.3799 437.491 15.5519C437.131 14.7239 436.573 14.3099 435.817 14.3099C433.981 14.3099 432.541 15.4079 431.497 17.6039C430.453 19.7639 429.931 22.4099 429.931 25.5419C429.931 26.6579 430.021 27.7919 430.201 28.9439ZM449.778 42.4979C451.002 41.8139 451.812 40.9499 452.208 39.9059C452.64 38.8619 452.856 37.7099 452.856 36.4499V23.4359C452.856 20.9159 452.784 19.0979 452.64 17.9819C452.496 16.8659 452.208 16.0739 451.776 15.6059C451.38 15.1379 450.714 14.8319 449.778 14.6879V13.9319H465.816V18.1979C467.076 16.6499 468.588 15.4799 470.352 14.6879C472.152 13.8959 473.988 13.4999 475.86 13.4999C477.948 13.4999 479.856 13.9679 481.584 14.9039C483.312 15.8039 484.572 17.0639 485.364 18.6839C486.804 17.0279 488.496 15.7679 490.44 14.9039C492.42 14.0399 494.4 13.6079 496.38 13.6079C498.144 13.6079 499.764 13.9499 501.24 14.6339C502.752 15.3179 503.94 16.3259 504.804 17.6579C505.704 18.9539 506.154 20.5379 506.154 22.4099V36.4499C506.154 37.7459 506.352 38.9159 506.748 39.9599C507.18 40.9679 508.008 41.8139 509.232 42.4979V43.2539H490.116V42.4979C491.34 41.8139 492.15 40.9499 492.546 39.9059C492.978 38.8619 493.194 37.7099 493.194 36.4499V23.1659C493.194 21.5099 492.834 20.2139 492.114 19.2779C491.394 18.3419 490.494 17.8739 489.414 17.8739C488.154 17.8739 486.948 18.5039 485.796 19.7639C486.048 20.5199 486.174 21.4019 486.174 22.4099V36.4499C486.174 37.7459 486.372 38.9159 486.768 39.9599C487.2 40.9679 488.028 41.8139 489.252 42.4979V43.2539H470.136V42.4979C471.36 41.8139 472.17 40.9499 472.566 39.9059C472.998 38.8619 473.214 37.7099 473.214 36.4499V23.1659C473.214 21.5099 472.836 20.2139 472.08 19.2779C471.36 18.3419 470.46 17.8739 469.38 17.8739C468.156 17.8739 466.968 18.4679 465.816 19.6559V36.4499C465.816 37.7459 466.014 38.9159 466.41 39.9599C466.842 40.9679 467.67 41.8139 468.894 42.4979V43.2539H449.778V42.4979Z" fill="#435F17"/>
</svg>
