<svg width="193" height="39" viewBox="0 0 193 39" fill="none" xmlns="http://www.w3.org/2000/svg">
<path d="M15 38.68C12.2 38.68 9.67995 38.2933 7.43995 37.52C5.22662 36.7466 3.47995 35.5733 2.19995 34C0.919951 32.4533 0.279951 30.5333 0.279951 28.24C0.279951 26.9866 0.559951 25.84 1.11995 24.8C1.67995 23.76 2.49328 22.9333 3.55995 22.32C4.62662 21.7066 5.87995 21.4 7.31995 21.4C8.59995 21.4 9.67995 21.64 10.56 22.12C11.4666 22.5733 12.1466 23.1733 12.6 23.92C13.0533 24.64 13.28 25.4133 13.28 26.24C13.28 27.3333 12.8933 28.28 12.12 29.08C11.3466 29.88 10.2933 30.28 8.95995 30.28C8.15995 30.28 7.51995 30.0266 7.03995 29.52C6.55995 29.04 6.30662 28.5733 6.27995 28.12C6.89328 28.0933 7.35995 27.8933 7.67995 27.52C8.02662 27.12 8.19995 26.6533 8.19995 26.12C8.19995 25.56 7.98662 25.0666 7.55995 24.64C7.15995 24.1866 6.59995 23.96 5.87995 23.96C4.59995 23.96 3.58662 24.4533 2.83995 25.44C2.09328 26.4266 1.71995 27.6133 1.71995 29C1.71995 30.2533 2.06662 31.4133 2.75995 32.48C3.45328 33.5733 4.49328 34.4533 5.87995 35.12C7.29329 35.8133 9.02662 36.16 11.08 36.16C15.96 36.16 20.3733 35.28 24.32 33.52C28.2933 31.76 31.4266 29.2266 33.72 25.92C36.0133 22.5866 37.16 18.6533 37.16 14.12C37.16 9.85329 36.6133 6.53329 35.52 4.15995C34.4533 1.75995 32.8933 0.559955 30.84 0.559955C30.2266 0.559955 29.6933 0.813288 29.24 1.31995C28.7866 1.82662 28.44 2.42662 28.2 3.11996C27.9866 3.81329 27.88 4.45329 27.88 5.03995V23.04C27.88 24 27.9333 24.7333 28.04 25.24C28.1466 25.7466 28.3733 26.1733 28.72 26.52C29.0933 26.8666 29.6666 27.2 30.44 27.52V28.08H16V27.52C16.9066 27.0133 17.5066 26.3733 17.8 25.6C18.12 24.8266 18.28 23.9733 18.28 23.04V5.03995C18.28 3.65329 17.9733 2.62662 17.36 1.95995C16.7733 1.26662 15.9866 0.919955 15 0.919955C13.32 0.919955 11.8933 1.39996 10.72 2.35996C9.57328 3.31995 8.70662 4.54662 8.11995 6.03996C7.55995 7.50662 7.27995 9.02662 7.27995 10.6C7.27995 12.3333 7.61328 13.8 8.27995 15C8.94662 16.1733 9.85328 16.76 11 16.76C11.6133 16.76 12.0933 16.6 12.44 16.28C12.8133 15.9333 13 15.52 13 15.04C13 14.6133 12.8666 14.2133 12.6 13.84C12.36 13.44 11.96 13.2 11.4 13.12C11.4 12.6666 11.64 12.2266 12.12 11.8C12.6266 11.3733 13.2 11.16 13.84 11.16C14.72 11.16 15.4 11.3866 15.88 11.84C16.36 12.2933 16.6 12.8666 16.6 13.56C16.6 14.92 16.0533 15.96 14.96 16.68C13.8666 17.4 12.48 17.76 10.8 17.76C9.14662 17.76 7.47995 17.4133 5.79995 16.72C4.11995 16 2.73328 14.9733 1.63995 13.64C0.546618 12.28 -4.87715e-05 10.68 -4.87715e-05 8.83995C-4.87715e-05 6.91995 0.666618 5.29329 1.99995 3.95995C3.33328 2.62662 5.03995 1.63995 7.11995 0.999954C9.19995 0.333288 11.3333 -4.48227e-05 13.52 -4.48227e-05H32.92C36.2 -4.48227e-05 38.9333 0.586621 41.12 1.75995C43.3066 2.93329 44.92 4.49329 45.96 6.43996C47.0266 8.35996 47.56 10.4666 47.56 12.76C47.56 17.9333 45.8666 22.4933 42.48 26.44C39.12 30.36 34.9066 33.3733 29.84 35.48C24.8 37.6133 19.8533 38.68 15 38.68ZM63.4818 28.72C61.4818 28.72 59.4418 28.3333 57.3618 27.56C55.2818 26.7866 53.5218 25.56 52.0818 23.88C50.6418 22.1733 49.9218 20.0133 49.9218 17.4C49.9218 14.6 50.6285 12.36 52.0418 10.68C53.4818 8.97329 55.2285 7.77329 57.2818 7.07995C59.3352 6.38662 61.4018 6.03996 63.4818 6.03996C65.4552 6.03996 67.4685 6.38662 69.5218 7.07995C71.6018 7.77329 73.3752 8.97329 74.8418 10.68C76.3352 12.36 77.0818 14.6 77.0818 17.4C77.0818 19.9866 76.3352 22.1333 74.8418 23.84C73.3752 25.5466 71.5885 26.7866 69.4818 27.56C67.3752 28.3333 65.3752 28.72 63.4818 28.72ZM63.5218 27.92C64.5085 27.92 65.2818 26.8666 65.8418 24.76C66.4018 22.6266 66.6818 20.12 66.6818 17.24C66.6818 14.4133 66.4018 11.9733 65.8418 9.91996C65.3085 7.86662 64.5352 6.83996 63.5218 6.83996C62.3218 6.83996 61.3752 7.87996 60.6818 9.95996C60.0152 12.04 59.6818 14.5066 59.6818 17.36C59.6818 20.2133 60.0152 22.6933 60.6818 24.8C61.3752 26.88 62.3218 27.92 63.5218 27.92ZM86.1118 28.72C84.8585 28.72 83.6585 28.4666 82.5118 27.96C81.3652 27.4266 80.4318 26.6666 79.7118 25.68C79.0185 24.6933 78.6718 23.56 78.6718 22.28C78.6718 21.0266 79.1118 19.88 79.9918 18.84C80.8985 17.7733 82.2452 16.92 84.0318 16.28C85.8452 15.6133 88.0585 15.28 90.6718 15.28C91.3918 15.28 91.9385 15.2933 92.3118 15.32V10.32C92.3118 9.22662 92.0852 8.38662 91.6318 7.79995C91.2052 7.18662 90.6852 6.87995 90.0718 6.87995C89.4585 6.87995 88.9252 7.18662 88.4718 7.79995C88.0185 8.38662 87.7918 9.21329 87.7918 10.28C87.7918 11.6666 88.2985 12.8133 89.3118 13.72C87.7385 14.3066 86.3785 14.6 85.2318 14.6C83.9252 14.6 82.9118 14.2933 82.1918 13.68C81.4718 13.0666 81.1118 12.3066 81.1118 11.4C81.1118 9.71996 81.9385 8.41329 83.5918 7.47995C85.2452 6.51996 87.2585 6.03996 89.6318 6.03996C91.6585 6.03996 93.6052 6.41329 95.4718 7.15996C97.3652 7.87996 98.9118 8.97329 100.112 10.44C101.312 11.9066 101.912 13.7066 101.912 15.84V23.04C101.912 24.3466 102.072 25.4 102.392 26.2C102.738 27 103.338 27.44 104.192 27.52V28.08H96.5518C95.4052 28.08 94.4718 27.8 93.7518 27.24C93.0585 26.6533 92.6185 25.8666 92.4318 24.88C91.8452 26.16 90.9785 27.12 89.8318 27.76C88.7118 28.4 87.4718 28.72 86.1118 28.72ZM92.3118 16.36C90.7118 16.4933 89.4452 17.1333 88.5118 18.28C87.5785 19.4 87.1118 20.6933 87.1118 22.16C87.1118 23.1466 87.3518 23.92 87.8318 24.48C88.3385 25.04 88.9252 25.32 89.5918 25.32C90.1252 25.32 90.6318 25.1466 91.1118 24.8C91.5918 24.4533 91.9918 23.96 92.3118 23.32V16.36ZM105.781 27.52C106.688 27.0133 107.288 26.3733 107.581 25.6C107.901 24.8266 108.061 23.9733 108.061 23.04V13.4C108.061 11.5333 108.008 10.1866 107.901 9.35996C107.795 8.53329 107.581 7.94662 107.261 7.59996C106.968 7.25329 106.475 7.02662 105.781 6.91995V6.35995H117.661V9.51996C118.595 8.37329 119.715 7.50662 121.021 6.91995C122.355 6.33329 123.715 6.03996 125.101 6.03996C126.461 6.03996 127.715 6.30662 128.861 6.83996C130.035 7.34662 130.968 8.10662 131.661 9.11995C132.381 10.1066 132.741 11.28 132.741 12.64V23.04C132.741 24 132.888 24.8666 133.181 25.64C133.501 26.3866 134.115 27.0133 135.021 27.52V28.08H120.861V27.52C121.768 27.0133 122.368 26.3733 122.661 25.6C122.981 24.8266 123.141 23.9733 123.141 23.04V13.2C123.141 11.92 122.875 10.9466 122.341 10.28C121.808 9.58662 121.141 9.23996 120.341 9.23996C119.381 9.23996 118.488 9.67996 117.661 10.56V23.04C117.661 24 117.808 24.8666 118.101 25.64C118.421 26.3866 119.035 27.0133 119.941 27.52V28.08H105.781V27.52ZM146.361 28.2C144.281 28.2 142.507 27.6933 141.041 26.68C139.574 25.64 138.467 24.2933 137.721 22.64C137.001 20.96 136.641 19.16 136.641 17.24C136.641 15.3466 137.001 13.56 137.721 11.88C138.467 10.2 139.561 8.83996 141.001 7.79995C142.441 6.75996 144.161 6.23996 146.161 6.23996C148.001 6.23996 149.894 6.90662 151.841 8.23996V7.03996C151.841 5.17329 151.787 3.82662 151.681 2.99995C151.574 2.17329 151.361 1.58662 151.041 1.23996C150.747 0.893289 150.254 0.666622 149.561 0.559955V-4.48227e-05H161.441V23.04C161.441 24.3466 161.601 25.4 161.921 26.2C162.267 27 162.867 27.44 163.721 27.52V28.08H156.081C155.094 28.08 154.267 27.88 153.601 27.48C152.961 27.0533 152.494 26.48 152.201 25.76L148.201 28.08C147.561 28.16 146.947 28.2 146.361 28.2ZM152.081 25.4C151.921 24.92 151.841 24.3866 151.841 23.8V9.11995C150.027 9.01329 148.641 9.78662 147.681 11.44C146.747 13.0933 146.281 15.1466 146.281 17.6C146.281 19.8133 146.654 21.7466 147.401 23.4C148.174 25.0266 149.201 25.84 150.481 25.84C150.961 25.84 151.494 25.6933 152.081 25.4ZM178.872 28.72C176.872 28.72 174.832 28.3333 172.752 27.56C170.672 26.7866 168.912 25.56 167.472 23.88C166.032 22.1733 165.312 20.0133 165.312 17.4C165.312 14.6 166.019 12.36 167.432 10.68C168.872 8.97329 170.619 7.77329 172.672 7.07995C174.726 6.38662 176.792 6.03996 178.872 6.03996C180.846 6.03996 182.859 6.38662 184.912 7.07995C186.992 7.77329 188.766 8.97329 190.232 10.68C191.726 12.36 192.472 14.6 192.472 17.4C192.472 19.9866 191.726 22.1333 190.232 23.84C188.766 25.5466 186.979 26.7866 184.872 27.56C182.766 28.3333 180.766 28.72 178.872 28.72ZM178.912 27.92C179.899 27.92 180.672 26.8666 181.232 24.76C181.792 22.6266 182.072 20.12 182.072 17.24C182.072 14.4133 181.792 11.9733 181.232 9.91996C180.699 7.86662 179.926 6.83996 178.912 6.83996C177.712 6.83996 176.766 7.87996 176.072 9.95996C175.406 12.04 175.072 14.5066 175.072 17.36C175.072 20.2133 175.406 22.6933 176.072 24.8C176.766 26.88 177.712 27.92 178.912 27.92Z" fill="#435F17"/>
</svg>
