<svg width="173" height="59" viewBox="0 0 173 59" fill="none" xmlns="http://www.w3.org/2000/svg">
<path d="M59.8859 58.86C56.8259 58.86 53.9819 58.338 51.3539 57.294C48.7619 56.25 46.4759 54.972 44.4959 53.46C42.5519 51.984 40.2299 50.04 37.5299 47.628C35.2979 45.612 33.4619 44.046 32.0219 42.93C30.5819 41.814 29.0159 40.878 27.3239 40.122C25.6679 39.366 23.9219 38.988 22.0859 38.988C20.8979 38.988 19.9439 39.384 19.2239 40.176C18.5039 41.004 18.1439 41.958 18.1439 43.038C18.1439 43.758 18.3239 44.406 18.6839 44.982C19.0799 45.594 19.6559 46.062 20.4119 46.386C19.9439 47.466 18.9719 48.006 17.4959 48.006C16.3079 48.006 15.2099 47.646 14.2019 46.926C13.2299 46.206 12.7439 45.288 12.7439 44.172C12.7439 42.228 13.6979 40.644 15.6059 39.42C17.5139 38.232 19.9799 37.602 23.0039 37.53C23.3639 37.206 23.6519 36.864 23.8679 36.504C24.7319 35.136 25.1639 33.336 25.1639 31.104V7.23596C25.1639 5.18396 24.7319 3.63596 23.8679 2.59196C23.0039 1.51196 21.8699 0.971958 20.4659 0.971958C18.9179 0.971958 17.3159 1.60196 15.6599 2.86196C14.0039 4.12196 12.6179 5.92196 11.5019 8.26196C10.4219 10.566 9.88192 13.212 9.88192 16.2C9.88192 18.18 10.1339 19.854 10.6379 21.222C11.1419 22.554 11.7539 23.544 12.4739 24.192C13.1939 24.84 13.9139 25.164 14.6339 25.164C15.1739 25.164 15.6059 24.984 15.9299 24.624C16.2899 24.264 16.4699 23.76 16.4699 23.112C16.4699 22.464 16.2719 21.852 15.8759 21.276C15.5159 20.664 14.9039 20.304 14.0399 20.196C14.0399 19.512 14.4179 18.846 15.1739 18.198C15.9299 17.514 16.7939 17.172 17.7659 17.172C19.0979 17.172 20.1419 17.532 20.8979 18.252C21.6539 18.936 22.0319 19.8 22.0319 20.844C22.0319 21.708 21.7439 22.554 21.1679 23.382C20.6279 24.21 19.7999 24.894 18.6839 25.434C17.5679 25.938 16.2179 26.19 14.6339 26.19C11.5739 26.19 8.92792 25.614 6.69592 24.462C4.49992 23.274 2.82592 21.726 1.67392 19.818C0.557922 17.874 -7.80486e-05 15.804 -7.80486e-05 13.608C-7.80486e-05 11.196 0.683922 8.96396 2.05192 6.91196C3.45592 4.85996 5.66992 3.20396 8.69392 1.94396C11.7179 0.647958 15.5519 -4.22001e-05 20.1959 -4.22001e-05H52.7039L53.2439 8.36996H52.1099C51.5339 6.82196 50.9939 5.63396 50.4899 4.80596C49.7339 3.58196 48.9779 2.75396 48.2219 2.32196C47.4659 1.85396 46.5659 1.61996 45.5219 1.61996H41.2559C40.0679 1.61996 39.2579 2.14196 38.8259 3.18596C38.3939 4.22996 38.1779 5.43596 38.1779 6.80396V16.74H41.9579C43.3259 16.74 44.3519 16.686 45.0359 16.578C45.7559 16.47 46.2959 16.254 46.6559 15.93C47.0519 15.57 47.3219 15.03 47.4659 14.31C47.6099 13.698 47.6999 13.122 47.7359 12.582H48.5459V23.058H47.7359C47.6999 22.518 47.6099 21.906 47.4659 21.222C47.2859 20.502 46.9979 19.98 46.6019 19.656C46.2419 19.332 45.7199 19.134 45.0359 19.062C44.3879 18.954 43.3619 18.9 41.9579 18.9H38.1779V31.104C38.1779 32.472 38.3939 33.678 38.8259 34.722C39.2579 35.766 40.0679 36.288 41.2559 36.288H47.6819C48.7619 36.288 49.6799 36.072 50.4359 35.64C51.2279 35.172 51.9839 34.344 52.7039 33.156C53.2799 32.004 53.8019 30.798 54.2699 29.538H55.4039L54.8639 37.908H38.1239C39.7799 38.376 41.2919 39.096 42.6599 40.068C43.7759 40.86 45.0359 41.85 46.4399 43.038C47.8799 44.226 48.7979 44.982 49.1939 45.306C51.7139 47.466 53.8379 49.212 55.5659 50.544C57.3299 51.912 59.1479 53.064 61.0199 54C62.9279 54.936 64.7279 55.404 66.4199 55.404C68.6159 55.404 70.4699 55.08 71.9819 54.432C73.4939 53.784 74.6099 52.938 75.3299 51.894C76.0499 50.85 76.4099 49.734 76.4099 48.546C76.4099 47.25 75.9959 46.134 75.1679 45.198C74.3759 44.298 73.3139 43.848 71.9819 43.848C71.2259 43.848 70.6319 44.046 70.1999 44.442C69.7679 44.874 69.5519 45.36 69.5519 45.9C69.5519 46.404 69.7139 46.836 70.0379 47.196C70.3979 47.556 70.9019 47.754 71.5499 47.79C71.5139 48.222 71.2439 48.672 70.7399 49.14C70.2359 49.608 69.5699 49.842 68.7419 49.842C67.3739 49.842 66.3299 49.428 65.6099 48.6C64.9259 47.808 64.5839 46.908 64.5839 45.9C64.5839 44.676 65.1059 43.614 66.1499 42.714C67.2299 41.85 68.6519 41.418 70.4159 41.418C72.7559 41.418 74.5919 42.03 75.9239 43.254C77.2559 44.514 77.9219 46.044 77.9219 47.844C77.9219 49.644 77.2739 51.372 75.9779 53.028C74.6819 54.72 72.6659 56.106 69.9299 57.186C67.2299 58.302 63.8819 58.86 59.8859 58.86ZM58.5591 37.152C60.4311 36.972 61.9971 36.486 63.2571 35.694C64.5171 34.902 66.0111 33.372 67.7391 31.104L71.3571 26.406L63.0951 13.23C62.0511 11.79 61.1511 10.8 60.3951 10.26C59.6751 9.71996 58.7571 9.44996 57.6411 9.44996L57.5331 8.58596H77.4051V9.44996C76.0731 9.44996 75.4071 9.97196 75.4071 11.016C75.4071 11.556 75.6051 12.186 76.0011 12.906L79.6731 18.792L82.2651 15.39C83.9931 13.122 84.8571 11.538 84.8571 10.638C84.8571 9.95396 84.3711 9.52196 83.3991 9.34196V8.58596H93.0651V9.34196C91.1931 9.52196 89.6271 10.008 88.3671 10.8C87.1071 11.592 85.6131 13.122 83.8851 15.39L80.4291 19.926L88.7451 33.21C89.7891 34.686 90.6711 35.694 91.3911 36.234C92.1471 36.774 93.0831 37.044 94.1991 37.044V37.908H74.4351V37.044C75.7671 37.044 76.4331 36.522 76.4331 35.478C76.4331 34.902 76.2351 34.254 75.8391 33.534L72.1131 27.54L69.3591 31.104C67.6311 33.336 66.7671 34.92 66.7671 35.856C66.7671 36.54 67.2531 36.972 68.2251 37.152V37.908H58.5591V37.152ZM96.4511 45.738C97.6751 45.054 98.4851 44.19 98.8811 43.146C99.3131 42.102 99.5291 40.95 99.5291 39.69V18.09C99.5291 15.57 99.4571 13.752 99.3131 12.636C99.1691 11.52 98.8811 10.728 98.4491 10.26C98.0531 9.79196 97.3871 9.48596 96.4511 9.34196V8.58596H112.489V10.422L118.321 8.58596C121.417 8.58596 124.045 9.26996 126.205 10.638C128.365 12.006 129.967 13.824 131.011 16.092C132.091 18.324 132.631 20.718 132.631 23.274C132.631 25.902 132.073 28.404 130.957 30.78C129.841 33.156 128.203 35.082 126.043 36.558C123.919 37.998 121.381 38.718 118.429 38.718C116.197 38.718 114.217 37.98 112.489 36.504V39.69C112.489 40.986 112.687 42.138 113.083 43.146C113.515 44.19 114.343 45.054 115.567 45.738V46.494H96.4511V45.738ZM113.515 35.964C115.603 35.64 117.205 34.362 118.321 32.13C119.437 29.862 119.995 27.216 119.995 24.192C119.995 20.88 119.329 17.946 117.997 15.39C116.701 12.798 114.865 11.304 112.489 10.908V35.856C113.065 35.964 113.407 36 113.515 35.964ZM154.15 38.772C151.45 38.772 148.696 38.25 145.888 37.206C143.08 36.162 140.704 34.506 138.76 32.238C136.816 29.934 135.844 27.018 135.844 23.49C135.844 19.71 136.798 16.686 138.706 14.418C140.65 12.114 143.008 10.494 145.78 9.55796C148.552 8.62196 151.342 8.15396 154.15 8.15396C156.814 8.15396 159.532 8.62196 162.304 9.55796C165.112 10.494 167.506 12.114 169.486 14.418C171.502 16.686 172.51 19.71 172.51 23.49C172.51 26.982 171.502 29.88 169.486 32.184C167.506 34.488 165.094 36.162 162.25 37.206C159.406 38.25 156.706 38.772 154.15 38.772ZM154.204 37.692C155.536 37.692 156.58 36.27 157.336 33.426C158.092 30.546 158.47 27.162 158.47 23.274C158.47 19.458 158.092 16.164 157.336 13.392C156.616 10.62 155.572 9.23396 154.204 9.23396C152.584 9.23396 151.306 10.638 150.37 13.446C149.47 16.254 149.02 19.584 149.02 23.436C149.02 27.288 149.47 30.636 150.37 33.48C151.306 36.288 152.584 37.692 154.204 37.692Z" fill="#435F17"/>
</svg>
