<svg width="1440" height="410" viewBox="0 0 1440 410" fill="none" xmlns="http://www.w3.org/2000/svg">
<mask id="mask0_19_3" style="mask-type:alpha" maskUnits="userSpaceOnUse" x="768" y="0" width="672" height="397">
<path d="M768.04 0H1440V396.965H768.04V0Z" fill="white"/>
</mask>
<g mask="url(#mask0_19_3)">
<path fill-rule="evenodd" clip-rule="evenodd" d="M1463.76 -5.20212C1458.28 -4.89885 1454.34 -2.19139 1450.32 1.58512C1445.01 6.5761 1439.29 10.9916 1434.07 16.1095C1422.92 27.0377 1411.95 38.5085 1402.42 51.075C1397.84 57.1044 1393.53 63.3917 1389.76 70.0272C1385.95 76.7385 1383.09 83.9782 1378.92 90.4745C1370.89 103.021 1360.01 113.203 1349.72 123.566C1344.37 128.944 1339.79 135.156 1334.22 140.276C1328.57 145.469 1322.08 149.477 1316.42 154.696C1311.17 159.541 1303.91 160.149 1298.31 164.514C1292.95 168.688 1287.43 172.458 1282.89 177.66C1280.48 180.414 1278.07 182.659 1274.9 184.39C1271.66 186.165 1268.42 187.722 1265.64 190.314C1262.97 192.807 1260.86 195.887 1258.25 198.445C1255.01 201.617 1251.39 204.351 1247.71 206.913C1241.78 211.046 1235.57 215.333 1228.73 217.489C1225.13 218.622 1221.43 219.558 1217.73 220.203C1213.26 220.983 1208.75 220.735 1204.27 221.305C1200.51 221.782 1196.8 222.603 1193.04 223.078C1189.14 223.572 1185.33 223.345 1181.42 223.318C1174.5 223.271 1168.98 227.26 1162.31 228.469C1154.54 229.878 1146.7 230.384 1138.92 231.901C1130.97 233.454 1122.86 232.735 1114.83 233.304C1107.18 233.847 1099.59 235.1 1092.05 236.579C1088.33 237.308 1084.58 237.988 1080.94 239.079C1077.14 240.218 1073.4 241.742 1069.45 242.223C1053.7 244.136 1037.54 240.384 1021.84 243.347C1014.65 244.705 1007.45 244.849 1000.25 246.264C996.875 246.927 993.4 246.825 990.079 247.792C986.774 248.754 983.652 250.464 980.794 252.453C975.299 256.274 970.785 262.588 963.913 263.295C957.016 264.004 950.031 263.26 943.106 264.016C928.001 265.664 912.23 269.705 898.103 275.63C891.817 278.268 885.688 281.506 879.533 284.492C872.895 287.713 867.166 292.501 860.757 296.151C847.156 303.895 831.729 308.189 817.582 314.702C810.762 317.839 804.129 321.362 797.785 325.487C791.795 329.38 786.409 334.315 780.326 338.004C777.717 339.589 775.012 340.994 772.65 342.995C769.546 345.625 766.917 348.807 763.768 351.388C757.805 356.276 751.367 360.534 744.77 364.374C738.152 368.224 731.318 371.63 724.408 374.841C717.329 378.132 709.878 382.826 702.215 384.176C699.508 384.651 696.73 384.911 694.339 386.474C691.851 388.096 690.495 391.514 687.792 392.708C685.463 393.736 686.476 397.84 688.848 396.796C691.121 395.794 692.477 394.263 694.126 392.352C696.91 389.126 700.011 388.919 703.841 388.184C710.699 386.865 717.477 382.671 723.83 379.732C737.896 373.223 751.726 366.137 764.141 356.436C769.726 352.074 774.219 346.569 780.311 342.962C786.378 339.37 791.716 334.688 797.579 330.74C810.749 321.874 825.172 315.908 839.685 310.063C846.676 307.247 853.805 304.572 860.573 301.175C867.137 297.88 872.807 292.919 879.295 289.47C892.815 282.286 906.818 276.427 921.552 272.796C929.316 270.881 937.165 268.997 945.131 268.394C951.832 267.887 958.71 268.825 965.359 267.919C971.649 267.065 975.563 262.545 980.467 258.755C983.439 256.457 986.63 254.325 990.144 253.112C993.625 251.91 997.336 252.066 1000.93 251.435C1008.35 250.128 1015.76 249.854 1023.17 248.478C1030.94 247.036 1039.03 247.695 1046.9 247.685C1054.68 247.673 1062.73 248.596 1070.47 247.542C1077.96 246.522 1085.25 243.462 1092.71 242C1100.75 240.425 1108.84 239.116 1117.03 238.698C1124.59 238.311 1132.12 238.756 1139.63 237.408C1143.54 236.706 1147.32 235.776 1151.29 235.405C1154.99 235.059 1158.71 234.84 1162.39 234.287C1169.49 233.22 1175.45 229.13 1182.73 229.433C1190.56 229.759 1197.92 228.176 1205.69 227.666C1209.53 227.412 1213.37 227.713 1217.21 227.277C1221.26 226.816 1225.28 226.007 1229.24 225.014C1236.02 223.316 1241.91 219.836 1247.81 215.994C1254.38 211.714 1260.96 206.997 1266.24 200.958C1268.81 198.015 1271.14 195.297 1274.51 193.38C1277.73 191.549 1281 190.126 1283.87 187.658C1286.32 185.549 1288.31 182.981 1290.54 180.625C1293.05 177.973 1296.18 176.392 1298.96 174.113C1301.76 171.817 1304.35 169.572 1307.66 168.157C1310.57 166.916 1313.6 166.044 1316.38 164.465C1319.41 162.744 1321.66 160.125 1324.25 157.78C1327.24 155.062 1330.57 152.818 1333.73 150.344C1339.88 145.533 1344.79 139.7 1349.95 133.761C1354.63 128.369 1359.8 123.478 1364.66 118.282C1374.63 107.645 1383.71 96.0307 1389.66 82.3009C1396.06 67.5123 1405.17 54.2945 1415.31 42.1867C1425.48 30.0441 1436.29 18.1842 1448.08 7.83766C1453.07 3.45699 1456.81 -1.97226 1463.76 -2.48016C1465.38 -2.59894 1465.41 -5.29002 1463.76 -5.20212Z" fill="#B5FF3F"/>
</g>
<mask id="mask1_19_3" style="mask-type:alpha" maskUnits="userSpaceOnUse" x="214" y="190" width="1184" height="211">
<path d="M214.063 190.421H1397.58V400.896H214.063V190.421Z" fill="white"/>
</mask>
<g mask="url(#mask1_19_3)">
<path fill-rule="evenodd" clip-rule="evenodd" d="M1383.81 396.485C1376.55 392.122 1370.05 386.679 1363.37 381.405C1353.19 373.361 1341.98 367.077 1331.55 359.457C1325.61 355.121 1319.91 350.411 1313.51 346.833C1307.43 343.439 1300.9 341.08 1294.49 338.563C1285.51 335.036 1277.21 331.286 1269.58 325.034C1261.87 318.708 1254.39 312.199 1245.14 308.586C1235.29 304.738 1224.72 303.487 1214.3 303.073C1209.76 302.893 1205.77 303.339 1201.39 303.901C1197.11 304.449 1192.59 301.894 1188.73 300.245C1186.15 299.143 1183.2 299.137 1180.72 297.638C1178.29 296.167 1176.87 294.33 1173.91 293.683C1166.01 291.942 1157.48 290.077 1149.35 290.335C1139.51 290.646 1129.87 288.514 1120.91 284.158C1117.15 282.327 1110.78 280.31 1108.35 276.683C1106.38 277.524 1104.53 279.693 1102.71 281.088C1099.38 283.634 1095.58 285.639 1091.63 286.855C1086.84 288.328 1081.75 289.524 1077.38 292.182C1074.5 293.937 1074.76 296.153 1072.87 298.627C1069.73 302.739 1062.36 304.39 1057.94 306.645C1044.63 313.434 1032.73 321.501 1020.41 330.037C1014.37 334.215 1006.48 340.472 998.938 341.127C993.85 341.569 991.501 338.796 987.172 336.527C981.986 333.812 976.044 331.708 970.618 329.482C964.282 326.881 958.147 323.695 951.782 321.227C943.688 318.089 935.831 315.197 928.117 311.042C921.661 307.567 916.416 302.623 909.598 299.755C904.506 297.613 900.609 295.092 896.815 290.898C887.683 280.801 876.029 282.608 864.177 278.798C858.849 277.086 853.715 273.871 848.166 273.377C846.223 273.205 844.967 273.721 843.197 274.176C839.434 275.145 835.699 274.551 831.788 275.003C824.4 275.855 818.554 281.815 811.384 282.692C805.338 283.431 799.457 280.711 793.855 278.722C786.031 275.947 778.598 271.993 770.709 269.496C766.072 268.026 761.583 266.873 757.104 264.905C750.219 261.88 744.271 261.374 736.992 261.269C731.414 261.192 726.751 257.495 721.86 255.001C717.087 252.565 712.274 250.014 707.629 247.321C698.529 242.043 690.908 233.918 681.681 228.708C678.012 226.638 674.734 227.039 670.925 228.651C665.397 230.988 660.282 234.404 655.979 238.787C654.714 240.075 652.925 243.458 651.452 244.203C647.201 246.348 641.186 237.76 638.083 235.737C634.326 233.286 631.774 229.419 628.262 226.912C626.425 225.601 624.382 225.81 622.172 225.018C617.856 223.467 614.538 219.41 610.806 216.721C599.789 208.781 588.795 199.119 576.822 192.893C562.537 185.467 549.187 196.714 535.628 201.216C531.183 202.693 527.372 205.492 523.133 207.579C517.213 210.493 510.891 211.96 504.363 211.571C497.823 211.179 491.418 208.972 484.842 209.191C480.81 209.326 477.27 210.725 473.518 212.146C471.162 213.039 468.791 213.844 466.351 214.438C458.294 216.396 451.832 219.113 444.77 223.986C423.89 238.387 404.621 255.83 380.342 263.25C371.791 265.865 361.77 267.925 355.451 275.175C350.813 280.5 348.002 285.2 346.702 292.2C344.924 301.777 339.448 306.512 335.017 314.36C330.945 321.575 322.75 330.217 318.33 336.515C312.849 344.324 307.45 352.27 302.162 360.225C295.972 369.535 292.293 380.199 285.352 388.768C279.066 396.53 272.559 404.373 264.659 410.337C259.066 414.558 252.824 416.872 246.674 419.916C239.157 423.637 231.83 427.874 224.939 432.798C222.409 434.606 217.914 439.525 214.063 439.708C224.676 440.195 235.016 444.643 245.315 447.353C255.212 449.958 265.442 451.32 274.992 455.281C281.927 458.156 288.213 460.341 295.718 459.985C315.55 459.045 335.468 460.923 355.342 461.044C364.948 461.103 374.099 462.934 383.591 463.968C393.339 465.031 403.127 463.528 412.861 462.989C427.371 462.188 441.896 463.221 456.397 462.467C466.633 461.935 476.114 458.965 486.069 456.858C498.044 454.32 510.403 453.646 522.53 452.229C532.149 451.105 541.547 450.152 551.242 450.369C570.067 450.795 588.908 455.563 607.561 458.209C619.425 459.893 631.311 461.592 643.259 462.422C669.542 464.245 694.512 459.735 720.488 456.395C740.673 453.8 761.207 454.052 781.48 453.173C802.337 452.266 822.451 449.128 843.153 446.405C861.853 443.945 880.003 443.265 898.787 442.395C919.613 441.432 940.188 438.684 960.941 436.744C979.471 435.012 995.996 435.009 1014.43 436.523C1031.82 437.948 1048.94 438.153 1066.36 438.108C1082.24 438.067 1098.17 438.548 1114.03 437.85C1130.36 437.133 1146.47 434.807 1162.74 433.361C1189.65 430.967 1216.54 432.921 1243.47 431.632C1267.37 430.49 1292.33 429.744 1315.73 424.368C1327.93 421.568 1339.95 418.167 1352.28 416.043C1360.28 414.667 1368.65 414.269 1376.41 411.718C1382.52 409.706 1389.08 407.859 1394.96 405.297C1396.23 404.742 1397.16 404.58 1397.58 403.171C1393.4 400.167 1388.2 399.124 1383.81 396.485Z" fill="#B5FF3F"/>
</g>
<mask id="mask2_19_3" style="mask-type:alpha" maskUnits="userSpaceOnUse" x="0" y="73" width="1030" height="329">
<path d="M0 73.0803H1029.6V401.92H0V73.0803Z" fill="white"/>
</mask>
<g mask="url(#mask2_19_3)">
<path fill-rule="evenodd" clip-rule="evenodd" d="M924.167 384.483C914.738 376.797 905.764 368.362 897.418 359.69C893.33 355.445 889.315 351.132 884.137 348.414C868.529 340.228 848.54 341.078 831.928 338.991C817.438 337.168 805.075 332.188 791.612 326.896C788.477 325.665 787.864 323.658 785.284 321.657C778.768 316.604 768.615 313.737 761.004 311.722C747.667 308.191 734.27 304.912 720.974 301.203C716.206 299.872 710.306 296.927 705.921 300.788C699.715 306.248 694.044 309.83 686.412 312.904C669.222 319.822 650.341 318.493 632.352 322.279C617.063 325.499 602.024 330.33 587 334.717C576.129 337.889 566.285 343.308 555.487 346.618C546.526 349.366 537.715 354.161 528.44 355.572C525.485 356.022 522.384 355.86 519.427 356.213C515.906 356.631 512.243 357.839 508.654 357.515C502.297 356.946 497.155 351.947 491.424 349.415C477.61 343.312 463.853 336.869 451.25 328.167C445.945 324.504 441.788 319.175 436.32 315.873C433.592 314.227 430.412 314.2 427.628 312.51C423.27 309.864 418.449 305.269 414.995 301.58C408.975 295.15 399.857 292.854 391.467 292.749C389.512 292.725 383.489 294.052 381.683 292.626C379.503 290.91 380.721 290.47 379.989 287.988C378.346 282.411 372.338 280.259 370.017 274.997C366.618 267.307 365.637 260.442 365.727 252.019C365.866 238.934 365.971 228.291 360.35 216.533C358.454 212.574 354.188 207.882 349.995 206.739C346.52 205.791 341.906 207.1 338.277 206.617C324.518 204.78 309.846 202.312 296.638 197.808C276.806 191.046 259.298 179.233 241.029 168.909C221.716 157.997 202.873 147.124 184.875 133.837C175.903 127.212 166.531 121.901 157.116 116.165C153.218 113.789 151.471 112.376 147.132 111.243C145.048 110.701 142.168 109.5 139.816 108.603C130.282 104.974 125.324 97.3927 119.09 89.1454C112.214 80.0482 102.146 73.4085 90.9351 73.1116C84.1671 72.9334 77.6756 73.5109 71.0343 74.9548C57.0317 77.9981 43.3748 82.5365 29.6468 86.7124C22.946 88.7501 15.8746 91.7033 8.8378 92.1662C5.34147 92.3976 2.22723 91.2098 -1.16349 90.5728C-6.05564 89.6533 -11.0227 90.1161 -15.9494 90.3619C-20.0832 90.5687 -25.1712 90.3086 -28.8115 92.7683C-30.9504 94.2162 -30.3724 94.5029 -29.4835 97.0507C-23.278 114.831 -21.552 133.99 -14.6668 151.47C-12.1536 157.85 -9.48093 163.99 -8.08893 170.795C-3.34653 193.995 -5.27037 219.462 -5.44125 243.059C-5.49117 249.899 -5.57565 256.737 -5.69085 263.576C-5.96157 279.597 -7.47645 297.245 -10.3718 312.986C-12.3225 323.584 -17.1724 333.001 -18.7334 343.738C-20.0198 352.576 -22.7136 360.96 -24.1555 369.723C-25.1981 376.064 -26.3577 383.132 -28.656 389.177C-30.1997 393.234 -33.0528 396.495 -34.6675 400.497C-37.4745 407.448 -37.6243 415.92 -38.5881 423.342C-39.0009 426.523 -38.8953 429.468 -38.8742 432.665C-38.8589 435.259 -39.6422 439.185 -38.7955 441.659C-34.1856 442.61 -28.8345 442.722 -24.1132 443.204C-3.7382 445.278 17.1936 445.018 37.6474 444.963C64.585 444.893 91.3575 444.729 118.27 443.734C137.086 443.038 156.031 444.383 174.785 442.563C193.286 440.766 211.693 437.293 230.218 435.909C249.291 434.483 269.401 435.87 288.422 438.135C298.823 439.374 308.377 442.655 318.513 445.002C328.059 447.214 338.456 448.143 348.182 449.231C361.58 450.726 375.577 447.568 388.869 449.763C395.649 450.884 401.589 454.128 408.566 454.214C414.04 454.281 419.53 454.169 425.007 454.15C436.585 454.107 447.679 456.833 459.153 457.159C467.495 457.394 475.298 462.096 483.696 461.523C488.926 461.167 493.29 457.953 498.307 456.694C506.853 454.547 516.549 455.461 525.258 455.739C534.937 456.049 544.6 456.813 554.233 457.855C575.255 460.13 596.686 458.443 617.797 458.754C643.423 459.131 668.485 464.196 694 465.719C703.765 466.303 713.547 466.475 723.326 466.418C732.486 466.364 742.176 465.009 751.273 466.156C757.471 466.938 761.902 468.646 768.206 466.745C776.773 464.161 784.969 460.276 793.383 457.2C802.024 454.04 810.687 454.912 819.423 452.592C830.264 449.712 839.136 442.305 849.577 438.905C858.855 435.884 867.145 433.275 876.839 432.335C895.834 430.49 914.431 425.316 933.441 423.264C955.586 420.876 977.822 419.725 999.959 417.176C1011.75 415.818 1023.68 414.646 1035.44 416.78C1032.3 421.579 1018.44 420.442 1013.39 420.442C997.674 420.446 981.575 415.543 966.737 410.315C958.339 407.355 950.369 403.157 942.843 398.225C936.461 394.045 930.221 389.419 924.167 384.483Z" fill="#435F17"/>
</g>
<mask id="mask3_19_3" style="mask-type:alpha" maskUnits="userSpaceOnUse" x="0" y="76" width="1440" height="326">
<path d="M0 76.8H1440V401.92H0V76.8Z" fill="white"/>
</mask>
<g mask="url(#mask3_19_3)">
<path fill-rule="evenodd" clip-rule="evenodd" d="M1497.6 448.512L1454.4 76.8C1446.46 87.6134 1442.78 99.242 1436.11 111.077C1431.19 119.796 1422.83 128.926 1421.36 139.258C1420.97 142.047 1421.88 144.843 1421.16 147.524C1420.24 150.966 1417.63 151.929 1415.4 154.429C1413.12 156.991 1411.73 160.334 1409.58 163.037C1407.16 166.095 1403.99 169.499 1400.77 171.686C1398.94 172.923 1397.35 173.312 1395.73 175.27C1391.56 180.294 1392.28 188.582 1390.06 194.691C1387.5 201.732 1383.93 207.852 1382.05 215.083C1379 226.748 1373.27 238.281 1368.01 248.977C1365.7 253.659 1361.17 256.406 1356.83 258.425C1354.81 259.365 1354 259.482 1351.45 259.566C1347.84 259.686 1344.56 261.057 1340.91 261.2C1337.03 261.351 1333.08 261.12 1329.19 261.12C1321.22 261.12 1312.3 262.298 1304.46 260.889C1292.98 258.822 1282.7 250.747 1272.27 245.68C1267.65 243.438 1262 242.297 1257.07 241.285C1253.93 240.642 1251.71 239.602 1248.48 239.622C1240.01 239.673 1232.27 243.831 1224.38 246.999C1217.71 249.676 1210.58 250.012 1203.83 252.672C1197.17 255.295 1190.56 256.616 1183.65 258.048C1174.63 259.914 1165.82 264.133 1156.57 264.227C1154.48 264.249 1150.75 263.15 1148.97 264.423C1145.85 266.664 1143.88 273.736 1142.58 276.99C1139.47 284.805 1135.98 292.872 1131.34 299.811C1129.06 303.227 1128.09 305.633 1124.63 307.616C1122.58 308.795 1120.27 309.547 1118.27 310.811C1111.94 314.81 1107.77 323.305 1102.36 328.509C1100.18 330.611 1098.12 333.455 1095.88 334.922C1095.72 335.026 1093.85 334.877 1093.27 335.149C1092.49 335.524 1091.76 336.734 1090.85 337.209C1088.8 338.291 1086.61 337.938 1084.38 337.92C1079.18 337.877 1073.78 338.545 1068.7 337.207C1065.3 336.314 1062.5 334.703 1059.36 333.277C1052.28 330.066 1043.21 331.76 1035.78 331.725C1019.53 331.645 1003.12 332.591 986.993 334.883C982.209 335.565 973.331 335.065 969.059 337.889C966.676 339.464 965.46 341.436 963.074 342.905C960.223 344.66 957.594 345.068 954.722 346.44C952.015 347.732 950.081 350.538 947.487 352.16C945.354 353.493 943.947 354.007 941.821 354.773C933.37 357.81 922.884 359.487 913.972 359.496C902.147 359.504 889.966 355.752 878.001 358.156C870.726 359.617 861.579 361.646 855.035 365.453C851.311 367.62 847.878 370.872 844.189 373.217C839.098 376.455 835.513 380.996 831.247 385.229C826.533 389.906 821.449 394.969 815.069 396.343C813.441 396.693 812.463 396.446 810.824 397.177C807.506 398.653 803.149 401.869 800.189 403.902C797.338 405.86 795.479 407.97 793.052 410.538C789.694 414.095 785.687 416.18 782.242 419.582C775.476 426.263 769.974 435.898 760.13 437.834C753.494 439.138 745.455 437.76 738.789 437.76C707.491 437.76 676.111 437.062 644.828 438.102C615.241 439.085 585.759 439.284 556.151 439.294C536.269 439.3 516.119 438.241 496.26 439.601C487.442 440.207 477.882 440.697 469.34 443.204C463.774 444.836 461.964 440.422 456.743 438.102C451.776 435.894 446.811 435.227 441.398 434.543C421.615 432.046 400.913 433.039 381.06 433.152C346.512 433.347 312.401 431.616 278.076 427.078C268.472 425.808 258.841 424.792 249.815 420.792C247.317 419.686 240.908 418.075 239.169 416.152C238.79 415.736 237.266 407.833 237.782 409.405C236.446 405.338 233.656 402.305 230.713 399.475C227.631 396.511 224.131 394.394 220.771 391.858C214.618 387.217 209.566 381.204 204.359 375.448C200.972 371.704 197.403 367.833 194.31 363.782C193.066 362.152 191.564 358.132 190.067 357.112C186.916 354.968 181.68 356.97 178.301 357.888C171.036 359.862 164.611 359.827 157.35 357.888C146.471 354.982 134.41 356.358 123.187 356.352C116.938 356.348 109.968 357.73 104.204 354.687C93.7977 349.198 83.8867 342.747 73.2653 337.584C59.7293 331.002 47.9117 323.875 32.7898 324.014C25.4534 324.082 19.7222 323.74 12.7814 320.821C2.6976 316.584 -5.86944 310.039 -15.4637 304.865C-21.2813 301.728 -29.351 298.877 -34.5354 294.529C-34.5734 299.5 -31.584 304.939 -29.7869 309.377C-24.7219 321.888 -21.8765 335.167 -19.0176 348.406C-11.6659 382.435 -8.06592 417.763 -8.6112 452.667C-8.68608 457.37 -10.9133 470.202 -4.59456 472.906C-1.04448 474.425 6.27648 471.161 9.00288 470.571C21.575 467.853 34.4621 466.842 47.1974 465.447C77.0054 462.182 107.47 458.293 137.443 457.32C163.86 456.462 190.164 457.533 216.551 458.764C269.988 461.257 322.81 462.785 376.333 460.646C414.205 459.135 452.033 456.966 489.934 456.194C576.002 454.441 661.787 462.533 747.752 465.211C813.855 467.272 880.049 467.128 946.172 466.858C973.989 466.745 1000.9 467.042 1027.6 476.217C1039.28 480.227 1050.23 486.302 1062.5 482.058C1072.58 478.573 1081.96 473.154 1092.11 469.821C1106.1 465.228 1120.31 462.664 1134.91 461.697C1158.5 460.132 1182.24 460.173 1205.86 459.233C1228.43 458.336 1250.96 457.824 1273.54 457.527C1317.53 456.948 1361.79 453.298 1405.57 459.209C1426.31 462.008 1448.81 466.954 1469.65 462.346C1477.43 460.628 1485.06 458.361 1492.79 456.413C1495.01 455.854 1501.25 455.58 1502.71 453.73C1505.84 449.741 1499.85 449.563 1497.6 448.512Z" fill="#FFFFFE"/>
</g>
<mask id="mask4_19_3" style="mask-type:alpha" maskUnits="userSpaceOnUse" x="1071" y="239" width="542" height="322">
<path d="M1071.43 239.248H1612.06V560.636H1071.43V239.248Z" fill="white"/>
</mask>
<g mask="url(#mask4_19_3)">
<path fill-rule="evenodd" clip-rule="evenodd" d="M1083.74 325.223C1084.46 324.412 1084.82 323.875 1085.3 323.484C1086.82 322.228 1088.34 320.961 1089.94 319.814C1100.46 312.236 1111.92 306.592 1123.61 301.466C1128.69 299.236 1133.93 297.421 1139.03 295.226C1147.31 291.654 1155.96 289.663 1164.79 288.789C1172.73 288.002 1180.73 287.814 1188.7 287.38C1188.94 287.367 1189.19 287.546 1189.74 287.748C1188.93 288.113 1188.43 288.373 1187.91 288.561C1181.14 291.007 1174.66 294.22 1168.22 297.501C1162.93 300.192 1157.55 302.646 1151.87 304.29C1137.09 308.568 1123.17 314.925 1110.31 323.83C1108.73 324.93 1107.17 325.323 1105.3 325.274C1099.31 325.118 1093.31 325.13 1087.32 325.096C1086.28 325.09 1085.24 325.167 1083.74 325.223ZM1113.68 325.36C1114.08 324.932 1114.23 324.674 1114.45 324.551C1118.63 322.239 1122.73 319.763 1127 317.68C1135.14 313.713 1143.61 310.762 1152.26 308.314C1155.91 307.282 1159.53 306.006 1163 304.431C1169.37 301.544 1175.6 298.318 1181.91 295.293C1188.69 292.043 1195.68 289.35 1202.91 287.478C1204.83 286.98 1206.85 286.683 1208.83 286.704C1230.54 286.921 1252.17 288.426 1273.61 292.246C1274.3 292.367 1274.98 292.537 1275.66 292.682C1275.67 292.883 1275.69 293.083 1275.7 293.284C1274.7 293.591 1273.69 293.903 1272.68 294.204C1270.82 294.753 1268.96 295.285 1267.11 295.846C1260.22 297.935 1253.82 301.388 1247.16 304.104C1242.17 306.137 1237.08 307.933 1231.97 309.588C1226.71 311.288 1221.34 312.601 1216.06 314.233C1204.24 317.891 1192.82 322.597 1181.96 328.837C1174.73 332.987 1167.59 337.257 1161.04 342.571C1159.52 343.802 1157.96 344.974 1156.38 346.206C1155.7 345.688 1155.12 345.264 1154.56 344.806C1152.4 343.048 1150.25 341.287 1148.11 339.516C1138.48 331.576 1127.67 326.863 1115.51 325.751C1114.99 325.702 1114.47 325.534 1113.68 325.36ZM1158.51 347.843C1158.98 347.394 1159.17 347.161 1159.4 347.007C1163.28 344.451 1167.06 341.678 1171.09 339.407C1178.52 335.213 1186.06 331.203 1193.64 327.316C1203.47 322.278 1213.9 318.974 1224.41 316.072C1234.6 313.262 1244.63 309.986 1254.26 305.476C1262.47 301.636 1270.87 298.513 1279.63 296.479C1284.25 295.406 1288.87 294.521 1293.58 296.08C1295.07 296.573 1296.66 296.743 1298.2 297.071C1312.91 300.204 1327.54 303.745 1341.77 308.91C1342.48 309.17 1343.18 309.486 1344.29 309.945C1343.43 310.311 1343.01 310.551 1342.56 310.665C1337.36 312.013 1332.14 313.258 1326.96 314.69C1316.83 317.487 1307.07 321.407 1297.8 326.58C1290.98 330.388 1284.37 334.625 1277.64 338.617C1270.09 343.087 1262.56 347.57 1254.95 351.908C1248.63 355.506 1242.48 359.324 1237.26 364.628C1235.24 366.676 1233.3 368.798 1231.28 370.848C1228.39 373.791 1225.15 376.253 1221.9 378.804C1221.44 378.444 1221.08 378.208 1220.77 377.914C1215.05 372.458 1208.48 368.528 1201.4 365.48C1193.5 362.078 1185.28 359.764 1177.12 357.202C1174.52 356.385 1171.91 355.572 1169.35 354.62C1165.4 353.155 1161.97 350.737 1158.51 347.843ZM1224.05 381.285C1225.01 380.508 1225.72 379.892 1226.46 379.335C1230.16 376.593 1233.75 373.717 1236.9 370.268C1242.19 364.481 1248.51 360.254 1255.13 356.428C1265.41 350.487 1275.69 344.543 1285.83 338.328C1297.38 331.246 1309.28 325.067 1322.03 320.86C1325.99 319.554 1329.94 318.2 1333.95 317.117C1339.28 315.679 1344.65 314.446 1350.02 313.221C1351.03 312.992 1352.3 312.855 1353.14 313.32C1354.48 314.067 1355.93 314.323 1357.29 314.911C1365.17 318.323 1373.02 321.782 1380.88 325.241C1381.31 325.432 1381.69 325.765 1382.23 326.128C1381.54 326.617 1381.04 327.023 1380.49 327.359C1374.75 330.91 1368.95 334.334 1363.28 338.017C1349.43 347.022 1336.1 356.793 1324.23 368.667C1314.08 378.815 1303.87 388.905 1293.81 399.149C1287.45 405.621 1281.56 412.572 1276.61 420.367C1276.18 421.042 1275.69 421.671 1275.25 422.292C1274.79 422.159 1274.5 422.107 1274.24 421.995C1266.84 418.761 1259.53 415.304 1252.51 411.165C1248.74 408.939 1245.19 406.35 1242.28 402.954C1236.21 395.879 1230.27 388.686 1224.05 381.285ZM1277.78 423.437C1278.06 422.89 1278.23 422.474 1278.47 422.118C1282.87 415.63 1287.62 409.447 1292.95 403.806C1304.76 391.314 1317.11 379.439 1329.96 368.192C1347.17 353.127 1366.47 341.381 1385.58 329.372C1387.22 328.342 1388.67 328.465 1390.2 330.052C1389.6 330.793 1389.04 331.379 1388.6 332.059C1387.35 333.996 1385.85 335.831 1384.99 337.959C1382.53 344.04 1379.97 350.118 1378.13 356.426C1373.53 372.286 1369.33 388.279 1364.91 404.2C1363.35 409.821 1361.78 415.455 1359.9 420.958C1357.13 429.042 1352.77 436.167 1347.83 442.962C1343.94 448.322 1339.18 452.348 1333.6 455.465C1332.17 456.262 1331.1 456.219 1329.86 455.324C1326.26 452.715 1322.57 450.237 1319.05 447.517C1306.9 438.147 1294.2 429.865 1280.01 424.448C1279.28 424.172 1278.59 423.807 1277.78 423.437ZM1335.36 458.048C1336.48 457.374 1337.21 456.919 1337.95 456.483C1341.73 454.271 1345.25 451.672 1348.2 448.322C1355.34 440.224 1360.91 431 1364.24 420.477C1368.56 406.837 1372.46 393.048 1376.5 379.308C1380.23 366.59 1383.34 353.645 1388.58 341.471C1389.63 339.028 1390.79 336.687 1392.5 334.697C1392.81 334.334 1393.23 334.078 1393.69 333.699C1393.94 334.185 1394.14 334.494 1394.26 334.832C1396.12 339.784 1398.02 344.718 1399.8 349.698C1404.69 363.342 1408.09 377.408 1410.19 391.838C1411.84 403.225 1414.3 414.419 1417.55 425.407C1421.33 438.229 1426.43 450.476 1431.98 462.529C1434.44 467.88 1437.07 473.107 1440.79 477.596C1444.67 482.274 1448.63 486.871 1452.56 491.502C1453.07 492.108 1453.6 492.704 1454.4 493.624C1453.45 493.964 1452.94 494.199 1452.4 494.334C1444.25 496.397 1436.12 496.19 1428.02 494.052C1422 492.462 1416.46 489.65 1411.12 486.363C1405.67 483.015 1400.22 479.664 1394.78 476.306C1388.29 472.3 1381.38 469.492 1374.02 467.958C1367.08 466.512 1360.13 465.122 1353.2 463.655C1347.94 462.543 1342.74 461.183 1337.71 459.152C1337.02 458.873 1336.36 458.519 1335.36 458.048ZM1442.33 473.098C1441.14 471.612 1440.18 469.861 1439.36 468.099C1435.09 458.969 1430.78 449.86 1427.21 440.378C1422.32 427.397 1418.56 414.075 1416.35 400.274C1415.33 393.896 1414.38 387.504 1413.36 381.127C1411.49 369.439 1408.21 358.173 1404.29 347.108C1403.13 343.833 1401.79 340.628 1400.55 337.386C1400.29 336.724 1400.11 336.03 1399.85 335.207C1404.89 336.409 1445.63 363.143 1448.21 366.787C1447.54 367.973 1446.68 369.064 1446.27 370.322C1444.73 375.046 1443.91 379.947 1444.56 384.932C1445.32 390.761 1446.91 396.397 1449.03 401.83C1452.8 411.476 1457.68 420.535 1462.11 429.83C1464.24 434.311 1466.6 438.659 1468 443.511C1469.36 448.246 1470.93 452.911 1472.32 457.636C1472.94 459.737 1473.61 461.886 1473.79 464.057C1474.86 477.121 1469.72 486.171 1457.86 492.042C1452.65 485.706 1447.44 479.451 1442.33 473.098ZM1415.13 335.446C1414.59 335.108 1414.07 334.721 1413.54 334.359C1413.56 334.199 1413.59 334.039 1413.62 333.88C1414.3 333.9 1414.99 333.892 1415.68 333.947C1418.17 334.144 1420.65 334.49 1423.14 334.551C1440.51 334.983 1457.71 337.308 1474.92 339.559C1493.52 341.994 1511.68 346.759 1529.76 351.916C1532.44 352.682 1535.06 353.737 1537.67 354.773C1542.68 356.77 1547.67 358.849 1552.67 360.891C1553.52 361.237 1554.38 361.566 1555.37 361.96C1554.73 364.298 1553.64 366.191 1551.98 367.512C1549.93 369.134 1547.76 370.651 1545.48 371.852C1541.19 374.117 1536.54 374.199 1531.86 373.762C1522.58 372.898 1513.55 370.77 1504.64 367.844C1497.28 365.423 1489.85 363.211 1482.39 361.179C1478.74 360.186 1474.96 359.551 1471.21 359.217C1465.72 358.73 1460.21 358.724 1455.17 361.792C1454.83 361.999 1454.21 361.855 1453.79 361.691C1453.33 361.513 1452.95 361.12 1452.54 360.817C1440.36 351.869 1427.93 343.343 1415.13 335.446ZM1553.8 356.801C1545.34 352.731 1536.98 348.377 1527.99 345.705C1515.73 342.063 1503.39 338.758 1490.85 336.487C1470.92 332.872 1450.79 330.949 1430.61 329.73C1421.85 329.2 1413.08 328.77 1404.31 328.305C1402.8 328.225 1401.39 327.946 1400.3 326.646C1400.52 326.386 1400.64 326.189 1400.8 326.056C1401.09 325.827 1401.39 325.632 1401.7 325.434C1408.3 321.098 1415.4 317.924 1422.64 315.06C1430.86 311.808 1438.52 307.477 1445.53 301.849C1447.86 299.973 1450.18 298.042 1452.32 295.924C1456.98 291.306 1460.57 285.889 1462.42 279.296C1462.72 279.319 1462.95 279.282 1463.13 279.362C1464.19 279.821 1465.25 280.287 1466.29 280.791C1475.22 285.125 1483.68 290.362 1491.86 296.127C1498.38 300.727 1505.29 304.505 1512.62 307.454C1515.56 308.638 1518.47 309.9 1521.34 311.28C1530.09 315.501 1537.93 321.135 1544.4 328.774C1549.92 335.287 1553.64 342.837 1555.56 351.376C1556.01 353.36 1556.35 355.386 1555.98 357.812C1555.09 357.399 1554.44 357.108 1553.8 356.801ZM1457.89 280.781C1457.69 281.273 1457.47 281.754 1457.23 282.217C1454.99 286.419 1452.34 290.282 1448.92 293.475C1442.59 299.373 1435.58 304.194 1427.96 307.935C1422.58 310.577 1417.04 312.83 1411.59 315.316C1406.67 317.565 1401.83 319.99 1397.46 323.367C1395.6 324.813 1395.56 324.778 1393.35 323.029C1394.78 318.771 1396.06 314.331 1397.74 310.076C1400.45 303.225 1402.74 296.321 1403.04 288.787C1403.36 280.865 1403.75 272.96 1401.79 264.778C1402.55 264.866 1403.04 264.858 1403.5 264.987C1414.23 267.965 1425.15 269.855 1436.11 271.592C1442.89 272.669 1449.61 274.133 1456.13 276.493C1458.77 277.449 1459 277.981 1457.89 280.781ZM1400.01 266.533C1400.53 274.076 1400.29 281.598 1399.51 289.108C1399.13 292.766 1398.28 296.272 1397.08 299.731C1394.69 306.651 1391.29 313.172 1389.79 320.453C1389.72 320.766 1389.41 321.022 1389.23 321.264C1388.03 321.002 1387.7 320.025 1387.34 319.126C1385.21 313.885 1383.17 308.599 1380.95 303.401C1378.4 297.448 1375.98 291.4 1372.46 286.003C1369.28 281.133 1365.99 276.323 1362.53 271.68C1356.88 264.1 1350.81 256.924 1343.46 251.122C1343.07 250.819 1342.76 250.417 1342.42 250.063C1342.49 249.889 1342.56 249.717 1342.63 249.545C1343.61 249.641 1344.58 249.717 1345.55 249.834C1353.8 250.811 1361.91 252.625 1369.91 254.954C1379.14 257.641 1388.32 260.524 1397.53 263.316C1399.81 264.008 1399.83 263.992 1400.01 266.533ZM1339.13 251.009C1342.68 254.956 1346.65 258.478 1350.29 262.341C1355.86 268.258 1361.06 274.537 1365.34 281.606C1367.43 285.055 1369.6 288.486 1371.31 292.152C1374.23 298.418 1376.82 304.866 1379.56 311.235C1380.47 313.365 1381.41 315.486 1382.35 317.643C1382.09 317.735 1381.94 317.854 1381.83 317.819C1381.22 317.614 1380.62 317.387 1380.02 317.141C1369.09 312.646 1358.16 308.171 1347.25 303.62C1345.95 303.078 1344.6 302.346 1343.62 301.322C1340.74 298.277 1338.04 295.025 1335.24 291.881C1331.9 288.129 1328.75 284.13 1325.12 280.726C1318.09 274.143 1310.94 267.688 1303.55 261.581C1296.25 255.556 1288.36 250.454 1279.81 246.637C1279.16 246.348 1278.52 246.024 1277.88 245.717C1277.92 245.551 1277.96 245.383 1278 245.218C1279.61 245.474 1281.23 245.668 1282.82 245.996C1293.73 248.234 1304.76 248.969 1315.84 249.01C1321.98 249.035 1328.11 249.066 1334.25 249.037C1336.14 249.027 1337.65 249.365 1339.13 251.009ZM1272.67 247.571C1283.13 251.699 1292.59 257.784 1301.7 264.53C1303.69 266.001 1305.44 267.821 1307.29 269.499C1308.43 270.535 1309.51 271.655 1310.67 272.655C1319.61 280.314 1327.53 289.063 1334.91 298.388C1335.08 298.601 1335.2 298.859 1335.34 299.096C1335.27 299.227 1335.18 299.358 1335.11 299.49C1332.57 298.76 1330.04 298.005 1327.49 297.306C1312.61 293.227 1297.54 290.122 1282.38 287.646C1277.36 286.827 1273.19 284.922 1269.36 281.496C1259.75 272.915 1249.01 266.326 1237.33 261.516C1231.93 259.298 1226.53 257.102 1221.11 254.958C1219.8 254.44 1218.4 254.169 1216.58 253.651C1217.35 253.375 1217.65 253.205 1217.96 253.166C1226.07 252.156 1233.95 250.143 1241.72 247.464C1248.34 245.181 1255.18 244.105 1262.15 244.165C1262.9 244.171 1263.67 244.394 1264.38 244.652C1265.38 245.011 1266.32 245.57 1267.33 245.912C1269.1 246.51 1270.94 246.885 1272.67 247.571ZM1221.97 258.392C1229.85 261.178 1237.26 265.204 1244.56 269.39C1251.64 273.443 1257.95 278.725 1264.48 283.644C1264.75 283.841 1264.95 284.123 1265.21 284.392C1264.97 284.553 1264.86 284.699 1264.75 284.693C1264.18 284.668 1263.61 284.619 1263.05 284.556C1238.65 281.858 1214.21 280.73 1189.75 283.284C1184.04 283.88 1178.78 283.189 1173.47 281.004C1167.03 278.356 1160.3 277.027 1153.34 277.361C1153.15 277.369 1152.95 277.256 1152.76 277.201C1152.72 277.033 1152.68 276.863 1152.64 276.695C1155.19 275.391 1157.73 274.078 1160.29 272.78C1165.31 270.22 1170.38 267.776 1175.34 265.083C1183.33 260.748 1191.47 256.905 1200.42 255.482C1202.81 255.101 1205.32 254.368 1207.62 254.767C1212.46 255.609 1217.32 256.746 1221.97 258.392ZM1152.54 280.39C1157.89 281.293 1163.19 282.557 1168.5 283.701C1169.1 283.831 1169.67 284.123 1170.25 284.34C1170.24 284.543 1170.23 284.746 1170.21 284.949C1149.72 286.425 1130.88 293.946 1112.29 302.594C1112.59 302.009 1112.95 301.57 1113.38 301.239C1122.93 293.907 1132.5 286.597 1143.42 281.66C1144.2 281.305 1144.94 280.611 1145.74 280.539C1148 280.337 1150.33 280.015 1152.54 280.39ZM1071.61 330.543C1072.05 331.713 1072.98 332.081 1074.03 332.045C1074.95 332.012 1075.88 331.864 1076.79 331.662C1082.55 330.361 1088.37 330.087 1094.24 330.392C1100.23 330.703 1106.23 330.797 1112.21 331.078C1124.27 331.641 1135.12 335.807 1144.71 343.673C1148.73 346.972 1152.81 350.188 1156.82 353.491C1161.53 357.36 1166.77 360.022 1172.48 361.73C1177.98 363.375 1183.48 365.048 1188.91 366.947C1193.59 368.581 1198.23 370.387 1202.77 372.409C1209.99 375.62 1216.27 380.338 1221.51 386.566C1225.85 391.723 1230.24 396.839 1234.49 402.074C1239.96 408.799 1246.46 413.997 1253.95 417.893C1261.86 422.001 1269.83 425.978 1278.11 429.118C1291.79 434.299 1304.06 442.127 1315.78 451.093C1317.98 452.78 1320.18 454.482 1322.38 456.172C1327.89 460.395 1333.92 463.567 1340.46 465.402C1346.53 467.106 1352.7 468.409 1358.85 469.768C1363.88 470.883 1368.96 471.788 1374 472.845C1380.65 474.239 1386.87 476.879 1392.72 480.522C1398.21 483.945 1403.65 487.451 1409.12 490.906C1413.31 493.55 1417.65 495.87 1422.26 497.586C1431.7 501.105 1441.39 502.022 1451.17 500.013C1459.52 498.301 1466.91 494.193 1472.43 487.224C1478.41 479.673 1480.37 470.61 1478.2 461.058C1476.4 453.077 1473.82 445.278 1471.25 437.523C1470.03 433.816 1468.04 430.394 1466.4 426.842C1462.17 417.694 1457.35 408.828 1454.02 399.248C1452.33 394.414 1451.1 389.356 1450.15 384.295C1449.43 380.453 1450.26 376.556 1451.55 372.865C1451.86 371.958 1452.41 371.143 1453.01 369.978C1454.02 370.723 1454.79 371.26 1455.54 371.835C1466.72 380.467 1477.42 389.741 1487.6 399.672C1491.95 403.923 1495.79 408.795 1499.78 413.465C1507.77 422.806 1515.89 432.03 1523.62 441.613C1539.78 461.658 1555.16 482.386 1568.84 504.468C1576.72 517.182 1583.7 530.477 1590.27 544.006C1595.57 554.902 1600.46 566.014 1604.68 577.422C1608.14 586.771 1611.15 596.312 1614.27 605.805C1615.2 608.641 1616.18 611.386 1618.23 613.542C1618.43 613.753 1618.58 614.019 1618.73 614.273C1620.36 616.964 1622.76 617.564 1625.31 615.905C1627.89 614.226 1629.29 611.683 1629.41 608.549C1629.5 606.141 1629.31 603.667 1628.88 601.297C1627.57 594.18 1625.61 587.244 1623.15 580.483C1620.98 574.517 1618.64 568.621 1616.41 562.682C1611.87 550.628 1606.04 539.296 1599.87 528.122C1584.08 499.534 1565.22 473.338 1545.2 448.068C1534.32 434.326 1522.23 421.774 1509.72 409.699C1509.4 409.391 1509.08 409.088 1508.75 408.797C1497.17 398.521 1485.62 388.197 1473.98 377.991C1469.51 374.076 1464.83 370.432 1460.25 366.66C1459.7 366.209 1459.19 365.722 1458.28 364.921C1459.41 364.63 1460.12 364.391 1460.85 364.268C1466.65 363.287 1472.42 363.725 1478.06 365.259C1485.94 367.405 1493.79 369.726 1501.59 372.214C1508.78 374.51 1515.95 376.814 1523.41 377.948C1528.57 378.733 1533.73 379.497 1538.97 379.011C1545.09 378.444 1550.4 375.816 1554.97 371.538C1558.85 367.907 1560.51 363.135 1560.6 357.704C1560.7 351.939 1559.15 346.579 1556.99 341.379C1550.92 326.783 1540.43 316.777 1527.51 309.426C1523.61 307.21 1519.5 305.38 1515.37 303.676C1507.41 300.389 1499.88 296.245 1492.72 291.281C1488.42 288.295 1483.99 285.477 1479.51 282.784C1465.74 274.498 1451.06 268.985 1435.36 266.719C1418.26 264.25 1401.54 259.998 1385.07 254.54C1378.12 252.236 1371.03 250.399 1363.97 248.464C1350.45 244.753 1336.66 243.792 1322.76 243.995C1309.4 244.191 1296.09 243.544 1282.88 241.044C1278.39 240.196 1273.81 239.823 1269.26 239.481C1261.61 238.908 1253.98 239.36 1246.49 241.189C1243.02 242.037 1239.6 243.198 1236.2 244.368C1229.03 246.838 1221.61 247.945 1214.17 248.961C1209.08 249.658 1203.97 250.249 1198.9 251.14C1192.61 252.25 1186.53 254.29 1180.79 257.264C1171.99 261.817 1163.23 266.447 1154.54 271.205C1146.73 275.475 1138.95 279.81 1131.32 284.408C1126.42 287.359 1121.69 290.667 1117.08 294.124C1109.84 299.559 1102.39 304.62 1094.78 309.435C1089.55 312.746 1084.69 316.576 1080.14 320.889C1077.85 323.06 1075.39 325.03 1073.01 327.092C1072.79 327.285 1072.57 327.475 1072.35 327.678C1071.54 328.463 1071.18 329.39 1071.61 330.543Z" fill="#435F17"/>
</g>
<path fill-rule="evenodd" clip-rule="evenodd" d="M220.366 169.155C221.468 174.698 221.259 180.679 219.642 184.775C215.195 196.032 201.798 198.662 194.492 189.045C190.927 184.351 188.17 178.194 189.992 171.993C190.836 169.122 193.273 165.499 195.13 163.283C198.852 158.843 207.719 152.408 213.393 156.264C216.925 158.667 219.281 163.701 220.366 169.155Z" fill="#FFFFFE"/>
<path fill-rule="evenodd" clip-rule="evenodd" d="M194.056 232.759C204.515 231.043 205.993 241.967 204.954 250.499C204.44 254.728 204.269 260.141 200.133 261.528C194.83 263.303 188.698 261.544 186.334 255.848C183.391 248.762 185.184 242.696 189.022 236.747C190.437 234.555 191.47 233.183 194.056 232.759Z" fill="#FFFFFE"/>
<path fill-rule="evenodd" clip-rule="evenodd" d="M141.944 107.936C152.404 106.219 153.88 117.143 152.843 125.675C152.329 129.905 152.156 135.317 148.022 136.702C142.717 138.48 136.585 136.718 134.221 131.025C131.28 123.939 133.071 117.871 136.911 111.923C138.324 109.73 139.359 108.36 141.944 107.936Z" fill="#FFFFFE"/>
<path fill-rule="evenodd" clip-rule="evenodd" d="M133.419 221.852C143.837 222.183 144.762 238.131 140.7 247.001C138.234 252.383 134.746 252.953 130.383 254.892C124.902 257.329 118.973 258.47 113.821 253.966C105.911 247.05 117.137 235.08 120.714 229.726C122.467 227.101 124.105 224.608 126.722 223.302C128.757 222.284 131.244 221.782 133.419 221.852Z" fill="#FFFFFE"/>
<path fill-rule="evenodd" clip-rule="evenodd" d="M219.109 325.992C218.415 336.638 207.625 360.817 194.909 347.509C188.152 340.439 191.873 328.444 197.587 322.302C199.995 319.711 201.468 316.578 203.687 313.877C205.039 312.23 206.907 310.538 208.792 309.647C218.46 305.08 219.546 319.277 219.109 325.992Z" fill="#FFFFFE"/>
<path fill-rule="evenodd" clip-rule="evenodd" d="M158.231 276.263C167.658 279.052 168.73 289.096 164.78 297.378C163.277 300.53 161.153 306.074 158.346 308.152C154.642 310.897 148.241 309.162 144.714 306.944C138.276 302.899 138.491 295.836 140.713 289.016C142.431 283.748 145.396 278.02 150.693 276.193C153.16 275.343 155.764 275.534 158.231 276.263Z" fill="#FFFFFE"/>
<path fill-rule="evenodd" clip-rule="evenodd" d="M78.3341 337.527C76.0608 347.47 69.4349 354.327 59.5277 351.693C56.8281 350.974 50.2752 349.19 48.6643 346.337C47.1725 343.699 47.9193 338.629 48.5779 335.688C49.9142 329.712 54.0691 326.253 57.6345 321.814C61.5859 316.899 66.2265 315.191 72.432 318.847C78.6413 322.507 79.8816 330.752 78.3341 337.527Z" fill="#FFFFFE"/>
<path fill-rule="evenodd" clip-rule="evenodd" d="M274.666 217.745C276.745 224.219 273.485 231.817 270.486 237.347C267.272 243.278 260.285 242.123 254.484 241.299C251.894 236.354 254.15 225.978 256.773 221.315C258.096 218.964 260.118 217.481 262.26 216.056C266.492 213.242 272.555 211.182 274.666 217.745Z" fill="#FFFFFE"/>
<path fill-rule="evenodd" clip-rule="evenodd" d="M276.027 171.938C284.517 166.887 294.171 153.915 289.302 143.065C285.944 135.584 277.674 137.912 272.402 141.474C269.616 143.356 266.231 146.094 265.058 149.51C263.103 155.2 261.066 166.445 264.242 170.816C267.427 175.202 271.841 174.426 276.027 171.938Z" fill="#FFFFFE"/>
<path fill-rule="evenodd" clip-rule="evenodd" d="M215.424 63.0784C210.224 67.9567 207.531 73.9143 212.175 80.5232C215.506 85.2603 221.798 89.7945 227.56 87.8571C237.588 84.482 240.971 64.2212 231.786 57.8908C226.189 54.0324 219.406 59.3428 215.424 63.0784Z" fill="#FFFFFE"/>
<path fill-rule="evenodd" clip-rule="evenodd" d="M125.806 175.716C130.986 173.922 135.99 175.516 137.952 181.215C139.451 185.575 139.417 191.945 135.6 194.896C132.311 197.437 125.842 199.117 121.87 199.565C116.726 200.147 114.804 196.708 115.167 191.484C115.48 186.97 116.212 181.914 119.67 178.878C121.409 177.351 123.688 176.45 125.806 175.716Z" fill="#FFFFFE"/>
<path fill-rule="evenodd" clip-rule="evenodd" d="M51.9936 210.629C60.6816 210.283 63.4349 220.889 63.3658 228.352C63.3005 235.301 57.7459 246.258 49.9258 244.562C38.0966 241.994 37.609 227.494 42.5491 218.139C44.5075 214.432 47.7446 210.799 51.9936 210.629Z" fill="#FFFFFE"/>
<mask id="mask5_19_3" style="mask-type:alpha" maskUnits="userSpaceOnUse" x="0" y="76" width="1440" height="435">
<path d="M0 76.92H1440V510.92H0V76.92Z" fill="white"/>
</mask>
<g mask="url(#mask5_19_3)">
<path fill-rule="evenodd" clip-rule="evenodd" d="M1497.6 448.632L1454.4 76.92C1446.46 87.7334 1442.78 99.362 1436.11 111.197C1431.19 119.916 1422.83 129.046 1421.36 139.378C1420.97 142.167 1421.88 144.963 1421.16 147.644C1420.24 151.086 1417.63 152.049 1415.4 154.549C1413.12 157.111 1411.73 160.454 1409.58 163.157C1407.16 166.215 1403.99 169.619 1400.77 171.806C1398.94 173.043 1397.35 173.432 1395.73 175.39C1391.56 180.414 1392.28 188.702 1390.06 194.811C1387.5 201.852 1383.93 207.972 1382.05 215.203C1379 226.868 1373.27 238.401 1368.01 249.097C1365.7 253.779 1361.17 256.525 1356.83 258.545C1354.81 259.485 1354 259.602 1351.45 259.686C1347.84 259.806 1344.56 261.177 1340.91 261.32C1337.03 261.471 1333.08 261.24 1329.19 261.24C1321.22 261.24 1312.3 262.418 1304.46 261.009C1292.98 258.942 1282.7 250.867 1272.27 245.8C1267.65 243.558 1262 242.417 1257.07 241.405C1253.93 240.762 1251.71 239.722 1248.48 239.742C1240.01 239.793 1232.27 243.951 1224.38 247.119C1217.71 249.796 1210.58 250.132 1203.83 252.792C1197.17 255.415 1190.56 256.736 1183.65 258.168C1174.63 260.034 1165.82 264.253 1156.57 264.347C1154.48 264.369 1150.75 263.27 1148.97 264.543C1145.85 266.784 1143.88 273.856 1142.58 277.11C1139.47 284.925 1135.98 292.992 1131.34 299.931C1129.06 303.347 1128.09 305.753 1124.63 307.736C1122.58 308.915 1120.27 309.667 1118.27 310.931C1111.94 314.93 1107.77 323.425 1102.36 328.629C1100.18 330.731 1098.12 333.575 1095.88 335.042C1095.72 335.146 1093.85 334.997 1093.27 335.269C1092.49 335.644 1091.76 336.854 1090.85 337.329C1088.8 338.411 1086.61 338.058 1084.38 338.04C1079.18 337.997 1073.78 338.665 1068.7 337.327C1065.3 336.434 1062.5 334.823 1059.36 333.397C1052.28 330.186 1043.21 331.88 1035.78 331.845C1019.53 331.765 1003.12 332.711 986.993 335.003C982.209 335.685 973.331 335.185 969.059 338.009C966.676 339.584 965.46 341.556 963.074 343.025C960.223 344.78 957.594 345.188 954.722 346.56C952.015 347.852 950.081 350.658 947.487 352.28C945.354 353.613 943.947 354.127 941.821 354.893C933.37 357.93 922.884 359.607 913.972 359.616C902.147 359.624 889.966 355.872 878.001 358.276C870.726 359.737 861.579 361.766 855.035 365.573C851.311 367.74 847.878 370.992 844.189 373.337C839.098 376.575 835.513 381.116 831.247 385.349C826.533 390.026 821.449 395.089 815.069 396.463C813.441 396.813 812.463 396.566 810.824 397.297C807.506 398.773 803.149 401.989 800.189 404.022C797.338 405.98 795.479 408.09 793.052 410.658C789.694 414.215 785.687 416.3 782.242 419.702C775.476 426.383 769.974 436.018 760.13 437.954C753.494 439.258 745.455 437.88 738.789 437.88C707.491 437.88 676.111 437.182 644.828 438.222C615.241 439.205 585.759 439.404 556.151 439.414C536.269 439.42 516.119 438.361 496.26 439.721C487.442 440.327 477.882 440.817 469.34 443.324C463.774 444.956 461.964 440.542 456.743 438.222C451.776 436.014 446.811 435.347 441.398 434.663C421.615 432.166 400.913 433.159 381.06 433.272C346.512 433.467 312.401 431.736 278.076 427.198C268.472 425.928 258.841 424.912 249.815 420.912C247.317 419.806 240.908 418.195 239.169 416.272C238.79 415.856 237.266 407.953 237.782 409.525C236.446 405.458 233.656 402.425 230.713 399.595C227.631 396.631 224.131 394.514 220.771 391.978C214.618 387.337 209.566 381.324 204.359 375.568C200.972 371.824 197.403 367.953 194.31 363.902C193.066 362.272 191.564 358.252 190.067 357.232C186.916 355.088 181.68 357.09 178.301 358.008C171.036 359.982 164.611 359.947 157.35 358.008C146.471 355.102 134.41 356.478 123.187 356.472C116.938 356.468 109.968 357.85 104.204 354.807C93.7977 349.318 83.8867 342.867 73.2653 337.704C59.7293 331.122 47.9117 323.995 32.7898 324.134C25.4534 324.202 19.7222 323.86 12.7814 320.941C2.6976 316.704 -5.86944 310.159 -15.4637 304.985C-21.2813 301.848 -29.351 298.997 -34.5354 294.649C-34.5734 299.62 -31.584 305.059 -29.7869 309.497C-24.7219 322.008 -21.8765 335.287 -19.0176 348.526C-11.6659 382.555 -8.06592 417.883 -8.6112 452.787C-8.68608 457.49 -10.9133 470.322 -4.59456 473.026C-1.04448 474.545 6.27648 471.281 9.00288 470.691C21.575 467.973 34.4621 466.962 47.1974 465.567C77.0054 462.302 107.47 458.413 137.443 457.44C163.86 456.582 190.164 457.653 216.551 458.884C269.988 461.377 322.81 462.905 376.333 460.766C414.205 459.255 452.033 457.086 489.934 456.314C576.002 454.561 661.787 462.653 747.752 465.331C813.855 467.392 880.049 467.248 946.172 466.978C973.989 466.865 1000.9 467.162 1027.6 476.337C1039.28 480.347 1050.23 486.422 1062.5 482.178C1072.58 478.693 1081.96 473.274 1092.11 469.941C1106.1 465.348 1120.31 462.784 1134.91 461.817C1158.5 460.252 1182.24 460.293 1205.86 459.353C1228.43 458.456 1250.96 457.944 1273.54 457.647C1317.53 457.068 1361.79 453.418 1405.57 459.329C1426.31 462.128 1448.81 467.074 1469.65 462.466C1477.43 460.748 1485.06 458.481 1492.79 456.533C1495.01 455.974 1501.25 455.7 1502.71 453.85C1505.84 449.861 1499.85 449.683 1497.6 448.632Z" fill="#FFFFFE"/>
</g>
<mask id="mask6_19_3" style="mask-type:alpha" maskUnits="userSpaceOnUse" x="1071" y="238" width="369" height="323">
<path d="M1071 238.92H1440V560.308H1071V238.92Z" fill="white"/>
</mask>
<g mask="url(#mask6_19_3)">
<path fill-rule="evenodd" clip-rule="evenodd" d="M1083.31 324.895C1084.03 324.084 1084.4 323.547 1084.87 323.156C1086.39 321.901 1087.91 320.633 1089.51 319.486C1100.03 311.908 1111.49 306.264 1123.18 301.138C1128.26 298.908 1133.5 297.093 1138.6 294.898C1146.89 291.326 1155.53 289.335 1164.36 288.461C1172.3 287.674 1180.3 287.486 1188.28 287.052C1188.51 287.04 1188.76 287.218 1189.31 287.42C1188.5 287.785 1188 288.045 1187.48 288.234C1180.71 290.679 1174.24 293.892 1167.79 297.173C1162.5 299.864 1157.12 302.318 1151.44 303.962C1136.67 308.24 1122.74 314.597 1109.88 323.502C1108.3 324.602 1106.74 324.995 1104.87 324.946C1098.88 324.79 1092.88 324.803 1086.89 324.768C1085.85 324.762 1084.81 324.839 1083.31 324.895ZM1113.25 325.032C1113.65 324.604 1113.8 324.346 1114.02 324.223C1118.2 321.911 1122.3 319.435 1126.58 317.352C1134.71 313.385 1143.18 310.434 1151.83 307.986C1155.48 306.954 1159.1 305.678 1162.57 304.103C1168.94 301.216 1175.17 297.99 1181.48 294.965C1188.27 291.715 1195.25 289.022 1202.48 287.15C1204.4 286.652 1206.43 286.356 1208.4 286.376C1230.11 286.593 1251.74 288.098 1273.18 291.918C1273.87 292.039 1274.55 292.209 1275.23 292.354C1275.24 292.555 1275.26 292.756 1275.28 292.956C1274.27 293.263 1273.26 293.575 1272.25 293.876C1270.4 294.425 1268.53 294.957 1266.68 295.518C1259.79 297.607 1253.39 301.06 1246.73 303.776C1241.74 305.809 1236.65 307.606 1231.54 309.26C1226.28 310.96 1220.91 312.273 1215.64 313.905C1203.82 317.563 1192.39 322.269 1181.53 328.509C1174.3 332.659 1167.16 336.929 1160.61 342.243C1159.09 343.474 1157.53 344.646 1155.95 345.879C1155.28 345.36 1154.69 344.936 1154.13 344.478C1151.97 342.721 1149.82 340.959 1147.68 339.188C1138.06 331.248 1127.24 326.535 1115.08 325.423C1114.56 325.374 1114.05 325.206 1113.25 325.032ZM1158.08 347.515C1158.55 347.066 1158.74 346.833 1158.97 346.679C1162.85 344.123 1166.63 341.35 1170.66 339.079C1178.1 334.885 1185.63 330.875 1193.22 326.988C1203.04 321.95 1213.47 318.646 1223.98 315.744C1234.17 312.934 1244.2 309.658 1253.83 305.148C1262.04 301.308 1270.45 298.185 1279.2 296.151C1283.82 295.078 1288.44 294.193 1293.15 295.752C1294.64 296.245 1296.23 296.415 1297.77 296.743C1312.49 299.876 1327.11 303.417 1341.34 308.582C1342.05 308.843 1342.75 309.158 1343.86 309.617C1343 309.983 1342.58 310.223 1342.13 310.338C1336.93 311.685 1331.71 312.93 1326.53 314.362C1316.4 317.159 1306.64 321.079 1297.37 326.253C1290.55 330.06 1283.94 334.297 1277.21 338.289C1269.67 342.759 1262.13 347.243 1254.52 351.58C1248.2 355.179 1242.05 358.996 1236.83 364.3C1234.82 366.348 1232.87 368.47 1230.85 370.52C1227.97 373.463 1224.72 375.925 1221.47 378.477C1221.01 378.116 1220.65 377.881 1220.34 377.586C1214.63 372.13 1208.05 368.2 1200.97 365.152C1193.07 361.751 1184.85 359.436 1176.7 356.874C1174.09 356.057 1171.49 355.244 1168.92 354.292C1164.98 352.827 1161.54 350.409 1158.08 347.515ZM1223.62 380.957C1224.58 380.181 1225.29 379.564 1226.04 379.007C1229.73 376.265 1233.32 373.389 1236.47 369.941C1241.76 364.153 1248.08 359.926 1254.7 356.1C1264.98 350.159 1275.26 344.216 1285.4 338C1296.95 330.918 1308.85 324.739 1321.6 320.533C1325.56 319.226 1329.51 317.872 1333.52 316.789C1338.85 315.351 1344.22 314.118 1349.59 312.893C1350.6 312.664 1351.87 312.527 1352.71 312.992C1354.05 313.739 1355.51 313.995 1356.86 314.583C1364.74 317.995 1372.6 321.454 1380.45 324.913C1380.88 325.104 1381.26 325.437 1381.8 325.8C1381.11 326.289 1380.61 326.695 1380.06 327.031C1374.33 330.582 1368.52 334.006 1362.86 337.689C1349.01 346.694 1335.67 356.465 1323.8 368.339C1313.65 378.487 1303.44 388.577 1293.38 398.821C1287.02 405.293 1281.13 412.244 1276.18 420.039C1275.75 420.715 1275.26 421.343 1274.82 421.964C1274.36 421.831 1274.08 421.779 1273.82 421.667C1266.41 418.433 1259.1 414.976 1252.08 410.837C1248.31 408.611 1244.76 406.022 1241.85 402.627C1235.78 395.551 1229.84 388.358 1223.62 380.957ZM1277.35 423.109C1277.63 422.562 1277.8 422.146 1278.04 421.79C1282.44 415.302 1287.19 409.119 1292.52 403.479C1304.33 390.986 1316.69 379.111 1329.53 367.864C1346.74 352.799 1366.04 341.053 1385.15 329.044C1386.79 328.014 1388.24 328.137 1389.77 329.724C1389.17 330.465 1388.61 331.051 1388.17 331.731C1386.92 333.668 1385.42 335.503 1384.56 337.631C1382.11 343.712 1379.54 349.79 1377.71 356.098C1373.1 371.958 1368.9 387.951 1364.48 403.872C1362.92 409.494 1361.35 415.128 1359.47 420.631C1356.7 428.714 1352.34 435.839 1347.41 442.634C1343.51 447.994 1338.75 452.02 1333.17 455.137C1331.74 455.934 1330.67 455.891 1329.44 454.996C1325.83 452.387 1322.15 449.909 1318.62 447.189C1306.47 437.819 1293.77 429.537 1279.58 424.12C1278.85 423.844 1278.16 423.479 1277.35 423.109ZM1334.93 457.72C1336.05 457.046 1336.78 456.591 1337.52 456.155C1341.3 453.943 1344.82 451.344 1347.77 447.994C1354.91 439.896 1360.48 430.672 1363.81 420.149C1368.13 406.51 1372.03 392.72 1376.07 378.98C1379.81 366.262 1382.91 353.317 1388.15 341.144C1389.21 338.7 1390.36 336.359 1392.07 334.369C1392.38 334.006 1392.8 333.75 1393.26 333.371C1393.51 333.857 1393.71 334.166 1393.83 334.504C1395.69 339.456 1397.59 344.39 1399.37 349.37C1404.26 363.014 1407.66 377.08 1409.76 391.51C1411.42 402.897 1413.88 414.091 1417.12 425.079C1420.9 437.901 1426 450.148 1431.55 462.201C1434.01 467.552 1436.64 472.779 1440.36 477.268C1444.24 481.946 1448.2 486.543 1452.13 491.174C1452.64 491.78 1453.17 492.376 1453.97 493.296C1453.03 493.636 1452.51 493.871 1451.97 494.006C1443.82 496.069 1435.69 495.862 1427.59 493.724C1421.57 492.134 1416.03 489.323 1410.69 486.035C1405.24 482.687 1399.8 479.336 1394.35 475.978C1387.86 471.972 1380.95 469.164 1373.59 467.63C1366.65 466.184 1359.7 464.794 1352.77 463.327C1347.51 462.215 1342.31 460.855 1337.28 458.824C1336.59 458.545 1335.93 458.191 1334.93 457.72ZM1441.91 472.771C1440.71 471.284 1439.75 469.533 1438.93 467.771C1434.66 458.641 1430.35 449.532 1426.78 440.05C1421.89 427.069 1418.13 413.747 1415.92 399.946C1414.9 393.568 1413.95 387.176 1412.93 380.799C1411.07 369.111 1407.79 357.845 1403.86 346.78C1402.7 343.505 1401.36 340.3 1400.12 337.058C1399.87 336.396 1399.68 335.702 1399.42 334.879C1404.46 336.081 1445.2 362.816 1447.78 366.459C1447.12 367.645 1446.26 368.736 1445.85 369.994C1444.31 374.719 1443.48 379.619 1444.13 384.604C1444.89 390.433 1446.48 396.069 1448.6 401.502C1452.37 411.148 1457.25 420.207 1461.68 429.503C1463.81 433.984 1466.18 438.331 1467.57 443.183C1468.93 447.918 1470.5 452.583 1471.89 457.308C1472.51 459.409 1473.18 461.558 1473.36 463.729C1474.43 476.793 1469.29 485.843 1457.43 491.715C1452.22 485.378 1447.01 479.123 1441.91 472.771ZM1414.7 335.118C1414.16 334.78 1413.64 334.393 1413.11 334.031C1413.14 333.871 1413.16 333.711 1413.19 333.552C1413.88 333.572 1414.56 333.564 1415.25 333.619C1417.74 333.816 1420.22 334.162 1422.72 334.223C1440.08 334.656 1457.28 336.98 1474.49 339.231C1493.09 341.666 1511.26 346.432 1529.33 351.588C1532.01 352.354 1534.63 353.409 1537.24 354.445C1542.25 356.442 1547.24 358.521 1552.24 360.563C1553.09 360.909 1553.95 361.239 1554.94 361.632C1554.31 363.971 1553.21 365.863 1551.55 367.184C1549.5 368.806 1547.33 370.324 1545.05 371.524C1540.76 373.789 1536.11 373.871 1531.44 373.434C1522.15 372.57 1513.12 370.442 1504.22 367.516C1496.85 365.095 1489.42 362.883 1481.96 360.852C1478.31 359.858 1474.53 359.223 1470.78 358.89C1465.29 358.402 1459.78 358.396 1454.74 361.464C1454.4 361.671 1453.78 361.527 1453.36 361.363C1452.91 361.185 1452.53 360.792 1452.11 360.489C1439.94 351.541 1427.51 343.015 1414.7 335.118ZM1553.38 356.473C1544.91 352.403 1536.55 348.049 1527.56 345.377C1515.3 341.735 1502.96 338.43 1490.43 336.159C1470.49 332.544 1450.37 330.621 1430.18 329.402C1421.42 328.872 1412.65 328.442 1403.88 327.977C1402.37 327.897 1400.96 327.619 1399.87 326.318C1400.09 326.058 1400.21 325.861 1400.38 325.728C1400.66 325.499 1400.97 325.304 1401.27 325.106C1407.87 320.77 1414.97 317.596 1422.21 314.733C1430.43 311.48 1438.1 307.149 1445.1 301.521C1447.43 299.645 1449.75 297.714 1451.89 295.596C1456.55 290.978 1460.14 285.561 1462 278.968C1462.29 278.991 1462.52 278.954 1462.7 279.034C1463.76 279.493 1464.82 279.96 1465.86 280.463C1474.79 284.797 1483.25 290.034 1491.43 295.799C1497.95 300.399 1504.87 304.177 1512.19 307.126C1515.13 308.31 1518.05 309.572 1520.91 310.952C1529.66 315.173 1537.5 320.807 1543.97 328.446C1549.49 334.959 1553.21 342.51 1555.14 351.048C1555.58 353.032 1555.92 355.058 1555.55 357.485C1554.66 357.071 1554.01 356.78 1553.38 356.473ZM1457.46 280.453C1457.27 280.945 1457.04 281.426 1456.8 281.889C1454.56 286.091 1451.91 289.954 1448.49 293.147C1442.16 299.045 1435.15 303.866 1427.53 307.608C1422.15 310.25 1416.61 312.502 1411.16 314.989C1406.24 317.237 1401.4 319.662 1397.04 323.039C1395.17 324.485 1395.13 324.45 1392.93 322.701C1394.35 318.444 1395.63 314.004 1397.31 309.748C1400.02 302.897 1402.31 295.993 1402.61 288.459C1402.93 280.537 1403.33 272.632 1401.36 264.45C1402.12 264.538 1402.61 264.53 1403.08 264.659C1413.8 267.637 1424.73 269.527 1435.68 271.264C1442.46 272.341 1449.18 273.805 1455.7 276.165C1458.34 277.121 1458.57 277.654 1457.46 280.453ZM1399.58 266.205C1400.1 273.748 1399.86 281.27 1399.08 288.78C1398.71 292.438 1397.85 295.944 1396.65 299.403C1394.26 306.324 1390.86 312.844 1389.36 320.125C1389.29 320.438 1388.98 320.694 1388.81 320.936C1387.6 320.674 1387.28 319.697 1386.91 318.798C1384.78 313.557 1382.74 308.271 1380.52 303.073C1377.98 297.12 1375.55 291.072 1372.03 285.676C1368.85 280.805 1365.57 275.995 1362.1 271.352C1356.45 263.772 1350.38 256.596 1343.03 250.794C1342.65 250.491 1342.33 250.09 1341.99 249.735C1342.06 249.561 1342.13 249.389 1342.2 249.217C1343.18 249.313 1344.15 249.389 1345.12 249.506C1353.38 250.483 1361.48 252.297 1369.48 254.626C1378.71 257.313 1387.89 260.196 1397.1 262.988C1399.39 263.68 1399.41 263.664 1399.58 266.205ZM1338.7 250.681C1342.26 254.628 1346.22 258.15 1349.86 262.013C1355.43 267.93 1360.63 274.209 1364.91 281.279C1367 284.727 1369.17 288.158 1370.88 291.824C1373.81 298.091 1376.39 304.538 1379.13 310.907C1380.04 313.037 1380.98 315.159 1381.92 317.315C1381.66 317.407 1381.51 317.526 1381.4 317.491C1380.79 317.286 1380.19 317.059 1379.6 316.813C1368.67 312.318 1357.73 307.843 1346.82 303.292C1345.52 302.75 1344.17 302.019 1343.2 300.995C1340.31 297.949 1337.61 294.697 1334.81 291.553C1331.47 287.801 1328.32 283.802 1324.69 280.398C1317.67 273.816 1310.51 267.36 1303.12 261.253C1295.83 255.228 1287.93 250.126 1279.38 246.309C1278.73 246.02 1278.09 245.697 1277.45 245.389C1277.49 245.223 1277.53 245.056 1277.57 244.89C1279.18 245.146 1280.8 245.34 1282.4 245.668C1293.31 247.906 1304.33 248.642 1315.41 248.683C1321.55 248.707 1327.68 248.738 1333.82 248.709C1335.72 248.699 1337.22 249.037 1338.7 250.681ZM1272.24 247.243C1282.7 251.372 1292.16 257.456 1301.28 264.202C1303.26 265.673 1305.02 267.493 1306.86 269.171C1308 270.207 1309.08 271.327 1310.24 272.327C1319.18 279.986 1327.1 288.735 1334.48 298.06C1334.65 298.273 1334.77 298.531 1334.92 298.768C1334.84 298.9 1334.76 299.031 1334.68 299.162C1332.14 298.433 1329.61 297.677 1327.06 296.978C1312.18 292.899 1297.11 289.794 1281.95 287.318C1276.93 286.499 1272.76 284.594 1268.93 281.168C1259.32 272.587 1248.59 265.998 1236.9 261.188C1231.51 258.97 1226.1 256.774 1220.69 254.63C1219.37 254.112 1217.98 253.841 1216.15 253.323C1216.92 253.047 1217.22 252.877 1217.53 252.838C1225.64 251.828 1233.52 249.815 1241.29 247.136C1247.91 244.853 1254.75 243.778 1261.72 243.837C1262.47 243.843 1263.24 244.066 1263.95 244.324C1264.96 244.683 1265.9 245.242 1266.9 245.584C1268.67 246.182 1270.51 246.557 1272.24 247.243ZM1221.55 258.064C1229.42 260.85 1236.83 264.876 1244.14 269.062C1251.21 273.115 1257.52 278.397 1264.05 283.316C1264.32 283.513 1264.52 283.796 1264.78 284.064C1264.54 284.226 1264.43 284.371 1264.32 284.365C1263.75 284.34 1263.18 284.291 1262.62 284.228C1238.22 281.53 1213.78 280.402 1189.32 282.956C1183.61 283.552 1178.35 282.862 1173.04 280.676C1166.6 278.028 1159.87 276.699 1152.91 277.033C1152.72 277.041 1152.52 276.929 1152.33 276.873C1152.29 276.705 1152.25 276.535 1152.21 276.367C1154.76 275.063 1157.31 273.75 1159.86 272.452C1164.88 269.892 1169.95 267.448 1174.91 264.755C1182.9 260.42 1191.04 256.578 1200 255.154C1202.39 254.773 1204.89 254.04 1207.19 254.439C1212.04 255.281 1216.89 256.418 1221.55 258.064ZM1152.12 280.062C1157.47 280.965 1162.76 282.229 1168.07 283.374C1168.67 283.503 1169.24 283.796 1169.83 284.013C1169.81 284.215 1169.8 284.418 1169.78 284.621C1149.3 286.097 1130.45 293.618 1111.86 302.266C1112.16 301.681 1112.52 301.242 1112.95 300.911C1122.5 293.579 1132.07 286.269 1142.99 281.332C1143.78 280.977 1144.51 280.283 1145.31 280.212C1147.57 280.009 1149.91 279.687 1152.12 280.062ZM1071.18 330.215C1071.62 331.385 1072.55 331.754 1073.6 331.717C1074.52 331.684 1075.45 331.536 1076.36 331.334C1082.12 330.033 1087.94 329.759 1093.82 330.064C1099.8 330.375 1105.8 330.469 1111.79 330.75C1123.85 331.313 1134.69 335.479 1144.28 343.345C1148.3 346.645 1152.38 349.86 1156.4 353.163C1161.1 357.032 1166.34 359.694 1172.06 361.402C1177.56 363.047 1183.05 364.72 1188.48 366.619C1193.16 368.253 1197.8 370.059 1202.34 372.081C1209.56 375.292 1215.84 380.011 1221.08 386.239C1225.42 391.395 1229.81 396.511 1234.06 401.746C1239.53 408.472 1246.03 413.669 1253.52 417.565C1261.43 421.673 1269.4 425.65 1277.68 428.79C1291.36 433.971 1303.63 441.799 1315.35 450.765C1317.55 452.452 1319.75 454.154 1321.95 455.844C1327.47 460.067 1333.49 463.239 1340.03 465.074C1346.1 466.778 1352.27 468.081 1358.42 469.441C1363.45 470.555 1368.53 471.46 1373.57 472.517C1380.23 473.911 1386.45 476.551 1392.29 480.195C1397.78 483.617 1403.22 487.123 1408.69 490.578C1412.88 493.222 1417.22 495.542 1421.83 497.259C1431.27 500.777 1440.96 501.695 1450.75 499.685C1459.09 497.973 1466.48 493.865 1472.01 486.896C1477.99 479.345 1479.94 470.282 1477.78 460.73C1475.97 452.749 1473.39 444.951 1470.82 437.195C1469.6 433.488 1467.62 430.066 1465.97 426.514C1461.74 417.366 1456.92 408.5 1453.59 398.92C1451.9 394.086 1450.67 389.028 1449.72 383.967C1449 380.125 1449.84 376.228 1451.12 372.537C1451.43 371.63 1451.98 370.815 1452.58 369.65C1453.6 370.395 1454.36 370.932 1455.11 371.507C1466.29 380.14 1476.99 389.413 1487.17 399.344C1491.53 403.595 1495.36 408.467 1499.35 413.137C1507.34 422.478 1515.46 431.702 1523.19 441.285C1539.36 461.33 1554.73 482.058 1568.41 504.14C1576.29 516.854 1583.27 530.149 1589.85 543.678C1595.14 554.574 1600.03 565.686 1604.25 577.094C1607.71 586.443 1610.73 595.984 1613.84 605.477C1614.77 608.313 1615.75 611.058 1617.8 613.214C1618 613.425 1618.15 613.691 1618.3 613.945C1619.93 616.636 1622.33 617.236 1624.88 615.578C1627.46 613.898 1628.86 611.355 1628.98 608.221C1629.07 605.813 1628.88 603.339 1628.45 600.969C1627.14 593.852 1625.18 586.916 1622.72 580.155C1620.55 574.19 1618.22 568.293 1615.98 562.354C1611.44 550.3 1605.61 538.968 1599.44 527.794C1583.66 499.206 1564.79 473.01 1544.78 447.74C1533.89 433.998 1521.8 421.446 1509.29 409.371C1508.98 409.063 1508.65 408.76 1508.32 408.47C1496.74 398.193 1485.19 387.869 1473.55 377.664C1469.08 373.748 1464.4 370.104 1459.82 366.332C1459.28 365.881 1458.76 365.394 1457.85 364.593C1458.98 364.302 1459.69 364.063 1460.42 363.94C1466.22 362.959 1471.99 363.397 1477.63 364.931C1485.51 367.077 1493.36 369.398 1501.16 371.886C1508.35 374.182 1515.53 376.486 1522.98 377.621C1528.14 378.405 1533.3 379.169 1538.54 378.683C1544.67 378.116 1549.97 375.489 1554.54 371.21C1558.42 367.579 1560.08 362.807 1560.17 357.376C1560.28 351.611 1558.72 346.251 1556.56 341.051C1550.49 326.455 1540.01 316.449 1527.08 309.099C1523.18 306.883 1519.07 305.052 1514.94 303.348C1506.98 300.061 1499.46 295.918 1492.3 290.953C1487.99 287.967 1483.56 285.149 1479.09 282.456C1465.31 274.17 1450.63 268.657 1434.93 266.392C1417.83 263.922 1401.12 259.67 1384.64 254.212C1377.69 251.908 1370.6 250.071 1363.54 248.136C1350.02 244.425 1336.24 243.464 1322.34 243.667C1308.97 243.864 1295.66 243.216 1282.45 240.716C1277.96 239.868 1273.39 239.495 1268.83 239.153C1261.18 238.58 1253.56 239.032 1246.06 240.861C1242.59 241.709 1239.17 242.87 1235.77 244.04C1228.6 246.51 1221.18 247.618 1213.75 248.633C1208.65 249.33 1203.54 249.922 1198.48 250.812C1192.18 251.922 1186.1 253.962 1180.36 256.936C1171.56 261.489 1162.8 266.119 1154.11 270.877C1146.3 275.147 1138.52 279.482 1130.89 284.08C1125.99 287.031 1121.26 290.339 1116.66 293.796C1109.42 299.231 1101.96 304.292 1094.35 309.107C1089.12 312.418 1084.26 316.248 1079.71 320.561C1077.42 322.732 1074.96 324.702 1072.58 326.765C1072.36 326.957 1072.14 327.148 1071.93 327.35C1071.11 328.135 1070.75 329.062 1071.18 330.215Z" fill="#435F17"/>
</g>
</svg>
