<svg width="1440" height="523" viewBox="0 0 1440 523" fill="none" xmlns="http://www.w3.org/2000/svg">
<path fill-rule="evenodd" clip-rule="evenodd" d="M550.223 55.3528C560.683 53.6366 562.159 64.5607 561.123 73.0926C560.608 77.3217 560.437 82.7346 556.301 84.1211C550.997 85.8967 544.864 84.1375 542.501 78.442C539.559 71.3559 541.35 65.2897 545.19 59.3403C546.606 57.1489 547.638 55.7768 550.223 55.3528Z" fill="#FFFFFE"/>
<path fill-rule="evenodd" clip-rule="evenodd" d="M489.587 44.4452C500.003 44.777 500.931 60.7247 496.868 69.5946C494.403 74.9768 490.912 75.5461 486.552 77.4856C481.07 79.9227 475.139 81.0634 469.99 76.5599C462.079 69.6438 473.306 57.6732 476.881 52.3197C478.636 49.6942 480.273 47.2018 482.888 45.8952C484.924 44.8773 487.412 44.3756 489.587 44.4452Z" fill="#FFFFFE"/>
<path fill-rule="evenodd" clip-rule="evenodd" d="M575.277 148.586C574.584 159.232 563.792 183.41 551.075 170.102C544.319 163.033 548.04 151.037 553.756 144.895C556.163 142.305 557.634 139.171 559.854 136.47C561.207 134.823 563.073 133.132 564.959 132.241C574.626 127.674 575.715 141.871 575.277 148.586Z" fill="#FFFFFE"/>
<path fill-rule="evenodd" clip-rule="evenodd" d="M514.4 98.8585C523.825 101.646 524.898 111.689 520.949 119.971C519.445 123.123 517.32 128.667 514.513 130.748C510.811 133.49 504.41 131.756 500.881 129.538C494.445 125.493 494.66 118.429 496.881 111.611C498.598 106.342 501.562 100.614 506.862 98.7868C509.327 97.9369 511.93 98.1273 514.4 98.8585Z" fill="#FFFFFE"/>
<path fill-rule="evenodd" clip-rule="evenodd" d="M434.501 160.12C432.229 170.063 425.603 176.92 415.694 174.286C412.997 173.568 406.444 171.784 404.831 168.931C403.341 166.293 404.086 161.222 404.744 158.281C406.081 152.307 410.236 148.846 413.803 144.408C417.752 139.493 422.393 137.785 428.598 141.441C434.808 145.1 436.05 153.346 434.501 160.12Z" fill="#FFFFFE"/>
<path fill-rule="evenodd" clip-rule="evenodd" d="M630.832 40.3389C632.913 46.8127 629.651 54.4107 626.654 59.9403C623.438 65.8714 616.453 64.7183 610.653 63.895C608.061 58.9471 610.317 48.5719 612.942 43.9086C614.264 41.5575 616.286 40.0747 618.429 38.6493C622.659 35.8354 628.724 33.7751 630.832 40.3389Z" fill="#FFFFFE"/>
<path fill-rule="evenodd" clip-rule="evenodd" d="M481.973 -1.69011C487.153 -3.48416 492.156 -1.89081 494.118 3.80877C495.62 8.16896 495.583 14.5382 491.766 17.4894C488.479 20.031 482.011 21.7124 478.039 22.1589C472.895 22.7405 470.973 19.3019 471.334 14.0774C471.649 9.56365 472.38 4.50919 475.836 1.472C477.578 -0.0537574 479.857 -0.956925 481.973 -1.69011Z" fill="#FFFFFE"/>
<path fill-rule="evenodd" clip-rule="evenodd" d="M408.16 33.2222C416.85 32.8781 419.603 43.4826 419.534 50.9455C419.469 57.8944 413.912 68.8512 406.094 67.1555C394.263 64.5873 393.777 50.0874 398.718 40.7342C400.674 37.0253 403.913 33.3921 408.16 33.2222Z" fill="#FFFFFE"/>
<mask id="mask0_14_546" style="mask-type:alpha" maskUnits="userSpaceOnUse" x="-117" y="258" width="355" height="265">
<path d="M-117 258.949H237.532V522.429H-117V258.949Z" fill="white"/>
</mask>
<g mask="url(#mask0_14_546)">
<path fill-rule="evenodd" clip-rule="evenodd" d="M-88.5302 426.869C-83.5267 433.588 -78.0182 439.853 -72.6326 446.224C-79.5811 439.648 -87.3014 433.258 -95.4211 429.31C-104.065 425.105 -111.305 419.146 -120.412 415.744C-125.995 413.659 -131.721 414.142 -137.433 413.927C-133.764 409.645 -129.927 405.512 -126.11 401.502C-122.067 397.255 -117.657 393.472 -113.454 389.431C-106.897 403.071 -97.4947 414.833 -88.5302 426.869ZM226.2 261.407C216.757 262.984 207.215 263.504 197.774 265.187C178.661 268.599 159.397 271.62 140.389 275.679C131.684 277.539 122.983 279.697 114.231 281.295C104.132 283.14 93.9754 283.12 83.9338 285.481C64.5245 290.044 45.601 296.489 26.929 303.731C12.5443 309.309 -1.98047 315.279 -15.96 321.952C-31.2163 329.234 -45.119 338.946 -60.1584 346.685C-67.1357 350.274 -74.543 352.655 -81.647 355.906C-94.0329 361.572 -106.062 369.447 -117.063 377.7C-133.677 390.164 -147.532 405.989 -161.093 421.976L-161.302 449.528C-159.388 444.887 -156.201 440.904 -153.534 436.738C-151.126 432.976 -148.926 429.064 -146.389 425.396C-145.245 423.743 -144.018 422.14 -142.788 420.538C-138.629 425.206 -133.487 428.765 -128.441 433.199C-118.976 441.516 -110.679 451.168 -101.934 460.29C-98.2877 464.095 -94.223 467.397 -89.9798 470.405C-82.2633 475.873 -74.7753 482.179 -66.2025 485.999C-57.2784 489.976 -48.6998 494.703 -39.8352 498.801C-37.6925 499.794 -35.4691 500.875 -33.2093 501.936C-29.9856 505.285 -26.5622 508.406 -22.8259 511.205C-19.2605 513.876 -15.5357 516.405 -11.7609 518.726C-9.57405 520.071 -6.57309 522.404 -3.89085 522.429C1.1837 522.476 -0.690216 518.232 -2.39517 514.935C-5.80318 508.348 -8.48926 501.291 -12.072 494.787C-17.6937 484.585 -24.5558 475.947 -31.5677 466.874C-39.2093 456.987 -45.624 446.003 -52.6339 435.608C-57.0153 429.111 -62.4835 423.412 -67.1357 417.094C-70.2557 412.856 -73.295 408.431 -77.3174 405.125C-80.5622 402.459 -83.135 399.188 -86.2704 396.38C-89.3481 393.626 -92.8368 392.923 -96.3158 390.969C-99.9542 388.923 -103.921 386.806 -107.204 384.158C-107.329 384.057 -107.429 383.975 -107.55 383.877C-105.031 381.96 -102.291 380.533 -99.6009 378.604C-96.5078 376.383 -93.4262 374.067 -90.3753 371.704C-90.2256 373.629 -90.0125 375.74 -89.1561 377.133C-87.5261 379.783 -82.9027 381.95 -80.6217 383.867C-70.1328 392.681 -60.383 402.534 -49.9881 411.498C-41.1715 419.103 -32.4835 426.818 -23.1984 433.777C-14.9059 439.992 -5.72446 442.782 3.2381 447.582C10.0407 451.228 16.0733 455.778 23.1197 458.996C28.4189 461.418 33.7085 463.872 38.9808 466.36C44.2589 468.853 49.6099 471.081 54.9783 473.336C57.3283 474.323 60.9322 476.705 63.144 476.768C63.1171 474.251 59.9453 472.246 58.4612 470.731C52.1348 464.267 45.9677 457.808 38.9213 452.237C31.8115 446.618 25.2413 440.574 19.3699 433.476C14.8925 428.063 10.9911 422.418 5.5229 418.071C-2.46622 411.718 -8.94237 404.189 -16.0809 396.968C-18.6998 394.32 -21.5318 391.993 -24.0374 389.222C-26.4893 386.511 -28.3805 385.999 -31.4313 384.477C-34.4515 382.968 -37.0416 381.153 -40.3267 380.174C-43.5658 379.21 -46.248 377.28 -49.5158 376.49C-53.327 375.568 -57.2169 375.599 -60.9974 374.485C-64.5974 373.424 -67.7885 372.732 -71.4921 372.296C-76.6089 371.696 -81.0979 369.77 -85.7904 368.097C-83.8089 366.516 -81.8409 364.927 -79.9037 363.327C-77.5497 361.384 -75.2381 360.442 -72.7517 358.955C-66.744 355.363 -61.4697 351.627 -54.9878 348.924C-50.6889 347.13 -46.3862 345.348 -42.0893 343.548C-39.0345 351.922 -36.1296 360.382 -32.9232 368.687C-30.2333 375.65 -25.9037 380.656 -21.8928 386.705C-17.8454 392.815 -13.8518 399.196 -8.74654 404.423C-2.35678 410.96 5.01219 416.246 12.1872 421.689C21.7738 428.964 30.312 437.639 41.1389 442.819C53.1274 448.553 64.8336 451.676 77.6343 454.525C81.1728 455.311 89.9683 459.682 92.977 455.989C92.5699 454.617 91.4794 454.75 90.5904 453.843C88.6896 451.912 87.025 449.673 85.2567 447.564C81.0211 442.515 76.4304 437.916 71.6323 433.478C60.0605 422.777 48.4003 412.226 37.0051 401.308C22.0061 386.939 9.61633 368.777 -7.5619 357.302C-14.1571 352.895 -20.5277 347.736 -27.2957 343.693C-29.5689 342.335 -31.4986 341.213 -33.4512 340.675C-32.3721 340.679 -31.2547 340.937 -29.9357 341.576C-23.0083 344.926 -16.8432 348.807 -10.4937 353.055C-7.21439 355.248 -3.50877 355.148 -0.233261 357.65C1.87299 359.26 3.54338 361.767 5.62274 363.184C8.36259 365.052 11.3021 366.135 13.9901 368.273C16.3959 370.188 18.8976 372.912 21.3418 374.481C26.3376 377.684 30.8247 381.125 36.3811 383.048C40.4784 384.465 45.3591 387.187 49.0819 389.378C52.3997 391.33 56.3069 392.159 59.7245 394.05C62.7274 395.71 64.5667 397.054 67.9171 397.916C71.1984 398.76 74.0707 400.333 77.2867 401.363C80.0419 402.244 82.9987 402.575 85.8288 403.085C89.7859 403.802 93.1037 405.596 96.9437 406.426C109.408 409.117 123.008 409.833 135.72 409.59C138.807 409.53 144.435 410.755 147.223 409.018C148.212 408.402 148.263 406.968 149.448 406.305C147.472 404.615 144.364 403.841 142.15 402.549C137.475 399.819 132.848 396.892 128.345 393.855C115.658 385.294 102.193 377.686 88.7722 370.516C79.1414 365.369 68.7735 362.312 58.7434 358.205C47.7207 353.694 38.0343 346.986 27.5165 341.389C19.7405 337.25 11.5594 334.756 3.61633 331.119C2.59489 330.652 1.24513 329.728 -0.148773 329.122C4.24034 328.856 8.43745 327.756 13.0531 328.813C17.9165 329.929 21.8007 330.193 26.7197 330.258C32.4509 330.334 37.4967 333.103 42.6384 335.499C52.7165 340.197 62.4797 344.113 73.0647 347.294C79.7059 349.288 86.0036 351.664 92.9616 351.943C99.4224 352.201 104.455 352.405 110.722 354.019C122.077 356.946 132.771 354.298 144.291 354.769C157.992 355.33 170.704 356.442 184.294 353.642C192.02 352.051 200.029 350.937 207.685 349.116C209.189 348.758 215.611 347.285 216.143 345.383C211.971 340.865 205.195 339.814 199.671 338.708C191.269 337.029 183.161 334.821 174.89 332.61C168.016 330.77 161.615 328.597 154.993 325.968C147.111 322.841 138.55 321.948 130.434 319.717C119.17 316.623 109.251 317.389 97.6234 318.21C86.7581 318.976 75.7277 317.27 64.8432 317.102C53.6765 316.93 42.7306 315.197 31.5965 314.364C28.2519 314.114 24.8131 313.526 21.5933 314.35C24.5539 313.377 27.6682 312.908 30.6941 312.156C38.5584 310.198 46.6704 310.018 54.4963 307.796C59.2291 306.45 63.9293 304.595 68.8311 304.12C71.9568 303.819 75.0979 304.179 78.2141 303.653C84.17 302.643 88.4227 300.837 94.6071 301.726C102.32 302.838 110.388 302.07 118.217 302.498C126.028 302.924 133.345 301.451 141.019 300.507C146.309 299.858 151.153 299.473 156.343 297.941C159.593 296.98 162.777 297.523 166.112 297.347C173.133 296.974 179.168 291.604 185.197 288.588C187.754 287.308 190.597 286.699 193.159 285.438C196.108 283.988 198.32 281.414 200.858 279.314C205.589 275.403 211.124 274.211 216.377 271.428C219.133 269.969 221.6 268.034 224.445 266.74C226.471 265.818 228.777 265.312 230.75 264.253C232.196 263.479 237.645 260.475 237.532 258.949C233.79 259.258 229.925 260.786 226.2 261.407Z" fill="#B5FF3F"/>
</g>
<mask id="mask1_14_546" style="mask-type:alpha" maskUnits="userSpaceOnUse" x="479" y="-8" width="790" height="219">
<path d="M479.663 -8H1268.27V210.162H479.663V-8Z" fill="white"/>
</mask>
<g mask="url(#mask1_14_546)">
<path fill-rule="evenodd" clip-rule="evenodd" d="M1278.86 -31.04L479.663 -24.896C483.612 -23.5423 487.264 -19.774 491.359 -18.1048C499.957 -14.5966 507.647 -8.28059 515.951 -3.99003C521.162 -1.29486 526.409 1.34911 531.643 3.98693C536.005 6.18444 542.637 7.30264 544.232 12.9551C545.586 17.7495 543.436 23.0681 546.166 27.6454C548.142 30.955 551.774 31.8459 554.954 33.2979C557.104 34.2789 559.13 35.4032 561.027 36.8737C571.539 45.0227 580.113 56.1474 590.282 64.8433C595.429 69.2424 600.876 72.7014 606.348 76.5496C610.795 79.679 614.652 83.5906 619.153 86.6524C622.507 88.9339 626.005 91.1252 629.446 93.2633C633.768 95.9503 635.079 98.7663 637.942 103.206C642.93 110.94 648.314 117.426 655.759 122.361C661.823 126.38 669.13 131.309 676.167 133.001C681.754 134.342 686.065 134.868 691.235 137.799C698.094 141.69 703.145 145.295 711.107 145.674C716.9 145.95 723.021 146.21 728.531 144.099C734.708 141.733 739.345 140.013 746.034 141.967C748.751 142.761 750.631 143.953 753.155 145.53C757.468 148.226 761.711 149.905 766.229 152.117C775.043 156.43 784.098 159.84 793.018 163.952C804.834 169.4 816.421 175.31 828.149 180.93C833.49 183.492 838.739 185.792 843.96 188.657C846.273 189.927 848.606 190.652 851.033 191.559C857.181 193.859 862.457 197.599 868.158 200.847C872.326 203.223 875.377 208.361 879.973 209.79C883.015 210.737 883.917 209.692 886.159 208.711C898.129 203.476 909.211 195.932 921.735 191.991C934.459 187.989 947.127 183.683 959.755 179.398C969.676 176.031 979.101 169.951 988.373 165.195C992.228 163.219 995.394 162.043 999.578 160.917C1003.26 159.924 1005.43 159.594 1008.06 156.125C1016.17 145.446 1022.68 132.798 1032.86 124.069C1039.2 118.628 1043.71 118.652 1050.14 113.338C1053.75 110.358 1059.24 107.442 1063.14 109.5C1068.77 112.47 1072.96 111.527 1078.94 113.338C1085.34 115.275 1092.78 116.768 1099.47 116.561C1107.44 116.316 1114.43 112.629 1122.04 110.618C1128.55 108.9 1135.97 106.926 1142.11 104.007C1152.58 99.0264 1161.12 91.0392 1170.75 84.5757C1175.36 81.4832 1179.84 78.7103 1184.29 75.2553C1190.78 70.2172 1197.8 66.324 1204.3 61.3576C1207.05 59.2563 1211.06 56.4198 1212.66 53.5137C1214.8 49.5979 1214.82 45.2459 1217.86 41.6087C1223.83 34.4448 1230.68 29.3453 1238.2 24.2867C1246.67 18.5871 1254.91 11.7878 1263.05 5.53112C1266.7 2.71922 1270.35 -1.06343 1273.72 -4.25012C1276.6 -6.97191 1277.06 -8.85607 1277.8 -12.6019C1278.7 -17.173 1280.22 -25.3732 1285.94 -25.193C1285.95 -28.1851 1280.85 -29.7887 1278.86 -31.04Z" fill="#B5FF3F"/>
</g>
<mask id="mask2_14_546" style="mask-type:alpha" maskUnits="userSpaceOnUse" x="0" y="-8" width="919" height="228">
<path d="M0.142883 -8H918.963V219.271H0.142883V-8Z" fill="white"/>
</mask>
<g mask="url(#mask2_14_546)">
<path fill-rule="evenodd" clip-rule="evenodd" d="M913.103 -27.968L15.9829 -47.936C16.6606 -44.1574 15.1841 -41.665 11.5573 -40.4649C8.76173 -39.1439 5.96813 -37.823 3.17453 -36.5041C-7.94995 -30.9642 -18.581 -23.743 -29.2677 -17.2938C-32.1343 -15.5633 -45.0251 -10.1893 -43.8923 -5.01606C-43.1397 -1.58157 -40.3999 0.314877 -38.7371 1.216C-33.7663 3.90912 -31.8424 4.46822 -30.005 9.42029C-28.8875 12.4268 -28.9163 15.7404 -27.5819 18.7325C-25.685 22.9821 -24.389 25.3783 -24.2565 30.4061C-24.1739 33.6154 -24.0933 36.9475 -24.3947 40.1423C-24.821 44.6705 -26.4472 48.6231 -27.2575 53.1205C-29.0527 63.0676 -29.717 73.5268 -30.0683 83.6337C-30.3141 90.6501 -30.2853 97.4024 -32.3205 104.112C-33.6587 108.517 -35.4463 112.654 -36.4619 117.161C-38.7083 127.123 -36.2335 134.332 -31.6639 142.61C-25.4469 153.868 -22.1887 166.674 -15.6914 177.782C-14.069 180.555 -12.2277 186.013 -10.2712 188.266C-7.96915 190.914 -4.16371 189.601 -1.29715 189.319V219.271C-0.738426 218.632 -0.124027 218.03 0.739975 217.13C10.2997 207.181 19.1182 196.317 30.4501 188.555C37.5118 183.719 46.6587 183.853 54.8533 184C62.395 184.135 69.9099 180.848 76.7412 177.514C82.0846 174.907 85.0203 173.559 90.8629 173.297C93.0363 173.201 94.5569 172.486 96.5902 172.048C100.361 171.237 104.197 171.802 108.008 171.016C113.438 169.895 118.338 167.297 123.555 165.488C129.578 163.401 136.348 162.488 142.686 162.461C146.977 162.441 151.366 162.279 155.657 162.461C159.827 162.637 163.518 164.089 167.778 164.046C170.366 164.022 173.292 164.597 175.786 163.801C179.588 162.584 184.319 157.714 187.241 154.925C198.74 143.947 211.32 133.91 223.692 124.096C230.504 118.691 234.078 110.256 240.629 104.425C244.428 101.044 248.218 97.6215 251.168 93.3105C252.364 91.5594 254.535 86.7691 257.617 88.9646C259.598 90.3777 258.849 93.6853 261.455 94.8506C263.306 95.678 267.382 95.166 269.321 94.6806C274.373 93.4108 278.236 89.536 282.713 87.148C284.961 85.9479 287.396 85.5444 289.746 84.6679C295.03 82.6998 299.603 79.5581 305.169 78.3212C310.357 77.1702 314.894 74.7884 319.957 73.3322C324.35 72.0707 329.158 71.3969 333.566 70.4855C339.33 69.2915 345.305 67.9706 350.95 65.812C355.395 64.1142 359.983 62.5536 364.492 61.4661C366.715 60.9316 368.875 61.4866 370.997 60.4093C375.939 57.8985 380.284 55.3897 386.057 54.9412C390.552 54.591 395.233 54.976 399.743 54.976C401.901 54.976 404.061 54.9371 406.217 54.9699C409.034 55.0129 410.708 54.1322 413.208 53.4789C421.692 51.2589 431.375 49.4075 437.857 42.7617C440.568 39.9805 442.975 36.7283 445.909 34.2257C449.569 31.1004 454.192 28.5547 458.128 25.7121C460.34 24.1147 461.77 22.3964 463.783 20.7621C465.743 19.1708 467.498 18.9332 469.55 18.155C474.487 16.2852 477.841 16.1644 482.476 18.454C488.798 21.5752 494.514 21.1328 501.342 21.184C507.622 21.2311 512.389 18.0567 518.543 18.1181C521.256 18.1448 524.441 17.5119 527.075 18.3434C530.973 19.5743 536.796 23.7297 540.287 25.9456C547.863 30.7543 554.885 36.8737 561.954 42.4566C566.38 45.9525 570.241 49.7618 575.582 51.6767C581.805 53.909 589.579 56.809 596.167 54.7384C601.462 53.0734 606.145 48.1889 611.056 45.6453C615.528 43.329 620.462 42.5979 625.178 41.152C628.747 40.0563 632.401 39.1654 635.29 36.585C638.226 33.9635 639.81 32.0138 643.404 30.3693C648.204 28.1759 653.108 28.7636 658.367 28.8292C662.733 28.8824 665.749 31.1885 669.879 31.8746C673.533 32.4808 675.286 30.2976 678.377 29.1692C682.29 27.7437 684.306 29.9023 687.822 31.252C690.306 32.2063 693.303 32.4152 695.922 33.0993C697.454 33.5007 699.019 33.3164 700.534 33.6686C705.919 34.922 710.239 39.1388 715.051 41.7766C722.376 45.7907 731.361 47.9985 737.233 54.591C738.769 56.3133 739.546 58.4474 740.969 60.2209C743.081 62.8547 746.234 64.9231 748.881 66.9179C754.284 70.9852 760.088 71.6795 766.44 72.6666C773.446 73.7562 777.983 73.877 783.464 69.2854C790.895 63.0595 797.757 54.8163 803.978 47.3349C806.401 44.4227 808.405 41.365 810.467 38.1599C811.379 36.7447 812.109 35.1903 813.029 33.7772C814.346 31.7517 816.056 31.1864 817.255 29.4886C818.537 27.67 818.6 24.3277 820.874 22.9883C822.815 21.8435 827.442 22.7159 829.589 22.72C833.025 22.7261 836.668 23.2259 840.053 22.4886C844.972 21.4154 845.836 17.5857 849.714 15.425C854.451 12.7872 859.289 10.8232 863.87 7.75936C870.894 3.06534 875.479 -4.13338 882.849 -8.49562C889.913 -12.6735 898.207 -14.4328 905.742 -17.3553C908.395 -18.3854 909.854 -19.9603 912.076 -21.5127C913.867 -22.764 918.333 -22.9811 918.963 -24.3246C917.012 -25.5411 915.057 -26.7556 913.103 -27.968Z" fill="#FFFFFE"/>
</g>
<mask id="mask3_14_546" style="mask-type:alpha" maskUnits="userSpaceOnUse" x="768" y="-8" width="673" height="298">
<path d="M768.183 -8H1440.14V289.509H768.183V-8Z" fill="white"/>
</mask>
<g mask="url(#mask3_14_546)">
<path fill-rule="evenodd" clip-rule="evenodd" d="M1479.02 -31.04L768.183 -17.5007C773.96 -15.7353 779.519 -12.6121 784.805 -9.98655C795.315 -4.77029 805.982 0.085516 816.437 5.43284C820.069 7.29038 822.895 9.28104 826.184 11.6158C834.099 17.2314 843.002 18.5155 852.321 19.5845C861.877 20.6782 872.921 19.5559 881.646 24.5612C885.833 26.9635 889.302 30.3038 892.906 33.472C896.518 36.6464 900.588 39.0958 904.676 41.4981C907.829 43.3536 911.371 44.5783 914.408 46.6017C919.105 49.7311 922.146 54.3903 927.482 56.7107C934.943 59.9588 942.869 60.8702 949.427 66.281C957.24 72.7219 963.651 80.9262 971.473 87.2853C979.61 93.9003 988.739 96.2739 998.391 99.2087C1002.73 100.526 1006.27 101.769 1010.09 104.159C1011.89 105.285 1013.45 106.719 1015.38 107.651C1017.31 108.584 1020.2 109.455 1022.19 109.926C1024.58 110.489 1026.93 110.465 1029.37 110.452C1043.45 110.385 1057.46 107.808 1071.4 106C1087.63 103.895 1104.43 101.14 1120.79 101.103C1126.07 101.091 1129.56 104.257 1135 104.159C1147.4 103.931 1159.85 104.071 1172.13 106.047C1174.58 106.44 1176.78 106.942 1179.24 107.169C1183.04 107.522 1183.95 108.509 1187.13 110.321C1191.63 112.896 1196.4 113.756 1200.97 115.9C1206.4 118.452 1211.23 123.852 1215.97 127.707C1221.8 132.454 1227.74 137 1232.9 142.604C1235.76 145.709 1238.27 148.819 1241.59 151.461C1246.88 155.674 1252.96 158.38 1259.01 161.028C1261.6 162.162 1264.09 162.961 1265.89 165.527C1267.54 167.899 1267.05 169.322 1267.48 171.9C1268.08 175.542 1270.05 177.491 1271.74 180.582C1276 188.379 1274.56 198.361 1279.68 205.457C1282.58 209.469 1285.88 209.756 1290.07 211.257C1292.7 212.199 1294.2 213.125 1297.15 213.264C1300.16 213.403 1303.34 212.527 1306.29 213.411C1308.43 214.052 1309.08 215.416 1310.87 216.299C1313.67 217.679 1316.35 218.314 1319.39 218.902C1323.82 219.756 1329.21 220.391 1333.25 222.736C1335.66 224.141 1336.45 225.335 1339.54 225.511C1342.33 225.673 1345.04 225.085 1347.81 225.814C1350.15 226.426 1350.71 227.264 1353.31 227.117C1358.79 226.811 1363.66 223.952 1369.29 223.901C1373.22 223.864 1377.16 223.952 1381.1 223.938C1382.44 223.934 1386.04 223.111 1387.07 223.827C1388.88 225.089 1387.91 224.475 1388.34 226.904C1388.71 229.029 1388.02 231.151 1388.52 233.349C1389.42 237.295 1391.28 241.295 1392.59 245.098C1393.47 247.631 1394.42 250.548 1395.79 252.882C1397.78 256.274 1401.35 258.14 1403.24 261.462C1404.63 263.905 1404.66 265.291 1406.79 267.175C1415.75 275.101 1427.18 277.155 1438.36 279.189C1445.42 280.473 1452.46 281.886 1459.46 283.498C1462.53 284.203 1470.9 284.633 1471.94 289.509C1471.62 285.45 1471.66 281.405 1472.06 277.352C1473.9 258.318 1475.98 239.724 1476.2 220.506C1476.33 208.31 1476.64 195.985 1476.32 183.791C1476.02 172.713 1474.34 162.048 1472.67 151.126C1469.62 131.225 1470.42 111.706 1471.5 91.7008C1472.33 76.5005 1471.93 61.4559 1470.38 46.3294C1469.24 35.1268 1467.26 22.4743 1469.79 11.2635C1472.09 1.09108 1476.33 -8.37887 1479.05 -18.4141C1480.13 -22.4056 1482.28 -26.8641 1483.08 -31.2223C1481.76 -30.8147 1480.4 -30.7492 1479.02 -31.04Z" fill="#435F17"/>
</g>
<mask id="mask4_14_546" style="mask-type:alpha" maskUnits="userSpaceOnUse" x="1024" y="-8" width="165" height="251">
<path d="M1024.42 -8H1188.4V242.847H1024.42V-8Z" fill="white"/>
</mask>
<g mask="url(#mask4_14_546)">
<path fill-rule="evenodd" clip-rule="evenodd" d="M1034.54 241C1034.17 241.51 1033.84 242.049 1033.61 242.647C1033.97 242.198 1034.27 241.62 1034.54 241Z" fill="#FFFFFE"/>
<path fill-rule="evenodd" clip-rule="evenodd" d="M1187.82 56.9216C1187.14 51.9695 1185.62 47.3185 1184.21 42.602C1183.92 41.6108 1183.74 40.5335 1183.43 39.5402C1183.02 38.1947 1182.39 36.6751 1181.69 35.4668C1180.99 34.2482 1180.63 32.8125 1179.9 31.6186C1179.26 30.5475 1178.48 29.505 1177.75 28.4892C1176.56 26.8324 1175.52 25.8493 1173.86 24.7352C1171.84 23.3774 1170.14 22.2162 1167.85 21.3765C1165.61 20.5553 1163.39 19.6152 1161.19 18.6998C1159.6 18.0383 1157.85 17.3993 1156.49 16.2872C1155.68 15.6257 1156.12 15.2284 1156.59 14.3007C1157.83 11.7898 1158.07 8.8448 1159.02 6.19674C1159.7 4.32896 1160.24 2.36288 1160.82 0.454144C1161.83 -2.90458 1163.7 -5.82707 1164.77 -9.15507C1165.31 -10.8488 1165.62 -12.5978 1166.29 -14.2484C1167.05 -16.1388 1167.72 -18.0557 1168.43 -19.9665C1168.75 -20.841 1168.99 -21.7605 1169.37 -22.6043C1169.53 -22.9647 1169.83 -23.2658 1169.82 -23.6856C1168.94 -23.9744 1167.03 -23.9601 1166.04 -23.7655C1164.62 -23.4849 1164.52 -21.6008 1164.26 -20.2675C1163.23 -15.0676 1162.66 -10.0992 1160.32 -5.30688C1158.98 -2.57075 1157.42 0.0343056 1156.1 2.77658C1154.14 6.82138 1152.37 10.9051 1149.75 14.5608C1147.18 18.1427 1144.09 21.5506 1140.96 24.6001C1139.64 25.8965 1138.2 27.4017 1136.47 27.8892C1133.21 28.8046 1129.93 30.4061 1126.51 31.1393C1122.67 31.9626 1119.02 33.8959 1115.09 34.0577C1112.87 34.1478 1110.58 33.9881 1108.34 33.984C1103.07 33.9738 1097.8 34.0454 1092.53 33.9901C1089.83 33.9635 1087.16 33.6788 1084.5 34.3424C1079.43 35.6081 1074.14 38.2275 1069.31 40.3041C1060.2 44.222 1051.47 49.2559 1042.52 53.5649C1045.4 52.8829 1048.57 54.2285 1051.45 54.464C1059.8 55.1439 1068.04 55.5187 1076.41 55.4839C1085.61 55.447 1094.96 55.4061 1103.91 52.8461C1112.06 50.5196 1118.01 44.3325 1124.92 39.3887C1129.04 36.4396 1133.13 34.3629 1137.49 31.9688C1139.86 30.6642 1141.72 28.354 1143.83 26.8774C1142.76 28.5281 1142.06 30.1338 1141.16 31.8254C1139.37 35.1759 1136.9 38.1701 1134.43 40.9697C1133.46 42.0756 1132.46 43.1775 1131.53 44.3223C1130.32 45.7866 1129.58 47.593 1128.43 49.1023C1127.03 50.9414 1125.77 52.8358 1124.25 54.5766C1123.4 55.5597 1122.54 56.6206 1121.8 57.6957C1121.39 58.2897 1121.2 59.0106 1120.79 59.6045C1120.3 60.3028 1119.81 60.7084 1119.42 61.4825C1118.8 62.7236 1117.99 63.7107 1117.3 64.8924C1116.63 66.0352 1116 67.393 1115.13 68.3822C1114.42 69.1789 1113.47 69.5762 1112.63 70.1845C1110.98 71.3887 1109.29 72.5356 1107.54 73.5616C1104.41 75.3946 1102.98 79.2551 1100.03 81.342C1096.3 83.9818 1091.56 85.2147 1087.59 87.3897C1082.42 90.22 1077.54 93.6504 1072.38 96.5238C1067.28 99.3664 1061.54 100.343 1056.62 103.591C1053.78 105.465 1051.08 107.655 1048.39 109.756C1045.18 112.257 1041.57 114.345 1038.52 117.059C1034.93 120.262 1032.68 125.179 1029.84 129.085C1028.08 131.489 1025.96 133.767 1024.42 136.327C1027.48 135.041 1031.33 134.07 1034.64 133.535C1038.14 132.972 1041.04 132.694 1044.44 131.54C1048.18 130.273 1052.18 129.755 1055.85 128.241C1061.21 126.029 1066.14 122.925 1071.13 119.975C1075.54 117.37 1080.45 116.432 1084.45 112.832C1086.71 110.8 1088.36 108.236 1090.32 105.936C1092.92 102.879 1096.33 100.329 1098.83 97.2242C1100.8 94.783 1102.13 90.8447 1103.78 88.1004C1105.63 85.0447 1107.28 81.9441 1109.32 79.0236C1110.2 77.7702 1111.33 75.7509 1112.7 74.3808C1110.97 78.9458 1109.57 83.648 1108.56 88.3482C1104.04 95.979 1099.77 103.976 1096.15 112.072C1092.47 120.313 1087.33 127.791 1082.97 135.645C1079.68 141.555 1075.52 146.284 1071.24 151.242C1068.24 154.72 1066.14 158.791 1063.77 162.785C1060.37 168.499 1056.32 173.711 1052.89 179.406C1047.34 188.649 1044.77 199.499 1041.94 209.948C1040.11 216.705 1038.29 223.461 1036.8 230.311C1036.22 232.966 1035.9 237.86 1034.54 241C1035.46 239.736 1036.7 238.694 1037.81 237.703C1042.81 233.238 1048.07 229.214 1052.7 224.27C1060.41 216.031 1068.26 207.548 1072.9 196.898C1076.57 188.495 1078.16 179.404 1079.56 170.326C1080.41 164.845 1081.13 159.254 1082.66 153.923C1083.73 150.19 1085.54 146.878 1087.05 143.353C1089.01 138.78 1092.13 134.922 1093.98 130.32C1095.4 126.814 1096.27 122.763 1096.87 119.025C1097.37 115.902 1097.41 113.793 1099.03 111.011C1100.05 109.26 1100.49 107.413 1101.39 105.611C1103.07 102.268 1105.79 99.9398 1107.47 96.7532C1107.9 97.9779 1107.52 99.1432 1107.62 100.421C1107.78 102.586 1108.44 104.673 1108.63 106.858C1109.47 116.723 1111.74 126.322 1112.87 136.136C1114.16 147.353 1116.5 158.31 1119.91 169.048C1121.25 173.277 1122.84 177.403 1124.32 181.579C1125.21 183.572 1125.76 185.659 1125.97 187.844C1125.82 188.831 1126.02 189.691 1126.58 190.425C1128.52 188.657 1129.14 184.975 1129.75 182.577C1131.02 177.59 1132.48 172.617 1133.39 167.538C1134.55 161.142 1135.48 154.845 1135.5 148.34C1135.51 143.663 1134.61 140.666 1132.86 136.415C1131.25 132.491 1128.87 129.216 1127.08 125.37C1124.72 120.295 1124.79 114.827 1123.07 109.555C1122.27 107.542 1121.6 105.482 1121.05 103.372C1120.61 101.163 1120.25 98.9404 1119.98 96.702C1119.02 94.6212 1116.61 93.632 1115.3 91.6127C1113.9 89.45 1112.21 86.9268 1112.4 84.2665C1112.55 82.2144 1113.46 80.0763 1114.08 78.0201C1115.88 73.406 1117.82 68.8676 1120.31 64.5545C1122.52 60.735 1125.08 57.1346 1128 53.9049C1129.75 57.9108 1133.08 61.6648 1135.59 65.2549C1139.47 70.8091 1142.04 77.0289 1145.08 83.1094C1147.59 88.1434 1150.43 93.2163 1152.06 98.5697C1152.68 100.603 1154.06 101.924 1155.15 103.655C1156.75 106.188 1158.28 108.847 1159.55 111.583C1160.84 114.35 1162.49 117.264 1163.18 120.287C1163.71 122.607 1163.32 124.559 1164.18 126.894C1165.55 130.57 1168.06 133.253 1168.94 137.201C1169.46 139.534 1169.53 142.397 1170.76 144.474C1173.62 140.847 1173.55 133.228 1173.95 128.677C1174.6 121.159 1175.19 113.637 1174.87 106.082C1174.6 99.6081 1172.19 92.1411 1169.24 86.3862C1166.2 80.4449 1160.37 75.8369 1156.6 70.3974C1153.39 65.7751 1149.04 62.2751 1145.73 57.7388C1143.71 54.9576 1143.13 53.0386 1143.17 49.5365C1143.24 43.7427 1142.82 38.3483 1144.45 32.7163C1145.62 28.6838 1148.03 25.1776 1149.33 21.2045C1149.71 20.0658 1149.8 18.4909 1150.76 17.7659C1152.61 19.0131 1155.48 23.4245 1156.5 24.7045C1162.73 32.5115 1168.24 41.41 1173.58 49.8929C1180.52 60.8988 1185.93 72.0133 1187.39 85.3233C1186.86 82.1182 1188.01 75.9352 1188.15 73.5493C1188.48 67.9419 1188.59 62.5004 1187.82 56.9216Z" fill="#FFFFFE"/>
</g>
<path fill-rule="evenodd" clip-rule="evenodd" d="M1335.51 302.63C1336.61 308.174 1336.41 314.155 1334.79 318.251C1330.34 329.508 1316.94 332.138 1309.64 322.521C1306.07 317.827 1303.32 311.67 1305.14 305.471C1305.98 302.598 1308.42 298.975 1310.28 296.759C1314 292.319 1322.87 285.884 1328.54 289.74C1332.07 292.145 1334.43 297.177 1335.51 302.63Z" fill="#B5FF3F"/>
<path fill-rule="evenodd" clip-rule="evenodd" d="M1309.2 366.235C1319.66 364.519 1321.14 375.443 1320.1 383.975C1319.59 388.204 1319.42 393.617 1315.28 395.003C1309.98 396.779 1303.84 395.02 1301.48 389.324C1298.54 382.238 1300.33 376.172 1304.17 370.223C1305.58 368.031 1306.62 366.659 1309.2 366.235Z" fill="#B5FF3F"/>
<path fill-rule="evenodd" clip-rule="evenodd" d="M1257.09 241.412C1267.55 239.695 1269.03 250.619 1267.99 259.151C1267.48 263.381 1267.3 268.793 1263.17 270.178C1257.86 271.955 1251.73 270.194 1249.37 264.501C1246.42 257.415 1248.22 251.346 1252.06 245.399C1253.47 243.206 1254.51 241.836 1257.09 241.412Z" fill="#B5FF3F"/>
<path fill-rule="evenodd" clip-rule="evenodd" d="M1248.57 355.328C1258.98 355.659 1259.91 371.607 1255.85 380.477C1253.38 385.859 1249.89 386.428 1245.53 388.368C1240.05 390.805 1234.12 391.946 1228.97 387.442C1221.06 380.526 1232.28 368.556 1235.86 363.202C1237.61 360.577 1239.25 358.084 1241.87 356.778C1243.9 355.76 1246.39 355.258 1248.57 355.328Z" fill="#B5FF3F"/>
<path fill-rule="evenodd" clip-rule="evenodd" d="M1334.25 459.468C1333.56 470.114 1322.77 494.292 1310.06 480.985C1303.3 473.915 1307.02 461.92 1312.73 455.778C1315.14 453.187 1316.61 450.054 1318.83 447.352C1320.19 445.706 1322.05 444.014 1323.94 443.123C1333.61 438.556 1334.69 452.753 1334.25 459.468Z" fill="#B5FF3F"/>
<path fill-rule="evenodd" clip-rule="evenodd" d="M1273.38 409.741C1282.8 412.528 1283.88 422.572 1279.93 430.854C1278.42 434.005 1276.3 439.549 1273.49 441.628C1269.79 444.372 1263.39 442.638 1259.86 440.42C1253.42 436.375 1253.64 429.311 1255.86 422.494C1257.58 417.224 1260.54 411.496 1265.84 409.669C1268.31 408.819 1270.91 409.01 1273.38 409.741Z" fill="#B5FF3F"/>
<path fill-rule="evenodd" clip-rule="evenodd" d="M1193.48 471.003C1191.21 480.946 1184.58 487.802 1174.67 485.169C1171.97 484.45 1165.42 482.666 1163.81 479.813C1162.32 477.175 1163.07 472.104 1163.72 469.164C1165.06 463.189 1169.22 459.728 1172.78 455.29C1176.73 450.375 1181.37 448.667 1187.58 452.323C1193.79 455.983 1195.03 464.228 1193.48 471.003Z" fill="#B5FF3F"/>
<path fill-rule="evenodd" clip-rule="evenodd" d="M1389.81 351.221C1391.89 357.695 1388.63 365.293 1385.63 370.823C1382.42 376.754 1375.43 375.601 1369.63 374.775C1367.04 369.829 1369.29 359.454 1371.92 354.791C1373.24 352.44 1375.26 350.957 1377.41 349.532C1381.64 346.718 1387.7 344.657 1389.81 351.221Z" fill="#B5FF3F"/>
<path fill-rule="evenodd" clip-rule="evenodd" d="M1391.17 305.414C1399.66 300.363 1409.32 287.391 1404.45 276.541C1401.09 269.06 1392.82 271.388 1387.55 274.95C1384.76 276.832 1381.38 279.57 1380.2 282.986C1378.25 288.675 1376.21 299.921 1379.39 304.291C1382.57 308.678 1386.99 307.902 1391.17 305.414Z" fill="#B5FF3F"/>
<path fill-rule="evenodd" clip-rule="evenodd" d="M1330.57 196.554C1325.37 201.433 1322.68 207.39 1327.32 213.999C1330.65 218.736 1336.94 223.27 1342.71 221.333C1352.73 217.958 1356.12 197.697 1346.93 191.367C1341.34 187.508 1334.55 192.819 1330.57 196.554Z" fill="#B5FF3F"/>
<path fill-rule="evenodd" clip-rule="evenodd" d="M1240.95 309.192C1246.13 307.398 1251.14 308.991 1253.1 314.691C1254.6 319.051 1254.56 325.421 1250.74 328.372C1247.46 330.913 1240.99 332.593 1237.02 333.041C1231.87 333.623 1229.95 330.184 1230.31 324.96C1230.63 320.446 1231.36 315.391 1234.82 312.354C1236.56 310.829 1238.83 309.925 1240.95 309.192Z" fill="#B5FF3F"/>
<path fill-rule="evenodd" clip-rule="evenodd" d="M1167.14 344.104C1175.83 343.76 1178.58 354.365 1178.51 361.828C1178.45 368.777 1172.89 379.734 1165.07 378.038C1153.24 375.47 1152.76 360.97 1157.7 351.617C1159.65 347.908 1162.89 344.274 1167.14 344.104Z" fill="#B5FF3F"/>
<mask id="mask5_14_546" style="mask-type:alpha" maskUnits="userSpaceOnUse" x="1154" y="-8" width="287" height="148">
<path d="M1154.74 -8H1440.14V139.75H1154.74V-8Z" fill="white"/>
</mask>
<g mask="url(#mask5_14_546)">
<path fill-rule="evenodd" clip-rule="evenodd" d="M1477.17 136.724C1474.16 136.271 1471.13 135.915 1468.13 135.374C1464.72 134.76 1461.7 133.431 1458.51 132.067C1452.07 129.314 1445.7 126.408 1439.24 123.742C1433.31 121.298 1426.73 119.132 1421.45 115.277C1416.74 111.839 1413.05 106.924 1409.26 102.438C1405.26 97.7075 1400.93 93.2941 1396.43 89.11C1391.66 84.67 1386.67 80.0927 1381.15 76.7463C1376.29 73.8033 1370.84 71.7164 1366.47 67.9317C1362.69 64.659 1359.24 61.4682 1354.52 59.8523C1349.66 58.1893 1344.3 57.7388 1339.28 56.9462C1332.45 55.871 1325.66 54.5971 1318.85 53.4564C1306.76 51.4289 1294.32 52.3771 1282.34 49.5119C1276.07 48.0108 1270.56 45.2275 1265.26 41.3814C1260.12 37.6499 1255.32 33.3942 1250.17 29.6689C1244.84 25.8084 1239.13 22.5644 1233.88 18.5708C1228.71 14.6447 1224.41 9.65786 1220.04 4.79591C1215.05 -0.750074 1209.7 -5.92332 1204.51 -11.2543C1199.64 -16.2616 1194.49 -20.6628 1188.59 -24.2161C1185.42 -26.1289 1182.14 -27.9455 1178.65 -29.1128C1175.71 -30.0979 1172.75 -30.2577 1169.7 -30.4461C1166.61 -30.6365 1163.44 -30.911 1160.36 -30.3457C1159.19 -30.1286 1158.12 -29.7375 1157.09 -29.0903C1155.83 -28.2957 1154.92 -27.1693 1153.34 -27.5154C1151.09 -28.0069 1150.12 -24.3942 1152.38 -23.8126C1154.55 -23.2576 1156.21 -23.7635 1158.06 -24.9738C1160.54 -26.5938 1163.12 -26.4873 1165.95 -26.3009C1168.66 -26.1207 1171.56 -25.9999 1174.23 -25.4551C1177.69 -24.7485 1180.89 -23.02 1183.92 -21.1584C1194.64 -14.572 1203.07 -4.7703 1211.71 4.52353C1216.4 9.5616 1220.63 15.0912 1225.58 19.8487C1230.16 24.2458 1235.37 27.7478 1240.55 31.2745C1251.37 38.6432 1260.73 49.0245 1272.79 54.1322C1284.29 59.0085 1296.97 58.7484 1309.12 59.7519C1315.68 60.2967 1322.08 61.7303 1328.58 62.7994C1334.83 63.8295 1341.11 64.6815 1347.35 65.7813C1351.47 66.5042 1355.04 67.6511 1358.41 70.3503C1360.56 72.0707 1362.48 74.0716 1364.72 75.667C1367.29 77.4958 1370.08 78.9356 1372.85 80.3978C1383.91 86.2592 1393.48 95.2213 1402.02 104.673C1406.35 109.465 1410.2 114.806 1415.09 118.994C1420.74 123.834 1427.9 126.214 1434.63 128.788C1441.85 131.547 1448.99 134.529 1456.2 137.312C1463.25 140.034 1469.81 140.224 1477.17 139.116C1478.28 138.948 1478.28 136.892 1477.17 136.724Z" fill="#FFFFFE"/>
</g>
<mask id="mask6_14_546" style="mask-type:alpha" maskUnits="userSpaceOnUse" x="0" y="-8" width="520" height="315">
<path d="M0.142883 -8H519.559V306.909H0.142883V-8Z" fill="white"/>
</mask>
<g mask="url(#mask6_14_546)">
<path fill-rule="evenodd" clip-rule="evenodd" d="M516.124 -19.2517C515.824 -17.599 513.618 -16.7265 512.376 -16.0466C510.669 -15.1127 508.931 -14.2669 507.315 -13.1589C502.538 -9.88827 498.078 -6.53774 492.932 -3.9204C490.59 -2.72846 488.23 -1.57339 485.926 -0.301582C483.376 1.10539 480.993 2.85848 478.353 4.06885C473.486 6.30117 468.519 7.71839 463.836 10.4566C453.975 16.2237 445.028 23.7768 434.9 28.9848C430.083 31.4629 425.832 34.3117 421.512 37.6642C417.029 41.1418 412.419 44.1093 407.603 47.0154C398.445 52.5389 390.54 60.1144 381.317 65.5252C371.897 71.0507 362.374 76.2854 353.79 83.2589C350.428 85.9909 347.068 88.9195 344.585 92.608C342.464 95.7578 342.095 99.8374 339.743 102.799C332.268 112.209 322.417 119.488 315.309 129.243C313.779 131.342 312.492 133.611 311.077 135.794C309.566 138.123 307.712 140.085 305.897 142.137C302.264 146.249 299.121 150.753 295.713 155.068C288.433 164.288 280.426 172.865 273.658 182.542C270.717 186.746 268.006 192.155 263.909 195.219C260.796 197.55 256.647 196.997 253.571 199.712C251.83 201.25 250.645 202.801 248.355 203.468C246.358 204.052 244.252 204.304 242.23 204.816C236.72 206.213 231.152 206.639 225.751 208.596C220.732 210.417 215.926 212.828 210.972 214.829C206.226 216.745 201.541 217.853 196.528 218.587C191.859 219.269 188.203 221.745 184.016 223.854C179.002 226.377 173.498 227.616 168.254 229.48C163.088 231.313 158.432 233.691 153.576 236.267C151.04 237.615 148.419 238.63 145.579 238.899C142.812 239.157 140.028 238.931 137.264 239.235C132.083 239.802 127.218 241.604 121.967 241.633C116.52 241.661 111.123 242.479 105.787 243.607C94.6434 245.96 83.8223 248.997 73.2123 253.343C63.2015 257.443 52.9659 260.984 43.0261 265.256C22.6395 274.02 3.95218 286.547 -14.0747 299.833C-18.4446 303.052 -22.78 306.325 -27.1019 309.614C-28.3441 310.56 -27.1768 312.764 -25.8923 311.826C-7.5851 298.438 11.0024 285.439 31.0415 275.161C41.2328 269.932 51.7967 266.328 62.3835 262.201C72.6479 258.199 82.7183 253.542 93.4223 250.992C99.0709 249.647 104.727 248.236 110.443 247.248C116.08 246.274 121.746 246.716 127.36 245.878C129.601 245.544 131.797 244.977 134.013 244.508C137.064 243.859 140.049 243.816 143.148 243.761C148.403 243.668 152.858 242.104 157.495 239.552C167.208 234.201 178.129 232.601 187.875 227.454C190.039 226.312 192.131 224.872 194.476 224.186C196.772 223.514 199.18 223.447 201.522 223.053C206.764 222.177 211.74 220.166 216.636 218.052C221.523 215.943 226.373 213.663 231.501 212.283C234.114 211.578 236.779 211.222 239.436 210.769C242.145 210.311 244.77 209.485 247.475 209.033C249.401 208.713 251.267 208.195 252.982 207.157C255.008 205.93 256.28 203.712 258.444 202.749C260.017 202.049 261.743 201.893 263.359 201.359C265.287 200.722 266.919 199.596 268.403 198.15C272.072 194.572 274.772 189.872 277.708 185.638C281.156 180.668 285.031 176.033 288.89 171.425C292.712 166.862 296.583 162.34 300.248 157.63C303.701 153.192 306.995 148.717 310.732 144.533C314.284 140.556 316.628 135.784 319.965 131.659C323.738 126.998 328.14 122.804 332.253 118.484C336.25 114.286 340.814 110.237 344.234 105.48C346.44 102.41 346.805 98.4243 348.967 95.338C351.57 91.6209 355.281 88.6574 358.782 85.9684C363.416 82.4069 368.293 79.2243 373.264 76.226C378.11 73.3035 383.144 70.7128 387.854 67.5466C392.374 64.5074 396.634 61.0647 400.995 57.7838C405.428 54.4476 410.065 51.6828 414.734 48.7644C419.507 45.7825 423.806 42.092 428.33 38.7149C432.575 35.5425 437.421 33.6051 441.914 30.8977C446.84 27.9281 451.47 24.3441 456.26 21.1287C461.047 17.9133 465.952 14.3887 471.182 12.0479C473.576 10.9788 476.076 10.2067 478.488 9.1868C481.153 8.0604 483.52 6.54284 485.997 5.02322C490.664 2.15807 495.695 0.0260983 500.36 -2.83905C504.606 -5.44821 508.286 -8.94414 512.652 -11.3362C515.369 -12.8251 518.885 -14.7359 519.522 -18.2523C519.95 -20.6157 516.554 -21.6295 516.124 -19.2517Z" fill="#B5FF3F"/>
</g>
</svg>
