<svg width="90" height="90" viewBox="0 0 90 90" fill="none" xmlns="http://www.w3.org/2000/svg">
<path fill-rule="evenodd" clip-rule="evenodd" d="M49.2684 43.9896L45 41.2556L40.7316 43.9896V48.7444H49.2684L49.2684 43.9896ZM45 43.9275L42.9816 45.2204V46.4944H47.0184V45.2204L45 43.9275Z" fill="white"/>
<path fill-rule="evenodd" clip-rule="evenodd" d="M44.9999 34.171L55.4355 41.505L55.4355 54.2597H34.5642V41.505L44.9999 34.171ZM37.5642 43.0634L44.9999 37.8378L52.4355 43.0634L52.4355 51.2597H37.5642V43.0634Z" fill="white"/>
<path fill-rule="evenodd" clip-rule="evenodd" d="M60.8977 38.2599C61.2767 38.5431 61.5 38.9885 61.5 39.4617L61.5 58.6443C61.5 59.4728 60.8284 60.1443 60 60.1443H30C29.1716 60.1443 28.5 59.4728 28.5 58.6443V39.4617C28.5 38.9885 28.7233 38.5431 29.1023 38.2599L44.1023 27.0555C44.6347 26.6578 45.3653 26.6578 45.8977 27.0555L60.8977 38.2599ZM45 30.1295L31.5 40.2135V57.1443H58.5L58.5 40.2135L45 30.1295Z" fill="white"/>
<path fill-rule="evenodd" clip-rule="evenodd" d="M65.7379 34.6491C66.8487 35.5006 67.5 36.8206 67.5 38.2203L67.5 61.5C67.5 63.9853 65.4853 66 63 66H27C24.5147 66 22.5 63.9853 22.5 61.5V38.2203C22.5 36.8206 23.1513 35.5007 24.2621 34.6491L42.2621 20.8491C43.8773 19.6107 46.1227 19.6107 47.7379 20.8491L54 25.65V22.5C54 21.6715 54.6716 21 55.5 21H61.5C62.3284 21 63 21.6715 63 22.5V32.55L65.7379 34.6491ZM63.9126 37.0299L45.9126 23.2299C45.3742 22.8171 44.6258 22.8171 44.0874 23.2299L26.0874 37.0299C25.7171 37.3137 25.5 37.7537 25.5 38.2203V61.5C25.5 62.3284 26.1716 63 27 63H63C63.8284 63 64.5 62.3284 64.5 61.5L64.5 38.2203C64.5 37.7537 64.2829 37.3137 63.9126 37.0299ZM60 30.25V24H57V27.95L60 30.25Z" fill="white"/>
</svg>
