<svg width="174" height="199" viewBox="0 0 174 199" fill="none" xmlns="http://www.w3.org/2000/svg">
<path d="M64.4709 18.1229C67.0645 11.7511 69.1778 4.6428 74.5731 0C77.6149 11.623 78.6075 23.9184 83.8427 34.8691C90.5827 23.5983 96.6664 11.0787 107.665 3.26597C106.801 10.1181 104.975 16.7941 104.143 23.6463C102.862 32.1634 103.695 40.7766 103.422 49.3418C103.31 57.3466 99.6762 64.7751 99.4841 72.78C102.622 68.5534 105.136 63.8946 107.473 59.1878C110.211 53.6324 109.106 47.3246 109.474 41.385C109.794 35.0612 111.956 29.0736 113.733 23.0699C115.702 36.8222 117.399 51.343 113.621 64.8872C108.401 72.6039 102.43 80.7688 102.99 90.6468C106.128 84.499 108.065 77.759 112.004 72.0275C116.118 65.7517 117.831 58.3713 120.601 51.4871C122.954 45.6596 129.278 43.3062 133.617 39.2717C139.909 34.5489 144.727 27.5046 152.556 25.1672C146.472 36.7102 136.675 45.9638 131.503 58.0511C128.334 65.3995 123.947 72.1076 120.473 79.3119C126.572 75.6137 129.438 67.6409 136.659 65.8318C149.178 61.9894 160.545 54.8651 173.481 52.3036C170.311 58.3072 163.347 60.1163 157.839 63.2382C144.407 70.0423 134.769 81.9055 123.803 91.8475C128.67 92.1837 133.521 92.76 138.276 93.9287C138.708 101.549 138.003 109.186 136.771 116.71C136.595 120.537 132.592 122.586 131.952 126.252C128.221 144.84 124.443 163.427 120.441 181.95C119.08 186.961 117.351 192.885 112.212 195.206C105.44 197.944 97.9952 197.944 90.8069 198.44C77.0225 198.776 62.822 199.304 49.5339 195.03C43.2741 192.804 41.385 185.584 40.1202 179.789C36.1819 160.161 32.3555 140.501 28.4812 120.873C27.4086 120.793 25.2633 120.633 24.1906 120.553C23.6143 111.78 21.6931 102.798 23.5983 94.0568C29.2817 89.6382 37.3826 92.1197 44.1066 91.3832C34.1486 85.6357 27.2645 76.19 18.8754 68.5694C12.9198 62.5498 6.19574 57.3627 0 51.6152C9.65383 52.4157 19.5478 55.4415 26.7522 62.1816C31.379 66.6002 36.1819 70.8428 41.353 74.6051C38.8074 70.7467 36.422 66.7763 34.2447 62.7099C32.2115 58.3553 27.7608 56.0018 24.815 52.3836C27.7928 53.3602 30.5785 54.7691 33.4602 55.9858C27.7768 50.9428 23.3901 44.8911 20.5884 37.7828C32.2595 39.0796 37.6868 50.6546 42.8259 59.6841C42.1695 59.7321 40.8887 59.8442 40.2323 59.8922C43.3222 71.0029 49.3738 80.7208 55.0893 90.5827C50.6066 81.2651 46.332 71.8034 43.3702 61.8774C45.3714 51.295 42.0574 40.7446 40.4724 30.3223C39.1597 21.2608 35.9577 12.6797 33.6683 3.85832C43.098 9.82993 47.0684 20.5404 52.5437 29.6979C56.6582 36.5501 60.2444 43.8025 62.1495 51.5992C62.3257 53.5684 64.3109 54.2248 65.6236 55.3134C61.4771 52.896 64.3109 48.2051 63.8946 44.6029C64.487 35.7816 61.1249 26.6721 64.4709 18.1229ZM70.5706 13.7523C69.4019 16.522 67.897 19.1956 67.2566 22.1734C67.9611 30.3063 71.4191 37.9269 72.1556 46.0598C72.5718 55.7617 71.179 65.5596 72.6519 75.2134C73.8366 80.3205 75.6297 85.2675 76.7183 90.3906C77.4228 89.6061 78.1272 88.8217 78.8476 88.0372C72.2356 73.6765 77.2627 57.875 75.6297 42.8099C76.5102 32.8198 74.0127 23.0379 70.5706 13.7523ZM91.1591 49.0536C90.7108 63.3503 90.1184 77.775 87.2847 91.8475C93.8487 85.2995 93.7847 75.5336 93.5605 66.9204C92.9522 57.0265 97.8511 47.8849 97.8351 38.039C98.0432 30.5304 98.2033 23.0219 98.1073 15.4974C92.1837 25.5835 89.6702 37.4466 91.1591 49.0536ZM80.3365 76.2701C81.7134 64.9192 85.0914 53.7445 83.9547 42.1855C82.5779 53.5523 79.1998 64.7111 80.3365 76.2701ZM46.364 43.5623C50.2704 54.705 51.5031 66.5202 55.3935 77.6469C54.7211 73.8366 53.3762 66.184 52.7038 62.3737C57.7789 71.259 63.3503 80.1764 65.4315 90.3426C63.8306 73.1962 55.0893 57.987 46.364 43.5623ZM114.389 85.9239C125.404 81.2171 136.915 77.1186 146.008 69.0017C135.202 74.1088 123.611 78.0632 114.389 85.9239ZM31.1228 74.1408C35.3814 78.7356 40.3284 82.706 45.9317 85.5237C42.0734 80.4966 36.7902 76.8624 31.1228 74.1408ZM57.3466 83.5865C56.306 85.3796 57.8429 89.3179 60.1643 88.9657C61.1249 87.1726 59.604 83.3463 57.3466 83.5865ZM64.1988 98.2674C52.4317 99.0038 40.6806 98.2834 28.9295 97.723C29.0896 104.335 29.6339 110.915 30.7226 117.431C52.0795 119.688 73.6125 120.409 95.0654 119.448C106.736 119.048 118.504 119.128 130.063 117.207C131.792 110.915 131.567 104.383 131.952 97.9472C127.853 98.3794 123.739 98.5555 119.64 98.7637C101.005 100.157 82.2257 99.9964 63.5744 98.9558C69.7221 95.946 77.3747 101.053 83.4104 97.8191C76.8464 97.4189 70.3625 96.5383 63.9266 95.2095C63.9907 95.978 64.1347 97.4989 64.1988 98.2674ZM34.6289 120.921C38.8074 141.349 41.7692 162.05 46.6682 182.318C47.5007 187.281 52.3997 189.875 56.9784 190.515C72.3317 193.285 88.1973 193.125 103.615 190.931C106.849 190.179 111.363 190.227 112.868 186.625C116.006 179.805 116.903 172.248 118.456 164.98C121.225 150.171 124.779 135.522 127.309 120.681C96.4743 123.098 65.4635 123.066 34.6289 120.921Z" fill="#435F17"/>
</svg>
