<svg width="20" height="19" viewBox="0 0 20 19" fill="none" xmlns="http://www.w3.org/2000/svg">
<path d="M0 0V18.82H20V0H0ZM15.28 15H4.69C4.21 15 3.81 14.6 3.81 14.12C3.81 13.64 4.21 13.24 4.69 13.24H15.28C15.76 13.24 16.16 13.64 16.16 14.12C16.16 14.6 15.76 15 15.28 15ZM15.28 10.29H4.69C4.21 10.29 3.81 9.89 3.81 9.41C3.81 8.93 4.21 8.53 4.69 8.53H15.28C15.76 8.53 16.16 8.93 16.16 9.41C16.16 9.89 15.76 10.29 15.28 10.29ZM15.28 5.58002H4.69C4.21 5.58002 3.81 5.18001 3.81 4.70001C3.81 4.22001 4.21 3.82001 4.69 3.82001H15.28C15.76 3.82001 16.16 4.22001 16.16 4.70001C16.16 5.18001 15.76 5.58002 15.28 5.58002Z" fill="#435F17"/>
</svg>
