<svg width="25" height="25" viewBox="0 0 25 25" fill="none" xmlns="http://www.w3.org/2000/svg">
<path d="M21.957 8.65C21.957 14.14 13.187 20.38 11.927 20.38C10.667 20.38 1.95703 14.15 1.95703 8.65C1.95703 7.48 2.31703 6.34 2.98703 5.39C3.65703 4.44 4.60703 3.71 5.70703 3.33C6.80703 2.94 7.99703 2.9 9.11703 3.22C10.237 3.54 11.227 4.2 11.957 5.11C12.477 4.45 13.147 3.92 13.907 3.55C14.667 3.18 15.497 3 16.337 3C17.077 3 17.807 3.14 18.487 3.43C19.167 3.71 19.787 4.13 20.317 4.66C20.837 5.19 21.257 5.81 21.537 6.49C21.817 7.18 21.967 7.91 21.967 8.65H21.957Z" fill="#435F17"/>
</svg>
