<svg width="236" height="60" viewBox="0 0 236 60" fill="none" xmlns="http://www.w3.org/2000/svg">
<path d="M13.986 59.724C11.466 59.724 9.12598 59.148 6.96598 57.996C4.84198 56.844 3.14998 55.152 1.88998 52.92C0.629983 50.688 -1.70134e-05 48.06 -1.70134e-05 45.036C-1.70134e-05 42.588 0.431983 40.482 1.29598 38.718C2.19598 36.954 3.31198 35.622 4.64398 34.722C6.01198 33.822 7.39798 33.372 8.80198 33.372C10.386 33.372 11.7 33.912 12.744 34.992C13.788 36.072 14.31 37.62 14.31 39.636C14.31 41.004 13.95 42.246 13.23 43.362C12.51 44.478 11.7 45.036 10.8 45.036C10.8 43.668 10.404 42.606 9.61198 41.85C8.81998 41.094 7.86598 40.716 6.74998 40.716C5.52598 40.716 4.44598 41.148 3.50998 42.012C2.57398 42.84 2.10598 43.956 2.10598 45.36C2.10598 47.664 2.75398 49.428 4.04998 50.652C5.34598 51.876 7.01998 52.488 9.07198 52.488C10.836 52.488 12.69 52.038 14.634 51.138C16.578 50.238 18.396 48.942 20.088 47.25C23.688 43.65 26.658 38.484 28.998 31.752C31.338 24.984 32.724 17.964 33.156 10.692H33.048C33.156 10.26 33.21 9.84599 33.21 9.44999C33.21 8.29799 32.814 7.41599 32.022 6.80399C31.23 6.15599 30.222 5.83199 28.998 5.83199C27.234 5.83199 25.362 6.44399 23.382 7.66799C21.438 8.85599 19.8 10.602 18.468 12.906C17.136 15.21 16.47 17.91 16.47 21.006C16.47 23.418 16.83 25.236 17.55 26.46C18.306 27.684 19.188 28.296 20.196 28.296C20.988 28.296 21.672 27.936 22.248 27.216C22.824 26.46 23.112 25.47 23.112 24.246C23.112 23.598 22.914 22.986 22.518 22.41C22.158 21.798 21.546 21.438 20.682 21.33C20.682 20.646 21.06 19.98 21.816 19.332C22.572 18.648 23.436 18.306 24.408 18.306C25.74 18.306 26.784 18.666 27.54 19.386C28.296 20.07 28.674 20.934 28.674 21.978C28.674 24.39 27.756 26.28 25.92 27.648C24.084 29.016 21.87 29.7 19.278 29.7C17.262 29.7 15.318 29.286 13.446 28.458C11.61 27.594 10.098 26.316 8.90998 24.624C7.75798 22.896 7.18198 20.826 7.18198 18.414C7.18198 16.038 7.79398 13.824 9.01798 11.772C10.278 9.68399 12.204 8.00999 14.796 6.74999C17.424 5.45399 20.664 4.80599 24.516 4.80599H49.95V5.66999C49.05 5.66999 48.402 5.88599 48.006 6.31799C47.61 6.71399 47.412 7.25399 47.412 7.93799C47.412 8.33399 47.466 8.72999 47.574 9.12599L56.862 27.81L66.474 4.80599H82.566V5.56199C81.342 6.24599 80.514 7.10999 80.082 8.15399C79.686 9.16199 79.488 10.314 79.488 11.61V35.91C79.488 37.206 79.686 38.376 80.082 39.42C80.514 40.428 81.342 41.274 82.566 41.958V42.714H63.45V41.958C64.674 41.274 65.484 40.41 65.88 39.366C66.312 38.322 66.528 37.17 66.528 35.91V7.82999L52.272 42.714H50.382L35.694 11.88L34.29 27.162C33.57 35.082 32.166 41.472 30.078 46.332C27.99 51.192 25.56 54.63 22.788 56.646C20.016 58.698 17.082 59.724 13.986 59.724ZM94.1941 10.422C92.7541 10.422 91.5121 9.91799 90.4681 8.90999C89.4601 7.86599 88.9561 6.62399 88.9561 5.18399C88.9561 3.77999 89.4601 2.57399 90.4681 1.56599C91.5121 0.521989 92.7541 -1.12057e-05 94.1941 -1.12057e-05C95.6341 -1.12057e-05 96.8581 0.521989 97.8661 1.56599C98.8741 2.57399 99.3781 3.77999 99.3781 5.18399C99.3781 6.62399 98.8741 7.86599 97.8661 8.90999C96.8581 9.91799 95.6341 10.422 94.1941 10.422ZM84.7441 41.958C85.9681 41.274 86.7781 40.41 87.1741 39.366C87.6061 38.322 87.8221 37.17 87.8221 35.91V20.196C87.8221 18.18 87.6241 16.722 87.2281 15.822C86.8321 14.922 86.0041 14.364 84.7441 14.148V13.392H100.782V35.91C100.782 37.206 100.98 38.376 101.376 39.42C101.808 40.428 102.636 41.274 103.86 41.958V42.714H84.7441V41.958ZM119.118 42.876C116.31 42.876 113.916 42.192 111.936 40.824C109.956 39.42 108.462 37.602 107.454 35.37C106.482 33.102 105.996 30.672 105.996 28.08C105.996 25.524 106.482 23.112 107.454 20.844C108.462 18.576 109.938 16.74 111.882 15.336C113.826 13.932 116.148 13.23 118.848 13.23C121.332 13.23 123.888 14.13 126.516 15.93V14.31C126.516 11.79 126.444 9.97199 126.3 8.85599C126.156 7.73999 125.868 6.94799 125.436 6.47999C125.04 6.01199 124.374 5.70599 123.438 5.56199V4.80599H139.476V35.91C139.476 37.674 139.692 39.096 140.124 40.176C140.592 41.256 141.402 41.85 142.554 41.958V42.714H132.24C130.908 42.714 129.792 42.444 128.892 41.904C128.028 41.328 127.398 40.554 127.002 39.582L121.602 42.714C120.738 42.822 119.91 42.876 119.118 42.876ZM126.84 39.096C126.624 38.448 126.516 37.728 126.516 36.936V17.118C124.068 16.974 122.196 18.018 120.9 20.25C119.64 22.482 119.01 25.254 119.01 28.566C119.01 31.554 119.514 34.164 120.522 36.396C121.566 38.592 122.952 39.69 124.68 39.69C125.328 39.69 126.048 39.492 126.84 39.096ZM163.009 43.578C160.309 43.578 157.555 43.056 154.747 42.012C151.939 40.968 149.563 39.312 147.619 37.044C145.675 34.74 144.703 31.824 144.703 28.296C144.703 24.516 145.657 21.492 147.565 19.224C149.509 16.92 151.867 15.3 154.639 14.364C157.411 13.428 160.201 12.96 163.009 12.96C165.673 12.96 168.391 13.428 171.163 14.364C173.971 15.3 176.365 16.92 178.345 19.224C180.361 21.492 181.369 24.516 181.369 28.296C181.369 31.788 180.361 34.686 178.345 36.99C176.365 39.294 173.953 40.968 171.109 42.012C168.265 43.056 165.565 43.578 163.009 43.578ZM163.063 42.498C164.395 42.498 165.439 41.076 166.195 38.232C166.951 35.352 167.329 31.968 167.329 28.08C167.329 24.264 166.951 20.97 166.195 18.198C165.475 15.426 164.431 14.04 163.063 14.04C161.443 14.04 160.165 15.444 159.229 18.252C158.329 21.06 157.879 24.39 157.879 28.242C157.879 32.094 158.329 35.442 159.229 38.286C160.165 41.094 161.443 42.498 163.063 42.498ZM183.516 41.958C184.74 41.274 185.55 40.41 185.946 39.366C186.378 38.322 186.594 37.17 186.594 35.91V22.896C186.594 20.376 186.522 18.558 186.378 17.442C186.234 16.326 185.946 15.534 185.514 15.066C185.118 14.598 184.452 14.292 183.516 14.148V13.392H199.554V20.142C200.634 18.234 202.056 16.56 203.82 15.12C205.584 13.644 207.348 12.906 209.112 12.906C210.768 12.906 212.028 13.41 212.892 14.418C213.756 15.39 214.188 16.578 214.188 17.982C214.188 19.422 213.702 20.556 212.73 21.384C211.758 22.212 210.606 22.626 209.274 22.626C207.906 22.626 206.718 22.194 205.71 21.33C204.702 20.466 204.198 19.26 204.198 17.712C204.198 17.388 204.27 16.992 204.414 16.524C203.73 17.028 202.92 17.856 201.984 19.008C201.084 20.124 200.274 21.312 199.554 22.572V35.91C199.554 37.206 199.752 38.376 200.148 39.42C200.58 40.428 201.408 41.274 202.632 41.958V42.714H183.516V41.958ZM225.819 10.422C224.379 10.422 223.137 9.91799 222.093 8.90999C221.085 7.86599 220.581 6.62399 220.581 5.18399C220.581 3.77999 221.085 2.57399 222.093 1.56599C223.137 0.521989 224.379 -1.12057e-05 225.819 -1.12057e-05C227.259 -1.12057e-05 228.483 0.521989 229.491 1.56599C230.499 2.57399 231.003 3.77999 231.003 5.18399C231.003 6.62399 230.499 7.86599 229.491 8.90999C228.483 9.91799 227.259 10.422 225.819 10.422ZM216.369 41.958C217.593 41.274 218.403 40.41 218.799 39.366C219.231 38.322 219.447 37.17 219.447 35.91V20.196C219.447 18.18 219.249 16.722 218.853 15.822C218.457 14.922 217.629 14.364 216.369 14.148V13.392H232.407V35.91C232.407 37.206 232.605 38.376 233.001 39.42C233.433 40.428 234.261 41.274 235.485 41.958V42.714H216.369V41.958Z" fill="#435F17"/>
</svg>
