<svg width="90" height="90" viewBox="0 0 90 90" fill="none" xmlns="http://www.w3.org/2000/svg">
<path fill-rule="evenodd" clip-rule="evenodd" d="M73.254 29.5877C73.4145 30.1982 73.5 30.8391 73.5 31.5V58.5C73.5 62.6421 70.1421 66 66 66H24C19.8579 66 16.5 62.6421 16.5 58.5V31.5C16.5 27.3579 19.8579 24 24 24H66C68.351 24 70.4494 25.0817 71.8245 26.7746C72.4856 27.5885 72.9795 28.5436 73.254 29.5877ZM24 27H66C67.5233 27 68.8698 27.7569 69.684 28.9151L50.3034 48.2957C47.3745 51.2246 42.6257 51.2246 39.6968 48.2957L20.3161 28.915C21.1303 27.7568 22.4767 27 24 27ZM19.5 32.3416V58.5C19.5 60.9853 21.5147 63 24 63H66C68.4853 63 70.5 60.9853 70.5 58.5V32.3417L52.4247 50.417C48.3242 54.5175 41.676 54.5175 37.5755 50.417L19.5 32.3416Z" fill="white"/>
</svg>
