<svg width="573" height="374" viewBox="0 0 573 374" fill="none" xmlns="http://www.w3.org/2000/svg">
<path d="M392.531 292.824C373.783 350.996 318.399 386.623 257.715 369.836C242.46 365.915 233.27 350.353 237.221 335.128C241.142 319.873 256.704 310.683 271.929 314.635C284.182 319.506 297.078 323.365 310.158 320.241C331.571 316.381 349.032 297.848 358.681 278.794C369.372 258.944 399.055 271.381 392.531 292.855V292.824Z" fill="#B5FF3F"/>
<path d="M198.716 245.282C183.063 251.745 155.585 265.163 151.756 282.409C151.694 285.411 152.705 286.085 154.513 288.352C165.05 300.482 163.764 318.862 151.633 329.4C137.144 342.48 112.821 336.66 105.653 318.587L103.202 312.613C93.4918 290.098 98.6381 263.999 115.057 246.14C134.785 225.064 162.048 215.384 189.189 209.748C211.705 205.98 219.945 237.378 198.686 245.251L198.716 245.282Z" fill="#B5FF3F"/>
<path d="M488.381 261.456C469.205 314.329 369.402 320.21 319.348 315.554C303.051 314.053 284.151 310.683 265.036 305.476C211.152 290.894 155.554 261.885 151.51 219.275C148.6 188.427 172.861 152.096 209.713 125.323C245.461 99.3464 293.034 82.3451 339.014 88.1041C432.629 99.8059 509.089 204.295 488.381 261.456Z" fill="#B5FF3F"/>
<path d="M309.914 288.046C294.567 296.715 253.09 252.481 217.31 189.193C211.766 179.421 206.711 169.772 202.147 160.398C190.537 136.627 182.205 114.632 177.916 97.202C172.923 77.0149 173.321 62.8624 180.275 58.9108C195.653 50.2416 237.099 94.4757 272.909 157.763C308.689 221.021 325.261 279.346 309.914 288.046Z" fill="#B5FF3F"/>
<path d="M368.769 154.732C378.6 76.253 363.992 9.80519 336.143 6.3166C308.293 2.82801 277.747 63.6197 267.917 142.099C258.086 220.578 272.693 287.025 300.543 290.514C328.392 294.003 358.938 233.211 368.769 154.732Z" fill="#B5FF3F"/>
<path d="M461.34 215.153C522.754 165.314 558.202 107.244 540.516 85.4507C522.83 63.6569 458.707 86.3918 397.293 136.231C335.878 186.069 300.43 244.139 318.116 265.933C335.802 287.726 399.925 264.992 461.34 215.153Z" fill="#B5FF3F"/>
<path opacity="0.59" d="M283.386 301.922C246.81 346.279 172.954 338.866 139.165 335.251C118.304 333.015 40.956 324.775 13.2025 273.005C8.23995 263.723 0.459244 251.164 4.38027 236.613C9.25091 218.601 29.438 205.459 111.228 180.218C188.944 156.232 228.154 144.438 247.177 152.342C296.987 173.111 322.688 254.196 283.386 301.892V301.922Z" fill="url(#paint0_linear_35_360)"/>
<path d="M229.411 194.492C228.155 198.965 230.79 203.835 234.68 206.102C238.233 208.185 243.012 208.063 246.412 205.704C249.813 203.345 252.508 199.332 252.141 194.982C251.712 189.867 248.587 185.517 243.533 184.108C239.397 182.944 234.527 183.985 231.433 187.079C228.339 190.173 227.114 194.799 228.278 199.149C229.442 203.498 232.873 206.715 237.069 207.756C242.675 209.166 248.158 205.735 249.966 200.435C250.854 197.831 249.843 194.707 247.944 192.838C245.8 190.694 243.196 190.388 240.347 190.816C240.041 190.878 239.734 190.939 239.428 191.031L241.603 190.725C241.297 190.755 240.99 190.786 240.684 190.725L242.951 191.031C242.338 190.939 241.695 190.847 241.113 190.633L243.196 191.521C243.012 191.429 242.828 191.337 242.645 191.215L244.421 192.593C244.176 192.379 243.962 192.195 243.747 191.95L245.126 193.727C244.942 193.451 244.789 193.206 244.636 192.93L245.524 195.044C245.371 194.646 245.248 194.247 245.187 193.849L245.493 196.208C245.493 195.871 245.493 195.595 245.493 195.289L245.187 197.648C245.218 197.433 245.279 197.249 245.34 197.035L244.452 199.149C244.574 198.842 244.728 198.597 244.911 198.352L243.533 200.159C243.655 200.006 243.809 199.853 243.992 199.731L242.185 201.109C242.461 200.925 242.706 200.772 242.981 200.65L240.837 201.538C241.144 201.415 241.419 201.354 241.756 201.293L239.367 201.599C239.704 201.599 239.979 201.569 240.316 201.599L237.927 201.293C238.233 201.354 238.54 201.415 238.846 201.507L236.702 200.588C237.008 200.711 237.253 200.864 237.498 201.048L235.691 199.639C235.844 199.761 235.997 199.914 236.12 200.098L234.711 198.26C234.711 198.26 234.925 198.567 235.017 198.75L234.098 196.606C234.22 196.882 234.282 197.127 234.343 197.402L234.006 195.013C234.037 195.473 234.037 195.963 234.006 196.422L234.312 194.033C234.251 194.339 234.19 194.584 234.098 194.86L234.986 192.746C234.833 193.114 234.649 193.42 234.404 193.757L235.783 191.98C235.599 192.195 235.415 192.379 235.17 192.563L236.916 191.215C236.671 191.368 236.457 191.49 236.181 191.613L238.233 190.755C238.05 190.816 237.866 190.878 237.682 190.878L239.949 190.571C239.765 190.571 239.581 190.602 239.367 190.571L241.603 190.878C241.327 190.847 241.082 190.786 240.807 190.694L242.798 191.521C242.553 191.398 242.338 191.276 242.093 191.123L243.747 192.409C243.533 192.226 243.349 192.042 243.165 191.827L244.452 193.481C243.839 192.654 243.349 191.643 242.553 190.97C240.286 189.162 237.804 188.121 234.864 188.948C232.199 189.683 230.085 191.797 229.35 194.462L229.411 194.492Z" fill="#3E3D4D"/>
<path d="M294.506 195.687C290.309 199.087 289.145 205.459 291.841 210.085C294.353 214.404 299.07 216.916 304.033 216.885C308.995 216.854 314.325 213.914 316.837 209.503C319.502 204.816 319.41 199.424 316.715 194.768C311.14 185.057 296.191 184.843 290.677 194.676C287.246 200.772 288.747 208.982 294.935 212.719C299.836 215.69 307.372 215.139 311.231 210.575C313.56 207.818 315.336 203.927 313.958 200.251L313.866 200.037C312.947 197.556 311.538 195.136 309.087 193.818C306.637 192.501 303.88 192.072 301.092 192.777C299.438 193.175 297.263 194.278 296.191 195.565C295.241 196.667 298.733 194.064 297.293 194.707L299.836 193.635C299.622 193.727 299.377 193.788 299.131 193.788L301.95 193.42C301.705 193.42 301.46 193.42 301.245 193.42L304.063 193.788C303.818 193.757 303.604 193.696 303.389 193.604L305.901 194.676C307.004 195.411 307.923 196.3 308.658 197.403L309.73 199.914C309.608 199.639 309.547 199.363 309.516 199.087L309.884 201.875C309.853 201.599 309.884 201.293 309.884 201.017L309.516 203.805C309.761 202.794 309.577 203.192 308.903 205.061C307.647 206.501 307.402 206.868 308.107 206.102C307.249 206.991 306.208 207.603 304.982 207.91C305.258 207.818 305.503 207.757 305.779 207.726L303.022 208.093C303.451 208.063 303.818 208.093 304.247 208.093L301.49 207.726C302.807 207.971 302.256 208.369 300.602 207.174C301.49 207.848 301.705 208.216 299.897 206.47C301.031 207.573 298.672 204.142 299.346 205.643L298.641 203.927C298.733 204.172 298.794 204.448 298.825 204.724L298.458 202.028C298.488 202.304 298.488 202.58 298.458 202.855L298.825 200.16C298.672 201.293 298.121 201.446 299.376 199.302C298.58 200.65 301.123 197.494 299.928 198.536L301.306 197.494C301.061 197.648 300.847 197.801 300.571 197.893C300.541 197.556 303.42 197.004 301.368 197.341L304.002 196.974C303.573 197.004 303.206 197.004 302.777 196.974L305.411 197.341C304.462 197.127 304.86 197.341 306.606 197.954C305.748 197.433 306.085 197.709 307.647 198.812C308.72 200.343 309.026 200.711 308.505 199.884C308.015 199.118 307.464 198.413 306.851 197.77C306.269 197.127 305.564 196.575 304.768 196.147C306.238 197.372 306.637 197.648 305.993 197.035C307.004 198.413 307.28 198.75 306.79 198.046C306.422 197.372 306.575 197.709 307.219 199.087C306.269 196.514 304.615 194.492 301.888 193.757C299.162 193.022 296.65 193.941 294.445 195.718L294.506 195.687Z" fill="#3E3D4D"/>
<path d="M228.644 168.393C233.025 158.958 244.175 157.641 250.669 165.697C253.457 169.159 258.297 164.258 255.54 160.827C246.411 149.523 228.797 151.729 222.671 164.901C220.833 168.914 226.745 172.406 228.614 168.393H228.644Z" fill="#3E3D4D"/>
<path d="M303.421 168.454C314.847 158.958 331.327 166.31 332.216 181.014C332.491 185.425 339.384 185.456 339.108 181.014C337.852 160.092 314.571 150.258 298.55 163.584C295.15 166.433 300.051 171.273 303.421 168.454Z" fill="#3E3D4D"/>
<path d="M272.358 223.869C272.358 230.884 266.661 236.582 259.646 236.582C252.631 236.582 246.964 230.884 246.964 223.869C246.964 221.694 247.484 219.673 248.434 217.896C250.578 213.883 254.775 211.157 259.646 211.157C265.343 211.157 270.153 214.894 271.776 220.071C272.175 221.266 272.358 222.552 272.358 223.869Z" fill="#3E3D4D" stroke="#3E3D4D" stroke-width="8.22887" stroke-miterlimit="10" stroke-linecap="round"/>
<path d="M146.671 343.971L210.51 325.448L126.668 291.17" fill="#767B77"/>
<path d="M146.671 343.971L210.51 325.448L126.668 291.17" stroke="#767B77" stroke-width="16.4577" stroke-linecap="round" stroke-linejoin="round"/>
<path d="M16.6033 214.19L135.98 237.226C141.862 238.359 146.426 243.383 147.345 249.754L159.384 332.77C160.885 343.093 152.491 351.946 142.964 350.108L25.8851 327.501C20.1567 326.398 15.6536 321.589 14.5815 315.401L0.245269 231.957C-1.56208 221.511 6.89262 212.352 16.6033 214.22V214.19Z" fill="#3E3D4D"/>
<path d="M68.4645 290.956C73.32 290.956 77.2562 287.02 77.2562 282.164C77.2562 277.309 73.32 273.372 68.4645 273.372C63.609 273.372 59.6729 277.309 59.6729 282.164C59.6729 287.02 63.609 290.956 68.4645 290.956Z" fill="white"/>
<path d="M71.8961 266.786C73.8417 266.786 75.4189 265.209 75.4189 263.263C75.4189 261.318 73.8417 259.741 71.8961 259.741C69.9505 259.741 68.3733 261.318 68.3733 263.263C68.3733 265.209 69.9505 266.786 71.8961 266.786Z" fill="white"/>
<path d="M81.9744 273.617C83.1925 273.617 84.18 272.63 84.18 271.412C84.18 270.194 83.1925 269.206 81.9744 269.206C80.7563 269.206 79.7688 270.194 79.7688 271.412C79.7688 272.63 80.7563 273.617 81.9744 273.617Z" fill="white"/>
<path d="M234.742 199.332C236.603 199.332 238.112 197.824 238.112 195.963C238.112 194.102 236.603 192.593 234.742 192.593C232.881 192.593 231.372 194.102 231.372 195.963C231.372 197.824 232.881 199.332 234.742 199.332Z" fill="white"/>
<path d="M295.946 205.673C297.807 205.673 299.315 204.165 299.315 202.304C299.315 200.443 297.807 198.934 295.946 198.934C294.085 198.934 292.576 200.443 292.576 202.304C292.576 204.165 294.085 205.673 295.946 205.673Z" fill="white"/>
<path d="M271.776 220.071C269.203 222.399 265.343 223.869 261.055 223.869C255.541 223.869 250.762 221.419 248.434 217.896C250.578 213.883 254.775 211.157 259.646 211.157C265.343 211.157 270.153 214.894 271.776 220.071Z" fill="white"/>
<defs>
<linearGradient id="paint0_linear_35_360" x1="27.2652" y1="184.063" x2="270.918" y2="316.952" gradientUnits="userSpaceOnUse">
<stop stop-color="#B5FF9F"/>
<stop offset="1" stop-color="white"/>
</linearGradient>
</defs>
</svg>
