<svg width="445" height="392" viewBox="0 0 445 392" fill="none" xmlns="http://www.w3.org/2000/svg">
<path d="M110.171 290.05C129.695 284.818 140.963 263.559 135.338 242.565C129.712 221.572 109.325 208.794 89.8002 214.026C70.2758 219.258 59.0082 240.517 64.6334 261.51C70.2585 282.504 90.6463 295.281 110.171 290.05Z" fill="#B5FF3F"/>
<path d="M352.716 188.028C353.981 232.415 279.175 267.35 239.397 279.309C189.889 294.208 103.254 301.009 81.6486 260.66C58.878 218.132 110.734 127.71 185.873 107.549C261.2 87.3648 351.337 140.017 352.69 188.035L352.716 188.028Z" fill="#B5FF3F"/>
<path d="M227.298 275.035C237.02 262.752 207.707 223.356 161.825 187.042C115.943 150.729 70.867 131.249 61.145 143.533C51.4229 155.817 80.7362 195.213 126.618 231.526C172.5 267.839 217.576 287.319 227.298 275.035Z" fill="#B5FF3F"/>
<path d="M177.103 261.451C188.868 246.585 174.051 215.258 144.007 191.48C113.963 167.702 80.07 160.476 68.3045 175.342C56.5391 190.208 71.3566 221.535 101.4 245.313C131.444 269.091 165.337 276.316 177.103 261.451Z" fill="#B5FF3F"/>
<path d="M244.494 277.777C266.899 271.774 271.345 215.713 254.424 152.562C237.502 89.4103 205.622 43.0828 183.216 49.0863C160.811 55.0898 156.365 111.151 173.287 174.302C190.208 237.453 222.089 283.781 244.494 277.777Z" fill="#B5FF3F"/>
<path d="M314.73 187.297C357.811 138.119 377.935 85.2869 359.677 69.2918C341.418 53.2967 291.693 80.1961 248.611 129.373C205.529 178.55 185.406 231.383 203.664 247.378C221.922 263.373 271.648 236.474 314.73 187.297Z" fill="#B5FF3F"/>
<path d="M193.284 204.62C189.556 205.48 187.726 209.597 187.642 213.106C187.513 217.791 190.96 221.462 195.236 222.751C201.891 224.76 209.275 219.986 210.777 213.301C211.693 209.18 210.6 205.1 207.746 201.99C205.427 199.429 202.007 198.131 198.632 197.928C195.256 197.726 191.751 199.108 189.183 201.401C185.906 204.355 184.854 208.899 185.593 213.102C186.503 218.255 191.153 221.77 196.184 222.055C201.215 222.34 205.851 218.468 207.387 213.766C208.392 210.702 207.265 206.907 204.965 204.728L204.853 204.62C202 201.925 197.316 201.076 193.883 203.242C191.682 204.634 190.14 206.625 189.43 209.14L190.34 206.959C190.278 207.141 190.177 207.279 190.05 207.424L191.484 205.545C191.356 205.69 191.229 205.835 191.062 205.935L192.963 204.457C192.803 204.583 192.629 204.657 192.43 204.738L194.723 203.792C194.542 203.84 194.335 203.895 194.154 203.944L196.613 203.617C196.425 203.64 196.231 203.637 196.029 203.608L198.389 203.944L198.115 203.851L200.296 204.761L200.034 204.61L201.913 206.044C201.71 205.905 201.532 205.759 201.393 205.547L202.864 207.422C202.731 207.237 202.591 207.025 202.529 206.793L203.468 209.059C203.406 208.827 203.344 208.595 203.282 208.362L203.601 210.795C203.565 210.556 203.58 210.303 203.595 210.05L203.285 212.402C203.343 211.999 203.454 211.693 203.578 211.327L202.687 213.476C202.793 213.254 202.926 213.024 203.072 212.847L201.657 214.693C201.803 214.515 201.956 214.364 202.109 214.212L200.253 215.65C200.528 215.438 200.765 215.292 201.08 215.124L198.839 216.057C199.264 215.887 199.652 215.784 200.105 215.718L197.697 216.031C198.157 215.99 198.572 215.99 199.034 216.06L196.707 215.742C197.032 215.821 197.351 215.874 197.658 215.986L195.535 215.088C195.94 215.256 196.3 215.464 196.674 215.724L194.861 214.327C195.038 214.474 195.183 214.601 195.316 214.787L193.884 212.956C194.097 213.231 194.243 213.469 194.411 213.784L193.492 211.594C193.608 211.923 193.691 212.233 193.755 212.576L193.456 210.22C193.485 210.434 193.463 210.661 193.441 210.888L193.747 208.62C193.725 208.847 193.677 209.082 193.622 209.29C194.323 207.774 194.472 207.401 194.096 208.167C193.434 209.313 195.836 206.399 194.328 207.689L196.114 206.297C195.838 206.51 195.549 206.67 195.26 206.831L197.398 205.926C197.076 206.067 196.792 206.143 196.442 206.182L198.746 205.896C198.397 205.935 198.085 205.908 197.74 205.861L199.95 206.155C198.941 205.9 201.106 206.648 201.12 206.7C201.099 206.622 200.615 206.364 200.491 206.315C199.836 205.936 198.949 205.621 198.251 205.392C197.462 205.133 197.87 205.107 199.304 205.913C198.067 205.22 200.409 206.835 199.771 206.314C197.877 204.718 195.725 204.021 193.303 204.587L193.284 204.62Z" fill="#3E3D4D"/>
<path d="M107.745 156.631C108.259 145.948 119.034 139.989 128.395 145.175C131.772 147.037 134.811 141.85 131.4 139.969C118.021 132.593 102.443 141.39 101.733 156.609C101.552 160.477 107.563 160.499 107.752 156.657L107.745 156.631Z" fill="#3E3D4D"/>
<path d="M171.572 154.059C176.783 144.276 189.651 144.786 194.383 154.7C196.063 158.18 201.226 155.136 199.572 151.649C192.897 137.689 173.608 137.488 166.365 151.053C164.542 154.476 169.748 157.481 171.572 154.059Z" fill="#3E3D4D"/>
<path d="M153.31 271.627L245.826 346.171" stroke="#FFB487" stroke-width="21.3368" stroke-miterlimit="10" stroke-linecap="round"/>
<path d="M137.197 242.067C148.335 239.082 154.945 227.633 151.961 216.495C148.976 205.357 137.527 198.746 126.389 201.731C115.25 204.716 108.64 216.165 111.625 227.303C114.609 238.441 126.058 245.052 137.197 242.067Z" fill="#3E3D4D"/>
<path d="M190.116 237.934C191.617 243.538 188.29 249.301 182.687 250.802C177.083 252.304 171.346 248.97 169.845 243.366C169.381 241.636 169.358 239.898 169.727 238.277C170.573 234.619 173.349 231.55 177.248 230.505C181.793 229.287 186.443 231.252 188.841 235.038C189.407 235.91 189.839 236.901 190.116 237.934Z" fill="#3E3D4D" stroke="#3E3D4D" stroke-width="8.53473" stroke-miterlimit="10" stroke-linecap="round"/>
<path d="M188.834 235.012C187.267 237.425 184.505 239.41 181.071 240.33C176.681 241.507 172.333 240.568 169.719 238.252C170.566 234.593 173.342 231.524 177.241 230.479C181.786 229.262 186.436 231.226 188.834 235.012Z" fill="white"/>
<path opacity="0.45" d="M118.635 290.134C152.122 281.161 172.016 246.822 163.07 213.435C154.124 180.048 119.725 160.257 86.2387 169.229C52.752 178.202 32.8577 212.542 41.8037 245.928C50.7497 279.315 85.1483 299.107 118.635 290.134Z" fill="#B5FFDD"/>
<path d="M116.659 291.024C150.146 282.051 170.018 247.631 161.045 214.144C152.073 180.657 117.653 160.785 84.1658 169.757C50.6791 178.73 30.8066 213.15 39.7793 246.637C48.752 280.124 83.1722 299.996 116.659 291.024Z" stroke="#FFB487" stroke-width="12.8021" stroke-miterlimit="10"/>
<path d="M316.832 233.014C314.709 273.328 291.84 313.997 253.065 329.701C239.536 335.401 224.963 338.033 210.534 337.997C196.819 338.046 185.634 326.983 185.559 313.275C185.51 299.56 196.573 288.376 210.281 288.301C223.459 289.862 237.037 289.407 248.802 282.906C268.694 273.064 280.828 250.383 285.06 228.99C289.351 209.573 317.544 213.256 316.807 233.021L316.832 233.014Z" fill="#B5FF3F"/>
</svg>
