<svg width="488" height="315" viewBox="0 0 488 315" fill="none" xmlns="http://www.w3.org/2000/svg">
<path d="M150.162 271.901C128.631 297.508 98.3865 320.575 61.9105 312.512C51.3664 310.799 38.9617 302.263 29.7762 296.652C15.304 287.791 10.7555 268.859 19.6161 254.387C32.8479 232.383 66.577 236.134 74.7878 260.176C75.2604 261.505 77.1802 263.218 80.7244 264.074C97.4414 267.412 112.593 255.125 126.415 245.556C143.93 233.387 163.984 255.923 150.132 271.901H150.162Z" fill="#B5FF3F"/>
<path d="M437.716 224.231C425.725 274.618 330.917 291.394 282.479 292.871C222.198 294.702 122.546 276.243 110.407 224.231C97.5889 169.414 183.33 83.2302 274.062 83.2007C365.001 83.2007 450.682 169.739 437.716 224.231Z" fill="#B5FF3F"/>
<path d="M265.133 278.249C286.847 262.099 267.557 199.403 222.047 138.214C176.538 77.0242 122.042 40.5124 100.328 56.6622C78.6139 72.812 97.904 135.508 143.414 196.697C188.923 257.887 243.419 294.398 265.133 278.249Z" fill="#B5FF3F"/>
<path d="M274.062 276.154C301.123 276.154 323.06 214.335 323.06 138.077C323.06 61.8192 301.123 0 274.062 0C247 0 225.063 61.8192 225.063 138.077C225.063 214.335 247 276.154 274.062 276.154Z" fill="#B5FF3F"/>
<path d="M404.688 196.738C450.197 135.548 469.488 72.8525 447.773 56.7027C426.059 40.5529 371.564 77.0646 326.054 138.254C280.545 199.443 261.255 262.139 282.969 278.289C304.683 294.439 359.178 257.927 404.688 196.738Z" fill="#B5FF3F"/>
<path d="M220.367 184.241C214.844 191.949 222.346 201.312 230.763 201.667C239.801 202.021 246.24 192.599 244.527 184.211C242.607 174.908 231.679 171.393 223.823 175.528C215.287 180.017 214.489 191.447 220.81 198.122C224.827 202.346 231.177 203.527 236.375 200.958C241.573 198.388 244.822 192.392 241.662 187.017C240.215 184.536 237.675 183.945 235.046 184.329C235.282 184.3 236.493 184.123 235.607 184.152C234.16 184.211 232.86 184.625 231.561 185.304C231.384 185.393 230.232 186.101 231.118 185.629C232.122 185.068 230.025 185.777 231.384 185.57C232.801 185.363 230.557 185.57 230.616 185.511C230.882 185.186 232.388 185.895 232.654 186.042C231.679 185.599 232.654 185.983 233.038 186.338C233.451 186.751 233.687 187.667 233.333 186.692L233.717 187.696C233.51 186.958 233.481 186.988 233.599 187.726C233.658 188.405 233.658 188.494 233.628 188.021C233.628 187.549 233.599 187.637 233.54 188.317C233.422 188.996 233.422 189.085 233.54 188.612C233.687 188.169 233.628 188.258 233.422 188.848C232.979 189.557 232.683 190 232.092 190.591C231.472 191.004 231.472 191.034 232.092 190.62L231.029 191.034C231.029 191.034 232.063 190.768 232.063 190.739C231.974 190.916 230.025 190.945 231.384 190.945L230.143 190.798C230.852 191.034 230.822 191.004 230.114 190.739C229.346 190.295 228.932 189.941 228.282 189.35C227.898 188.789 227.81 188.671 228.046 189.055C228.282 189.468 228.223 189.321 227.898 188.671C227.81 188.287 227.544 186.545 227.514 186.958C227.514 187.194 227.426 187.992 227.514 188.198C227.367 187.933 227.928 186.19 227.514 187.371C227.633 186.988 228.401 185.806 227.78 186.722C227.16 187.637 228.017 186.456 228.223 186.22C227.485 187.106 228.991 185.806 229.316 185.629C229.936 185.393 230.054 185.363 229.611 185.481C229.168 185.599 229.287 185.57 229.966 185.452C230.35 185.334 230.734 185.334 231.147 185.452C231.797 185.57 231.915 185.57 231.502 185.452C230.557 185.215 233.097 186.249 231.886 185.54C232.211 185.747 233.097 186.545 232.388 185.777C232.654 186.042 233.333 186.988 232.742 186.131C231.974 185.009 231.088 184.093 229.966 183.355C228.489 182.38 230.557 184.388 229.523 183.03C227.012 179.81 222.316 181.553 220.396 184.211L220.367 184.241Z" fill="#3E3D4D"/>
<path d="M311.011 181.08C307.614 181.701 305.281 185.452 304.454 188.553C303.095 193.574 305.812 198.742 310.243 201.164C317.479 205.152 326.871 201.548 330.031 194.046C333.369 186.131 328.761 177.448 320.669 174.967C316.947 173.815 312.812 174.287 309.416 176.148C305.133 178.481 302.711 182.912 302.298 187.667C301.796 193.367 305.812 198.949 311.276 200.455C316.74 201.962 322.529 199.451 325.601 194.696C327.639 191.565 327.285 187.519 325.601 184.359L325.512 184.182C323.622 180.608 318.158 178.038 314.2 179.574C311.897 180.46 310.213 181.346 308.707 183.325C307.496 184.89 307.644 184.713 309.15 182.793C310.863 181.642 311.276 181.287 310.361 181.73L312.812 180.696C312.606 180.785 312.369 180.844 312.133 180.874L314.85 180.519C314.614 180.519 314.378 180.519 314.171 180.519L316.888 180.874C316.652 180.844 316.445 180.785 316.238 180.667L318.66 181.701C321.289 184.92 322.175 185.776 321.318 184.211L322.352 186.633C322.234 186.367 322.175 186.101 322.145 185.836L322.5 188.523C322.5 188.228 322.5 187.962 322.5 187.667L322.145 190.354C322.204 190.059 322.264 189.793 322.382 189.527L321.378 191.949C321.584 191.536 322.352 190.413 321.289 191.861C320.994 192.363 320.61 192.776 320.078 193.072C319.251 193.633 319.133 193.751 319.724 193.426L317.331 194.43C317.686 194.283 318.04 194.164 318.424 194.076L315.766 194.43C316.297 194.371 316.77 194.371 317.302 194.43L314.643 194.076C315.027 194.135 315.382 194.283 315.766 194.371C314.584 194.164 313.787 193.692 313.049 192.776L313.344 193.042C313.994 193.751 313.728 193.397 312.487 191.92L311.808 190.236C311.897 190.473 311.956 190.738 311.985 190.975L311.631 188.376C311.66 188.789 311.66 189.143 311.631 189.557L311.985 186.958C311.66 188.376 313.255 184.89 312.399 186.101C312.606 185.806 314.171 184.241 313.019 185.215C312.34 185.806 315.234 183.827 313.846 184.536C314.407 184.27 316.268 183.739 314.643 184.093L317.184 183.739C316.77 183.798 316.416 183.798 316.002 183.739L318.542 184.093C317.124 183.827 320.462 185.304 319.369 184.536C319.428 184.566 321.171 186.219 320.491 185.333C319.871 184.536 318.985 183.857 318.158 183.355C317.804 183.148 317.036 182.587 318.335 183.561C319.015 184.122 319.192 184.27 318.897 183.975C318.454 183.532 318.719 183.886 319.694 185.068C319.635 185.068 318.572 183.502 318.808 183.798C316.888 181.317 314.171 180.519 311.099 181.08H311.011Z" fill="#3E3D4D"/>
<path d="M248.928 216.966C250.7 218.797 259.679 227.598 274.062 228.012C287.944 228.425 297.188 220.717 299.197 218.974" stroke="#3E3D4D" stroke-width="8.95275" stroke-miterlimit="10" stroke-linecap="round"/>
<path d="M215.819 162.562C219.422 151.279 232.654 148.001 241.19 156.212C244.261 159.165 248.987 154.499 245.886 151.516C233.717 139.79 214.549 144.723 209.41 160.79C208.11 164.866 214.519 166.608 215.819 162.562Z" fill="#3E3D4D"/>
<path d="M309.327 147.824C318.247 138.284 332.778 142.773 335.141 155.503C335.939 159.697 342.318 157.925 341.55 153.731C338.272 136.128 316.77 130.132 304.631 143.128C301.707 146.258 306.403 150.955 309.327 147.824Z" fill="#3E3D4D"/>
<path d="M59.1937 218.974L53.6116 252.556" stroke="#B5FF3F" stroke-width="40.2874" stroke-miterlimit="10" stroke-linecap="round"/>
<path d="M20.1479 226.358L35.772 256.572" stroke="#B5FF3F" stroke-width="40.2874" stroke-miterlimit="10" stroke-linecap="round"/>
<path d="M43.451 257.488C38.7845 259.053 35.2698 263.661 35.004 268.564C34.7381 273.466 37.7507 278.428 42.2106 280.496" stroke="#3E3D4D" stroke-width="8.95275" stroke-miterlimit="10" stroke-linecap="round"/>
<path d="M42.8598 280.496C41.6488 282.947 40.4083 285.399 39.1974 287.88" stroke="#3E3D4D" stroke-width="8.95275" stroke-miterlimit="10" stroke-linecap="round"/>
<path d="M18.7296 262.361C16.8984 267.057 19.2908 272.256 23.6325 273.88C27.5311 275.357 32.1977 273.614 34.3537 269.686" stroke="#3E3D4D" stroke-width="8.95275" stroke-miterlimit="10" stroke-linecap="round"/>
</svg>
