<svg width="793" height="694" viewBox="0 0 793 694" fill="none" xmlns="http://www.w3.org/2000/svg">
<path d="M257.052 410.273C229.292 502.931 128.376 537.592 44.7084 494.313C41.2202 492.571 28.3819 484.874 24.7968 482.889C1.97826 469.673 -5.82169 440.529 7.40434 417.728C24.6999 386.552 71.6934 386.31 89.5219 416.905C97.3219 423.586 108.029 428.379 117.912 431.235C152.455 442.466 188.741 421.165 203.178 389.069C219.602 357.699 266.45 376.386 257.1 410.273H257.052Z" fill="#B5FF3F"/>
<path d="M646.49 421.749C636.333 495.117 638.644 569.26 652.651 640.207C657.464 664.566 641.724 688.247 617.512 693.09C591.038 698.61 565.286 678.319 564.179 651.2C559.366 569.115 568.319 487.127 589.98 409.691C594.312 394.194 610.292 385.187 625.695 389.545C639.847 393.565 648.559 407.463 646.49 421.701V421.749Z" fill="#B5FF3F"/>
<path d="M175.637 367.546C195.257 449.961 350.384 477.401 429.639 479.816C528.273 482.811 691.326 452.618 711.188 367.546C732.161 277.885 591.87 136.921 443.412 136.872C294.616 136.872 154.422 278.417 175.637 367.546Z" fill="#B5FF3F"/>
<path d="M657.394 322.439C731.91 222.249 763.495 119.592 727.941 93.1484C692.387 66.705 603.157 126.489 528.641 226.679C454.124 326.87 422.539 429.526 458.093 455.97C493.647 482.413 582.877 422.63 657.394 322.439Z" fill="#B5FF3F"/>
<path d="M443.389 452.064C487.573 452.064 523.392 350.866 523.392 226.032C523.392 101.198 487.573 0 443.389 0C399.205 0 363.386 101.198 363.386 226.032C363.386 350.866 399.205 452.064 443.389 452.064Z" fill="#B5FF3F"/>
<path d="M453.487 437.549C489.041 411.106 457.456 308.449 382.94 208.258C308.423 108.068 219.193 48.2842 183.639 74.7276C148.085 101.171 179.67 203.828 254.186 304.018C328.703 404.209 417.933 463.992 453.487 437.549Z" fill="#B5FF3F"/>
<path d="M384.124 296.601C382.557 298.658 385.501 295.883 383.696 296.936C382.224 297.844 380.99 298.945 379.898 300.332C379.423 300.81 379.043 301.384 378.71 301.958C378.33 302.532 378.473 302.436 378.995 301.671C379.613 300.954 379.66 300.858 379.233 301.336C378.568 302.006 378.9 301.767 380.325 300.667C378.805 301.528 380.8 300.619 381.322 300.428C379.613 300.954 381.939 300.38 382.462 300.38C383.032 300.38 385.311 301.049 383.554 300.475L385.311 301.145C386.831 302.436 387.21 302.771 386.498 302.054C385.311 300.81 388.113 304.35 387.115 302.963C386.831 302.532 385.643 301.145 386.925 302.771C387.305 303.824 387.448 303.967 387.211 303.25C387.021 302.532 387.021 302.723 387.211 303.919C387.211 306.407 387.353 303.919 387.353 303.345C387.353 301.384 387.353 304.254 387.211 304.732C387.068 305.211 385.738 307.555 386.736 305.928C385.786 307.459 384.646 308.033 383.222 308.99C382.177 309.372 382.034 309.42 382.747 309.181C383.459 308.99 383.269 308.99 382.177 309.181C381.037 309.277 380.847 309.324 381.607 309.277C382.367 309.277 382.177 309.229 381.085 309.085C379.613 308.177 380.61 308.99 381.37 309.277C382.984 309.851 378.615 307.937 380.8 309.181C379.755 308.559 378.805 307.746 378.235 306.694C377.856 306.024 377.523 304.111 377.856 305.88C377.713 305.211 377.523 303.011 377.523 304.924C377.856 302.915 377.856 302.436 377.523 303.489C377.286 304.206 377.333 304.063 377.666 303.106C378.093 302.197 378.093 302.054 377.713 302.676C377.333 303.297 377.381 303.202 377.951 302.389C378.235 302.102 380.372 300.475 379.423 300.954C377.998 301.719 381.892 299.806 382.319 300.332C382.272 300.236 380.277 300.332 380.325 300.332C380.277 300.571 383.222 300.475 380.895 300.332C381.749 300.38 382.652 301.097 381.227 300.284C379.613 299.327 377.713 298.705 375.861 298.418C375.719 298.418 371.207 297.94 375.149 298.514C370.922 297.892 366.839 298.945 364.512 302.867C359.621 311.19 364.084 319.465 371.302 324.44C377.761 328.888 386.498 328.649 393.146 324.727C405.968 317.169 409.292 297.94 397.8 287.608C387.305 278.137 368.406 279.333 361.805 293.061C355.679 305.833 362.422 321.904 376.098 325.922C391.294 330.323 409.054 312.96 398.702 298.418C395.616 294.113 388.065 291.291 384.029 296.505L384.124 296.601Z" fill="#3E3D4D"/>
<path d="M260.014 296.496C259.196 296.978 258.088 297.846 257.366 298.522C256.932 298.908 255.921 300.886 255.102 301.61C254.043 302.527 257.221 299.053 256.258 300.066C255.439 300.886 259.581 297.991 257.847 298.811C256.306 299.583 254.717 300.886 253.609 302.237C252.213 303.926 256.643 300.259 255.199 301.079C254.091 301.706 259.148 299.777 256.788 300.211L260.93 299.632C260.255 299.68 259.677 299.632 259.003 299.632L263.145 300.211C261.508 299.873 260.833 299.004 264.445 300.934C262.374 299.776 267.094 303.298 265.794 302.044C264.782 301.127 264.349 299.728 266.805 303.492C265.457 301.417 268.057 307.448 267.479 304.891L268.057 309.137C267.961 308.461 267.961 307.882 268.057 307.207L267.479 311.452C267.816 309.667 268.683 309.522 266.709 312.948C264.782 315.264 264.253 315.94 265.12 314.975C265.312 314.733 265.553 314.54 265.794 314.347L263.53 316.133C264.927 315.361 264.205 315.65 261.363 316.953C261.989 316.856 262.567 316.615 263.193 316.47L258.859 317.049C259.726 316.953 260.496 316.953 261.363 317.049L257.029 316.47C257.655 316.615 258.184 316.76 258.81 317.049L254.91 315.409C256.884 316.47 252.839 313.431 252.357 312.852C250.623 310.536 251.876 312.369 252.213 312.996L250.575 309.04C250.768 309.474 250.864 309.957 250.961 310.391L250.383 306C250.479 306.435 250.479 306.917 250.383 307.4L250.961 303.009C250.961 303.443 250.816 303.878 250.623 304.312L252.309 300.355C250.912 302.864 252.357 301.513 256.643 296.254L260.593 294.566C260.255 294.71 259.918 294.855 259.533 294.903L263.964 294.324C263.578 294.373 263.193 294.373 262.856 294.324L267.287 294.903C266.901 294.903 266.564 294.759 266.179 294.614L270.176 296.303C268.731 295.579 269.406 296.158 272.151 298.04C274.607 301.176 274.8 301.465 272.873 298.908C270.417 295.724 267.672 294.276 263.916 292.78C260.641 291.478 256.354 292.298 253.272 293.601C250.19 294.903 247.108 297.171 245.47 300.307L245.326 300.597C242.581 305.759 242.003 312.369 245.326 317.483C249.371 323.756 256.354 328.098 263.964 327.567C274.848 326.795 282.409 318.883 283.324 308.075C283.854 301.61 280.771 294.421 275.859 290.223C269.743 285.061 262.374 283.276 254.573 284.964C242.003 287.666 233.43 301.127 236.946 313.624C240.462 326.12 255.68 334.274 268.202 328.967C276.678 325.396 282.312 316.567 279.76 307.207C277.496 298.908 268.828 291.333 260.111 296.399L260.014 296.496Z" fill="#3E3D4D"/>
<path d="M369.169 355.675C366.281 358.707 351.647 373.278 328.204 373.962C305.579 374.647 290.512 361.885 287.239 359" stroke="#3E3D4D" stroke-width="10" stroke-miterlimit="10" stroke-linecap="round"/>
<path d="M425.756 238.077C417.338 211.532 385.941 203.319 366.009 222.727C360.93 227.664 368.67 235.437 373.701 230.499C387.634 216.958 409.356 222.287 415.258 241.01C417.386 247.707 427.884 244.872 425.756 238.077Z" fill="#3E3D4D"/>
<path d="M288.628 221.594C268.825 200.305 233.881 210.127 228.546 238.964C227.296 245.834 237.678 248.737 238.976 241.867C242.821 221.013 266.469 213.659 280.985 229.287C285.744 234.416 293.386 226.723 288.628 221.594Z" fill="#3E3D4D"/>
<path d="M126.841 325.794H52.4423C44.2405 325.794 37.5917 332.418 37.5917 340.588V481.609C37.5917 489.78 44.2405 496.403 52.4423 496.403H126.841C135.043 496.403 141.692 489.78 141.692 481.609V340.588C141.692 332.418 135.043 325.794 126.841 325.794Z" fill="#3E3D4D"/>
<path d="M48.1945 500.259C74.8116 500.259 96.3889 478.681 96.3889 452.064C96.3889 425.447 74.8116 403.87 48.1945 403.87C21.5774 403.87 0 425.447 0 452.064C0 478.681 21.5774 500.259 48.1945 500.259Z" fill="#B5FF3F"/>
<path d="M52.5319 352.783C55.9921 352.783 58.7972 349.978 58.7972 346.518C58.7972 343.058 55.9921 340.253 52.5319 340.253C49.0717 340.253 46.2666 343.058 46.2666 346.518C46.2666 349.978 49.0717 352.783 52.5319 352.783Z" fill="white"/>
<path d="M52.5319 362.422C54.3951 362.422 55.9055 360.912 55.9055 359.049C55.9055 357.185 54.3951 355.675 52.5319 355.675C50.6687 355.675 49.1583 357.185 49.1583 359.049C49.1583 360.912 50.6687 362.422 52.5319 362.422Z" fill="white"/>
</svg>
